SplineFontDB: 3.2
FontName: ATM002-Regular
FullName: ATM002-Regular
FamilyName: ATM 002
Weight: Book
Copyright: AzhaguThamizh
Version: 1.001
ItalicAngle: -11
UnderlinePosition: -271
UnderlineWidth: 102
Ascent: 1600
Descent: 400
InvalidEm: 0
sfntRevision: 0x00010042
LayerCount: 2
Layer: 0 1 "Back" 1
Layer: 1 1 "Fore" 0
XUID: [1021 192 2086997156 9365]
StyleMap: 0x0040
FSType: 8
OS2Version: 3
OS2_WeightWidthSlopeOnly: 0
OS2_UseTypoMetrics: 0
CreationTime: 1545657640
ModificationTime: 1545657999
PfmFamily: 17
TTFWeight: 400
TTFWidth: 5
LineGap: 0
VLineGap: 0
Panose: 2 11 6 4 2 2 2 2 2 4
OS2TypoAscent: 2000
OS2TypoAOffset: 0
OS2TypoDescent: -1320
OS2TypoDOffset: 0
OS2TypoLinegap: 0
OS2WinAscent: 2000
OS2WinAOffset: 0
OS2WinDescent: 744
OS2WinDOffset: 0
HheadAscent: 2000
HheadAOffset: 0
HheadDescent: -1320
HheadDOffset: 0
OS2SubXSize: 1400
OS2SubYSize: 1300
OS2SubXOff: 0
OS2SubYOff: 0
OS2SupXSize: 1400
OS2SupYSize: 1300
OS2SupXOff: 0
OS2SupYOff: 0
OS2StrikeYSize: 100
OS2StrikeYPos: 518
OS2CapHeight: 1586
OS2XHeight: -200
OS2Vendor: '    '
OS2CodePages: 00000001.00000000
OS2UnicodeRanges: 00100003.00000000.00000000.00000000
Lookup: 4 0 0 "'akhn' Akhand in Tamil2 lookup 0" { "'akhn' Akhand in Tamil2 lookup 0 subtable"  } ['akhn' ('tml2' <'dflt' > ) ]
Lookup: 4 0 0 "'akhn' Akhand in Tamil lookup 1" { "'akhn' Akhand in Tamil lookup 1 subtable"  } ['akhn' ('taml' <'dflt' > ) ]
Lookup: 4 0 0 "'half' Half Forms in Tamil lookup 2" { "'half' Half Forms in Tamil lookup 2 subtable"  } ['half' ('taml' <'dflt' > ) ]
Lookup: 4 0 0 "'haln' Halant Forms in Tamil2 lookup 3" { "'haln' Halant Forms in Tamil2 lookup 3 subtable"  } ['haln' ('tml2' <'dflt' > ) ]
Lookup: 4 0 0 "'haln' Halant Forms in Tamil lookup 4" { "'haln' Halant Forms in Tamil lookup 4 subtable"  } ['haln' ('taml' <'dflt' > ) ]
Lookup: 4 0 0 "'abvs' Above Base Substitutions lookup 5" { "'abvs' Above Base Substitutions lookup 5 subtable"  } ['abvs' ('taml' <'dflt' > 'tml2' <'dflt' > ) ]

StartChar: .notdef
Encoding: 65536 -1 0
Width: 1600
Flags: W
LayerCount: 2
Fore
SplineSet
100 0 m 1,0,-1
 100 1600 l 1,1,-1
 1500 1600 l 1,2,-1
 1500 0 l 1,3,-1
 100 0 l 1,0,-1
1400 100 m 1,4,-1
 1400 1500 l 1,5,-1
 200 1500 l 1,6,-1
 200 100 l 1,7,-1
 1400 100 l 1,4,-1
EndSplineSet
EndChar

StartChar: exclam
Encoding: 33 33 4
Width: 460
GlyphClass: 2
Flags: W
LayerCount: 2
Fore
SplineSet
314 916 m 1,0,-1
 252 168 l 1,1,-1
 214 168 l 1,2,-1
 214 238 l 1,3,-1
 162 910 l 2,4,5
 162 958 162 958 182 986 c 128,-1,6
 202 1014 202 1014 240 1014 c 0,7,8
 274 1014 274 1014 294 990 c 128,-1,9
 314 966 314 966 314 916 c 1,0,-1
326 8 m 0,10,11
 326 -30 326 -30 297 -56 c 128,-1,12
 268 -82 268 -82 230 -82 c 0,13,14
 188 -82 188 -82 161 -56 c 128,-1,15
 134 -30 134 -30 134 8 c 0,16,17
 134 48 134 48 162 75 c 128,-1,18
 190 102 190 102 230 102 c 256,19,20
 270 102 270 102 298 74 c 0,21,22
 326 50 326 50 326 8 c 0,10,11
EndSplineSet
EndChar

StartChar: quotedbl
Encoding: 34 34 5
Width: 282
GlyphClass: 2
Flags: W
LayerCount: 2
Fore
SplineSet
224 706 m 0,0,1
 224 674 224 674 203 653 c 128,-1,2
 182 632 182 632 146 628 c 1,3,4
 104 628 104 628 80 663 c 128,-1,5
 56 698 56 698 56 744 c 0,6,7
 56 798 56 798 90 848 c 128,-1,8
 124 898 124 898 174 922 c 1,9,-1
 200 878 l 1,10,11
 168 866 168 866 142 836 c 128,-1,12
 116 806 116 806 112 780 c 1,13,-1
 140 782 l 1,14,15
 224 782 224 782 224 706 c 0,0,1
EndSplineSet
EndChar

StartChar: numbersign
Encoding: 35 35 6
Width: 674
GlyphClass: 2
Flags: W
LayerCount: 2
Fore
SplineSet
62 -16 m 1,0,-1
 114 238 l 1,1,-1
 14 238 l 1,2,-1
 14 328 l 1,3,-1
 130 328 l 1,4,-1
 174 540 l 1,5,-1
 14 540 l 1,6,-1
 14 630 l 1,7,-1
 192 630 l 1,8,-1
 244 880 l 1,9,-1
 332 880 l 1,10,-1
 282 630 l 1,11,-1
 466 630 l 1,12,-1
 518 880 l 1,13,-1
 608 880 l 1,14,-1
 556 630 l 1,15,-1
 658 630 l 1,16,-1
 658 540 l 1,17,-1
 536 540 l 1,18,-1
 492 328 l 1,19,-1
 658 328 l 1,20,-1
 658 238 l 1,21,-1
 478 238 l 1,22,-1
 426 -16 l 1,23,-1
 336 -16 l 1,24,-1
 388 238 l 1,25,-1
 200 238 l 1,26,-1
 150 -16 l 1,27,-1
 62 -16 l 1,0,-1
220 328 m 1,28,-1
 404 328 l 1,29,-1
 452 540 l 1,30,-1
 264 540 l 1,31,-1
 220 328 l 1,28,-1
EndSplineSet
EndChar

StartChar: dollar
Encoding: 36 36 7
Width: 674
GlyphClass: 2
Flags: W
LayerCount: 2
Fore
SplineSet
304 -126 m 1,0,-1
 304 -20 l 1,1,2
 264 -20 264 -20 240 -12 c 128,-1,3
 216 -4 216 -4 174 16 c 128,-1,4
 132 36 132 36 86 102 c 0,5,6
 52 154 52 154 44 242 c 1,7,-1
 150 262 l 1,8,9
 162 180 162 180 194 136 c 0,10,11
 236 82 236 82 304 72 c 1,12,-1
 304 412 l 1,13,14
 282 414 282 414 270 417 c 128,-1,15
 258 420 258 420 238 430 c 0,16,17
 218 436 218 436 200 446 c 128,-1,18
 182 456 182 456 168 462 c 0,19,20
 120 490 120 490 90 540 c 0,21,22
 74 570 74 570 70 594 c 2,23,-1
 64 654 l 1,24,25
 64 766 64 766 144 838 c 0,26,27
 192 880 192 880 304 896 c 1,28,-1
 304 946 l 1,29,-1
 366 946 l 1,30,-1
 366 896 l 1,31,32
 412 896 412 896 444 880 c 1,33,34
 474 872 474 872 510 842 c 0,35,36
 578 786 578 786 596 682 c 1,37,-1
 486 666 l 1,38,39
 480 728 480 728 444 760 c 1,40,41
 426 790 426 790 366 806 c 1,42,-1
 366 500 l 1,43,44
 438 482 438 482 452 477 c 128,-1,45
 466 472 466 472 474 466 c 0,46,47
 516 452 516 452 552 416 c 0,48,49
 584 380 584 380 598 343 c 128,-1,50
 612 306 612 306 618 246 c 1,51,52
 618 138 618 138 548 64 c 0,53,54
 512 26 512 26 464 4 c 0,55,56
 434 -8 434 -8 414 -13 c 128,-1,57
 394 -18 394 -18 366 -18 c 1,58,-1
 366 -126 l 1,59,-1
 304 -126 l 1,0,-1
304 808 m 1,60,61
 236 802 236 802 202 756 c 0,62,63
 170 718 170 718 170 662 c 0,64,65
 170 608 170 608 200 571 c 128,-1,66
 230 534 230 534 304 512 c 1,67,-1
 304 808 l 1,60,61
366 72 m 1,68,69
 430 82 430 82 466 126 c 0,70,71
 486 150 486 150 497 178 c 128,-1,72
 508 206 508 206 508 240 c 0,73,74
 508 296 508 296 481 331 c 128,-1,75
 454 366 454 366 366 396 c 1,76,-1
 366 72 l 1,68,69
EndSplineSet
EndChar

StartChar: percent
Encoding: 37 37 8
Width: 1248
GlyphClass: 2
Flags: W
LayerCount: 2
Fore
SplineSet
554 930 m 0,0,1
 554 854 554 854 500 798 c 128,-1,2
 446 742 446 742 366 742 c 0,3,4
 294 742 294 742 235 796 c 128,-1,5
 176 850 176 850 176 930 c 0,6,7
 176 1012 176 1012 234 1068 c 128,-1,8
 292 1124 292 1124 372 1124 c 0,9,10
 444 1124 444 1124 499 1066 c 128,-1,11
 554 1008 554 1008 554 930 c 0,0,1
1126 1116 m 1,12,-1
 238 -44 l 1,13,-1
 122 -44 l 1,14,-1
 1008 1116 l 1,15,-1
 1126 1116 l 1,12,-1
1082 162 m 0,16,17
 1082 86 1082 86 1026 30 c 128,-1,18
 970 -26 970 -26 890 -26 c 0,19,20
 816 -26 816 -26 758 31 c 128,-1,21
 700 88 700 88 700 162 c 0,22,23
 700 240 700 240 756 297 c 128,-1,24
 812 354 812 354 890 354 c 256,25,26
 968 354 968 354 1024 296 c 1,27,28
 1082 242 1082 242 1082 162 c 0,16,17
480 932 m 0,29,30
 480 982 480 982 449 1016 c 128,-1,31
 418 1050 418 1050 366 1050 c 0,32,33
 318 1050 318 1050 285 1015 c 128,-1,34
 252 980 252 980 252 932 c 0,35,36
 252 882 252 882 283 848 c 128,-1,37
 314 814 314 814 366 814 c 0,38,39
 414 814 414 814 447 849 c 128,-1,40
 480 884 480 884 480 932 c 0,29,30
1012 162 m 0,41,42
 1012 210 1012 210 977 245 c 128,-1,43
 942 280 942 280 894 280 c 0,44,45
 848 280 848 280 813 246 c 128,-1,46
 778 212 778 212 778 162 c 0,47,48
 778 116 778 116 814 82 c 128,-1,49
 850 48 850 48 894 48 c 0,50,51
 940 48 940 48 976 82 c 128,-1,52
 1012 116 1012 116 1012 162 c 0,41,42
EndSplineSet
EndChar

StartChar: ampersand
Encoding: 38 38 9
Width: 1220
GlyphClass: 2
Flags: W
LayerCount: 2
Fore
SplineSet
1098 -28 m 1,0,-1
 966 -28 l 1,1,-1
 836 98 l 1,2,3
 696 -48 696 -48 464 -48 c 0,4,5
 328 -48 328 -48 225 32 c 128,-1,6
 122 112 122 112 122 238 c 0,7,8
 122 340 122 340 190 418 c 128,-1,9
 258 496 258 496 388 530 c 1,10,11
 282 608 282 608 282 734 c 0,12,13
 282 828 282 828 348 882 c 1,14,15
 416 932 416 932 524 932 c 0,16,17
 616 932 616 932 682 873 c 128,-1,18
 748 814 748 814 748 718 c 0,19,20
 748 618 748 618 678 562 c 0,21,22
 638 530 638 530 546 500 c 1,23,-1
 820 238 l 1,24,25
 824 244 824 244 831 269 c 128,-1,26
 838 294 838 294 844 332 c 128,-1,27
 850 370 850 370 848 396 c 1,28,-1
 952 396 l 1,29,30
 958 348 958 348 932 270 c 0,31,32
 918 230 918 230 908 209 c 128,-1,33
 898 188 898 188 886 172 c 1,34,-1
 1098 -28 l 1,0,-1
658 718 m 0,35,36
 658 756 658 756 622 798 c 1,37,38
 578 842 578 842 530 842 c 0,39,40
 472 842 472 842 422 812 c 128,-1,41
 372 782 372 782 372 726 c 0,42,43
 372 620 372 620 474 568 c 1,44,45
 560 584 560 584 609 627 c 128,-1,46
 658 670 658 670 658 718 c 0,35,36
758 172 m 1,47,-1
 462 456 l 1,48,49
 340 426 340 426 285 371 c 128,-1,50
 230 316 230 316 230 222 c 0,51,52
 230 136 230 136 320 84 c 0,53,54
 398 42 398 42 504 42 c 0,55,56
 578 42 578 42 659 84 c 128,-1,57
 740 126 740 126 758 172 c 1,47,-1
EndSplineSet
EndChar

StartChar: quotesingle
Encoding: 39 39 10
Width: 298
GlyphClass: 2
Flags: W
LayerCount: 2
Fore
SplineSet
232 804 m 0,0,1
 232 752 232 752 198 702 c 128,-1,2
 164 652 164 652 114 628 c 1,3,-1
 88 670 l 1,4,5
 120 682 120 682 146 713 c 128,-1,6
 172 744 172 744 176 770 c 1,7,-1
 146 766 l 1,8,9
 64 766 64 766 64 842 c 0,10,11
 64 876 64 876 86 898 c 0,12,13
 108 916 108 916 142 920 c 1,14,15
 184 920 184 920 208 885 c 128,-1,16
 232 850 232 850 232 804 c 0,0,1
EndSplineSet
EndChar

StartChar: parenleft
Encoding: 40 40 11
Width: 630
GlyphClass: 2
Flags: W
LayerCount: 2
Fore
SplineSet
508 1208 m 1,0,1
 216 916 216 916 216 428 c 0,2,3
 216 166 216 166 316 -58 c 0,4,5
 394 -242 394 -242 498 -326 c 1,6,-1
 418 -366 l 1,7,8
 280 -228 280 -228 201 -16 c 128,-1,9
 122 196 122 196 122 440 c 256,10,11
 122 684 122 684 203 895 c 128,-1,12
 284 1106 284 1106 434 1246 c 1,13,-1
 508 1208 l 1,0,1
EndSplineSet
EndChar

StartChar: parenright
Encoding: 41 41 12
Width: 624
GlyphClass: 2
Flags: W
LayerCount: 2
Fore
SplineSet
500 418 m 0,0,1
 500 -88 500 -88 184 -398 c 1,2,-1
 110 -358 l 1,3,4
 426 -42 426 -42 426 422 c 0,5,6
 426 634 426 634 343 838 c 128,-1,7
 260 1042 260 1042 122 1180 c 1,8,-1
 196 1218 l 1,9,10
 326 1094 326 1094 413 885 c 128,-1,11
 500 676 500 676 500 418 c 0,0,1
EndSplineSet
EndChar

StartChar: asterisk
Encoding: 42 42 13
Width: 474
GlyphClass: 2
Flags: W
LayerCount: 2
Fore
SplineSet
40 706 m 1,0,-1
 66 792 l 1,1,2
 158 762 158 762 202 732 c 1,3,-1
 192 880 l 1,4,-1
 276 880 l 1,5,-1
 276 840 l 1,6,-1
 270 814 l 1,7,-1
 262 734 l 1,8,-1
 324 764 l 1,9,-1
 402 792 l 1,10,-1
 430 706 l 1,11,12
 392 696 392 696 358 688 c 128,-1,13
 324 680 324 680 282 676 c 1,14,15
 316 644 316 644 382 564 c 1,16,-1
 312 512 l 1,17,18
 280 558 280 558 234 638 c 1,19,20
 212 602 212 602 191 567 c 128,-1,21
 170 532 170 532 154 512 c 1,22,-1
 86 564 l 1,23,24
 118 604 118 604 142 632 c 0,25,26
 158 650 158 650 184 676 c 1,27,-1
 40 706 l 1,0,-1
EndSplineSet
EndChar

StartChar: plus
Encoding: 43 43 14
Width: 976
GlyphClass: 2
Flags: W
LayerCount: 2
Fore
SplineSet
854 328 m 1,0,-1
 546 328 l 1,1,-1
 546 14 l 1,2,-1
 446 14 l 1,3,-1
 446 328 l 1,4,-1
 122 328 l 1,5,-1
 122 426 l 1,6,-1
 446 426 l 1,7,-1
 446 750 l 1,8,-1
 546 750 l 1,9,-1
 546 426 l 1,10,-1
 854 426 l 1,11,-1
 854 328 l 1,0,-1
EndSplineSet
EndChar

StartChar: comma
Encoding: 44 44 15
Width: 346
GlyphClass: 2
Flags: W
LayerCount: 2
Fore
SplineSet
274 44 m 0,0,1
 274 -26 274 -26 230 -88 c 0,2,3
 190 -150 190 -150 124 -176 c 1,4,-1
 94 -124 l 1,5,6
 136 -108 136 -108 167 -69 c 128,-1,7
 198 -30 198 -30 202 2 c 1,8,-1
 164 -2 l 1,9,10
 64 -2 64 -2 64 92 c 0,11,12
 64 134 64 134 94 161 c 128,-1,13
 124 188 124 188 162 188 c 0,14,15
 212 188 212 188 243 145 c 128,-1,16
 274 102 274 102 274 44 c 0,0,1
EndSplineSet
EndChar

StartChar: hyphen
Encoding: 45 45 16
Width: 976
GlyphClass: 2
Flags: W
LayerCount: 2
Fore
SplineSet
854 328 m 1,0,-1
 122 328 l 1,1,-1
 122 426 l 1,2,-1
 854 426 l 1,3,-1
 854 328 l 1,0,-1
EndSplineSet
EndChar

StartChar: period
Encoding: 46 46 17
Width: 346
GlyphClass: 2
Flags: W
LayerCount: 2
Fore
SplineSet
270 100 m 0,0,1
 270 60 270 60 241 29 c 128,-1,2
 212 -2 212 -2 166 -2 c 0,3,4
 132 -2 132 -2 96 28 c 1,5,6
 64 60 64 60 64 100 c 0,7,8
 64 142 64 142 95 175 c 128,-1,9
 126 208 126 208 170 208 c 0,10,11
 210 208 210 208 240 177 c 128,-1,12
 270 146 270 146 270 100 c 0,0,1
EndSplineSet
EndChar

StartChar: slash
Encoding: 47 47 18
Width: 1014
GlyphClass: 2
Flags: W
LayerCount: 2
Fore
SplineSet
894 1156 m 1,0,-1
 208 -162 l 1,1,-1
 116 -140 l 1,2,-1
 800 1178 l 1,3,-1
 894 1156 l 1,0,-1
EndSplineSet
EndChar

StartChar: zero
Encoding: 48 48 19
Width: 1050
GlyphClass: 2
Flags: W
LayerCount: 2
Fore
SplineSet
938 438 m 0,0,1
 938 208 938 208 837 95 c 128,-1,2
 736 -18 736 -18 516 -18 c 0,3,4
 110 -18 110 -18 110 434 c 0,5,6
 110 876 110 876 532 876 c 0,7,8
 728 876 728 876 833 761 c 128,-1,9
 938 646 938 646 938 438 c 0,0,1
832 438 m 0,10,11
 832 786 832 786 538 786 c 0,12,13
 376 786 376 786 298 701 c 128,-1,14
 220 616 220 616 220 416 c 0,15,16
 220 68 220 68 522 68 c 0,17,18
 676 68 676 68 754 155 c 128,-1,19
 832 242 832 242 832 438 c 0,10,11
EndSplineSet
EndChar

StartChar: one
Encoding: 49 49 20
Width: 524
GlyphClass: 2
Flags: W
LayerCount: 2
Fore
SplineSet
414 0 m 1,0,-1
 306 0 l 1,1,-1
 306 628 l 1,2,-1
 110 628 l 1,3,-1
 110 710 l 1,4,5
 196 710 196 710 262 756 c 128,-1,6
 328 802 328 802 328 870 c 1,7,-1
 414 870 l 1,8,-1
 414 0 l 1,0,-1
EndSplineSet
EndChar

StartChar: two
Encoding: 50 50 21
Width: 1002
GlyphClass: 2
Flags: W
LayerCount: 2
Fore
SplineSet
892 0 m 1,0,-1
 110 0 l 1,1,2
 110 172 110 172 284 286 c 1,3,-1
 608 440 l 2,4,5
 782 524 782 524 782 632 c 0,6,7
 782 704 782 704 714 745 c 128,-1,8
 646 786 646 786 540 786 c 0,9,10
 394 786 394 786 318 728 c 0,11,12
 250 680 250 680 250 594 c 2,13,-1
 250 572 l 1,14,-1
 138 572 l 1,15,16
 138 876 138 876 536 876 c 0,17,18
 688 876 688 876 790 808 c 128,-1,19
 892 740 892 740 892 628 c 0,20,21
 892 502 892 502 722 394 c 1,22,-1
 408 240 l 2,23,24
 238 158 238 158 238 88 c 1,25,-1
 892 88 l 1,26,-1
 892 0 l 1,0,-1
EndSplineSet
EndChar

StartChar: three
Encoding: 51 51 22
Width: 1036
GlyphClass: 2
Flags: W
LayerCount: 2
Fore
SplineSet
924 238 m 0,0,1
 924 106 924 106 790 38 c 0,2,3
 674 -20 674 -20 510 -20 c 0,4,5
 332 -20 332 -20 226 50 c 0,6,7
 110 130 110 130 110 276 c 1,8,-1
 222 276 l 1,9,-1
 220 250 l 1,10,11
 220 164 220 164 314 112 c 0,12,13
 400 66 400 66 522 66 c 0,14,15
 816 66 816 66 816 230 c 0,16,17
 816 312 816 312 747 357 c 128,-1,18
 678 402 678 402 572 402 c 2,19,-1
 444 402 l 1,20,-1
 444 504 l 1,21,-1
 572 504 l 2,22,23
 610 504 610 504 640 510 c 128,-1,24
 670 516 670 516 702 532 c 0,25,26
 776 570 776 570 776 640 c 256,27,28
 776 710 776 710 696 752 c 1,29,30
 626 784 626 784 530 784 c 0,31,32
 392 784 392 784 316 720 c 0,33,34
 252 666 252 666 252 584 c 1,35,-1
 142 584 l 1,36,37
 142 702 142 702 232 780 c 0,38,39
 336 866 336 866 526 866 c 0,40,41
 686 866 686 866 785 801 c 128,-1,42
 884 736 884 736 884 644 c 0,43,44
 884 572 884 572 834 521 c 128,-1,45
 784 470 784 470 708 452 c 1,46,47
 802 452 802 452 863 392 c 128,-1,48
 924 332 924 332 924 238 c 0,0,1
EndSplineSet
EndChar

StartChar: four
Encoding: 52 52 23
Width: 1020
GlyphClass: 2
Flags: W
LayerCount: 2
Fore
SplineSet
944 212 m 1,0,-1
 764 212 l 1,1,-1
 764 0 l 1,2,-1
 662 0 l 1,3,-1
 662 212 l 1,4,-1
 110 212 l 1,5,-1
 110 312 l 1,6,-1
 644 860 l 1,7,-1
 764 860 l 1,8,-1
 764 294 l 1,9,-1
 944 294 l 1,10,-1
 944 212 l 1,0,-1
662 294 m 1,11,-1
 662 748 l 1,12,-1
 224 294 l 1,13,-1
 662 294 l 1,11,-1
EndSplineSet
EndChar

StartChar: five
Encoding: 53 53 24
Width: 1028
GlyphClass: 2
Flags: W
LayerCount: 2
Fore
SplineSet
914 290 m 0,0,1
 914 126 914 126 758 38 c 0,2,3
 642 -26 642 -26 504 -26 c 0,4,5
 352 -26 352 -26 236 44 c 0,6,7
 108 124 108 124 108 244 c 1,8,-1
 216 244 l 1,9,10
 216 166 216 166 300 118 c 128,-1,11
 384 70 384 70 504 70 c 0,12,13
 630 70 630 70 722 126 c 0,14,15
 824 190 824 190 824 298 c 0,16,17
 824 412 824 412 734 476 c 0,18,19
 656 530 656 530 516 530 c 0,20,21
 278 530 278 530 224 402 c 1,22,-1
 116 402 l 1,23,-1
 172 852 l 1,24,-1
 854 852 l 1,25,-1
 854 762 l 1,26,-1
 256 762 l 1,27,-1
 222 536 l 1,28,29
 314 622 314 622 516 622 c 0,30,31
 914 622 914 622 914 290 c 0,0,1
EndSplineSet
EndChar

StartChar: six
Encoding: 54 54 25
Width: 1040
GlyphClass: 2
Flags: W
LayerCount: 2
Fore
SplineSet
928 290 m 0,0,1
 928 140 928 140 806 54 c 0,2,3
 698 -24 698 -24 538 -24 c 0,4,5
 298 -24 298 -24 196 96 c 0,6,7
 110 200 110 200 110 410 c 0,8,9
 110 868 110 868 538 868 c 0,10,11
 694 868 694 868 787 810 c 128,-1,12
 880 752 880 752 896 644 c 1,13,-1
 786 644 l 1,14,15
 786 714 786 714 710 750 c 128,-1,16
 634 786 634 786 530 786 c 0,17,18
 394 786 394 786 302 686 c 0,19,20
 256 638 256 638 238 583 c 128,-1,21
 220 528 220 528 220 454 c 1,22,23
 310 590 310 590 548 590 c 0,24,25
 722 590 722 590 825 504 c 128,-1,26
 928 418 928 418 928 290 c 0,0,1
822 292 m 0,27,28
 822 386 822 386 738 446 c 1,29,30
 656 496 656 496 544 496 c 0,31,32
 422 496 422 496 338 444 c 0,33,34
 240 382 240 382 240 284 c 0,35,36
 240 184 240 184 323 127 c 128,-1,37
 406 70 406 70 544 70 c 0,38,39
 822 70 822 70 822 292 c 0,27,28
EndSplineSet
EndChar

StartChar: seven
Encoding: 55 55 26
Width: 982
GlyphClass: 2
Flags: W
LayerCount: 2
Fore
SplineSet
872 764 m 1,0,1
 748 722 748 722 586 494 c 0,2,3
 400 232 400 232 400 0 c 1,4,-1
 282 0 l 1,5,6
 282 100 282 100 318 206 c 128,-1,7
 354 312 354 312 424 428 c 0,8,9
 550 644 550 644 726 772 c 1,10,-1
 110 772 l 1,11,-1
 110 860 l 1,12,-1
 872 860 l 1,13,-1
 872 764 l 1,0,1
EndSplineSet
EndChar

StartChar: eight
Encoding: 56 56 27
Width: 1036
GlyphClass: 2
Flags: W
LayerCount: 2
Fore
SplineSet
926 220 m 0,0,1
 926 88 926 88 790 18 c 0,2,3
 674 -40 674 -40 508 -40 c 0,4,5
 350 -40 350 -40 238 22 c 0,6,7
 108 94 108 94 108 220 c 0,8,9
 108 318 108 318 172 382 c 0,10,11
 226 440 226 440 312 454 c 1,12,13
 158 506 158 506 158 636 c 0,14,15
 158 748 158 748 280 808 c 0,16,17
 378 854 378 854 532 854 c 0,18,19
 662 854 662 854 769 797 c 128,-1,20
 876 740 876 740 876 636 c 0,21,22
 876 500 876 500 726 452 c 1,23,24
 814 434 814 434 870 366 c 128,-1,25
 926 298 926 298 926 220 c 0,0,1
772 636 m 0,26,27
 772 704 772 704 690 742 c 0,28,29
 622 770 622 770 528 770 c 0,30,31
 432 770 432 770 348 737 c 128,-1,32
 264 704 264 704 264 632 c 0,33,34
 264 574 264 574 346 532 c 0,35,36
 418 496 418 496 524 496 c 0,37,38
 772 496 772 496 772 636 c 0,26,27
820 222 m 0,39,40
 820 312 820 312 729 363 c 128,-1,41
 638 414 638 414 522 414 c 0,42,43
 400 414 400 414 310 369 c 128,-1,44
 220 324 220 324 220 226 c 0,45,46
 220 140 220 140 320 88 c 0,47,48
 406 42 406 42 522 42 c 256,49,50
 638 42 638 42 722 88 c 0,51,52
 820 140 820 140 820 222 c 0,39,40
EndSplineSet
EndChar

StartChar: nine
Encoding: 57 57 28
Width: 1034
GlyphClass: 2
Flags: W
LayerCount: 2
Fore
SplineSet
922 430 m 0,0,1
 922 234 922 234 826 114 c 1,2,3
 714 -18 714 -18 488 -18 c 0,4,5
 334 -18 334 -18 238 51 c 128,-1,6
 142 120 142 120 142 210 c 1,7,-1
 258 210 l 1,8,9
 258 146 258 146 322 106 c 128,-1,10
 386 66 386 66 480 66 c 0,11,12
 650 66 650 66 738 166 c 0,13,14
 818 252 818 252 818 390 c 1,15,-1
 816 438 l 1,16,17
 698 292 698 292 492 292 c 0,18,19
 412 292 412 292 347 310 c 128,-1,20
 282 328 282 328 226 368 c 0,21,22
 110 448 110 448 110 582 c 0,23,24
 110 722 110 722 238 806 c 0,25,26
 346 878 346 878 508 878 c 0,27,28
 724 878 724 878 823 771 c 128,-1,29
 922 664 922 664 922 430 c 0,0,1
794 586 m 0,30,31
 794 690 794 690 712 742 c 0,32,33
 634 796 634 796 504 796 c 0,34,35
 386 796 386 796 306 744 c 0,36,37
 214 682 214 682 214 584 c 256,38,39
 214 486 214 486 300 430 c 0,40,41
 372 382 372 382 484 382 c 0,42,43
 606 382 606 382 694 430 c 0,44,45
 794 484 794 484 794 586 c 0,30,31
EndSplineSet
EndChar

StartChar: colon
Encoding: 58 58 29
Width: 430
GlyphClass: 2
Flags: W
LayerCount: 2
Fore
SplineSet
318 644 m 0,0,1
 318 602 318 602 289 573 c 128,-1,2
 260 544 260 544 216 544 c 0,3,4
 110 544 110 544 110 648 c 256,5,6
 110 752 110 752 214 752 c 0,7,8
 256 752 256 752 287 721 c 128,-1,9
 318 690 318 690 318 644 c 0,0,1
318 102 m 0,10,11
 318 62 318 62 289 31 c 128,-1,12
 260 0 260 0 216 0 c 0,13,14
 110 0 110 0 110 104 c 256,15,16
 110 208 110 208 214 208 c 0,17,18
 254 208 254 208 286 178 c 128,-1,19
 318 148 318 148 318 102 c 0,10,11
EndSplineSet
EndChar

StartChar: semicolon
Encoding: 59 59 30
Width: 430
GlyphClass: 2
Flags: W
LayerCount: 2
Fore
SplineSet
318 644 m 0,0,1
 318 610 318 610 288 580 c 0,2,3
 258 554 258 554 226 554 c 0,4,5
 188 554 188 554 160 579 c 128,-1,6
 132 604 132 604 132 644 c 0,7,8
 132 680 132 680 160 708 c 128,-1,9
 188 736 188 736 226 736 c 0,10,11
 262 736 262 736 290 708 c 0,12,13
 318 684 318 684 318 644 c 0,0,1
320 44 m 0,14,15
 320 -26 320 -26 278 -87 c 128,-1,16
 236 -148 236 -148 172 -176 c 1,17,-1
 142 -124 l 1,18,19
 184 -108 184 -108 215 -69 c 128,-1,20
 246 -30 246 -30 250 2 c 1,21,-1
 212 -2 l 1,22,23
 110 -2 110 -2 110 92 c 0,24,25
 110 134 110 134 140 161 c 128,-1,26
 170 188 170 188 208 188 c 0,27,28
 258 188 258 188 289 145 c 128,-1,29
 320 102 320 102 320 44 c 0,14,15
EndSplineSet
EndChar

StartChar: less
Encoding: 60 60 31
Width: 706
GlyphClass: 2
Flags: W
LayerCount: 2
Fore
SplineSet
68 380 m 1,0,-1
 68 480 l 1,1,-1
 642 722 l 1,2,-1
 642 614 l 1,3,-1
 188 430 l 1,4,-1
 642 240 l 1,5,-1
 642 134 l 1,6,-1
 68 380 l 1,0,-1
EndSplineSet
EndChar

StartChar: equal
Encoding: 61 61 32
Width: 966
GlyphClass: 2
Flags: W
LayerCount: 2
Fore
SplineSet
844 462 m 1,0,-1
 122 462 l 1,1,-1
 122 566 l 1,2,-1
 844 566 l 1,3,-1
 844 462 l 1,0,-1
844 200 m 1,4,-1
 122 200 l 1,5,-1
 122 304 l 1,6,-1
 844 304 l 1,7,-1
 844 200 l 1,4,-1
EndSplineSet
EndChar

StartChar: greater
Encoding: 62 62 33
Width: 706
GlyphClass: 2
Flags: W
LayerCount: 2
Fore
SplineSet
642 380 m 1,0,-1
 68 134 l 1,1,-1
 68 240 l 1,2,-1
 522 430 l 1,3,-1
 68 614 l 1,4,-1
 68 722 l 1,5,-1
 642 480 l 1,6,-1
 642 380 l 1,0,-1
EndSplineSet
EndChar

StartChar: question
Encoding: 63 63 34
Width: 948
GlyphClass: 2
Flags: W
LayerCount: 2
Fore
SplineSet
824 718 m 0,0,1
 824 586 824 586 740 508 c 1,2,-1
 584 398 l 1,3,4
 500 332 500 332 500 226 c 2,5,-1
 500 148 l 1,6,-1
 398 148 l 1,7,-1
 398 222 l 2,8,9
 398 340 398 340 488 422 c 1,10,-1
 656 542 l 1,11,12
 746 614 746 614 746 726 c 0,13,14
 746 830 746 830 673 906 c 128,-1,15
 600 982 600 982 486 982 c 0,16,17
 368 982 368 982 292 903 c 128,-1,18
 216 824 216 824 216 712 c 1,19,-1
 122 712 l 1,20,21
 122 856 122 856 219 955 c 128,-1,22
 316 1054 316 1054 482 1054 c 256,23,24
 648 1054 648 1054 744 956 c 1,25,26
 824 864 824 864 824 718 c 0,0,1
538 -4 m 0,27,28
 538 -94 538 -94 446 -94 c 0,29,30
 406 -94 406 -94 379 -68 c 128,-1,31
 352 -42 352 -42 352 -4 c 0,32,33
 352 36 352 36 379 63 c 128,-1,34
 406 90 406 90 446 90 c 256,35,36
 486 90 486 90 512 63 c 128,-1,37
 538 36 538 36 538 -4 c 0,27,28
EndSplineSet
EndChar

StartChar: at
Encoding: 64 64 35
Width: 1474
GlyphClass: 2
Flags: W
LayerCount: 2
Fore
SplineSet
1392 -4 m 1,0,1
 1374 -38 1374 -38 1352 -64 c 128,-1,2
 1330 -90 1330 -90 1288 -126 c 0,3,4
 1210 -196 1210 -196 1082 -244 c 0,5,6
 1068 -248 1068 -248 1031 -260 c 128,-1,7
 994 -272 994 -272 945 -279 c 128,-1,8
 896 -286 896 -286 865 -288 c 128,-1,9
 834 -290 834 -290 796 -290 c 0,10,11
 708 -290 708 -290 646 -281 c 128,-1,12
 584 -272 584 -272 510 -248 c 0,13,14
 380 -208 380 -208 292 -132 c 0,15,16
 244 -90 244 -90 211 -48 c 128,-1,17
 178 -6 178 -6 154 50 c 0,18,19
 92 186 92 186 92 332 c 0,20,21
 92 502 92 502 166 656 c 0,22,23
 252 840 252 840 403 940 c 128,-1,24
 554 1040 554 1040 782 1040 c 0,25,26
 868 1040 868 1040 943 1024 c 128,-1,27
 1018 1008 1018 1008 1086 970 c 0,28,29
 1222 902 1222 902 1304 764 c 1,30,31
 1370 642 1370 642 1370 506 c 0,32,33
 1370 312 1370 312 1228 152 c 0,34,35
 1106 14 1106 14 962 14 c 2,36,-1
 942 14 l 1,37,-1
 916 16 l 1,38,-1
 888 28 l 1,39,40
 860 48 860 48 852 64 c 1,41,42
 844 70 844 70 840 89 c 128,-1,43
 836 108 836 108 836 160 c 1,44,45
 800 114 800 114 775 91 c 128,-1,46
 750 68 750 68 716 46 c 0,47,48
 660 14 660 14 606 14 c 0,49,50
 546 14 546 14 490 46 c 1,51,52
 434 86 434 86 402 156 c 0,53,54
 364 230 364 230 364 320 c 0,55,56
 364 424 364 424 418 532 c 128,-1,57
 472 640 472 640 555 695 c 128,-1,58
 638 750 638 750 718 750 c 0,59,60
 778 750 778 750 828 722 c 0,61,62
 856 706 856 706 880 680 c 128,-1,63
 904 654 904 654 942 596 c 1,64,-1
 970 730 l 1,65,-1
 1062 730 l 1,66,-1
 966 278 l 1,67,-1
 944 166 l 1,68,69
 944 140 944 140 962 116 c 1,70,71
 986 100 986 100 1008 100 c 0,72,73
 1056 100 1056 100 1116 146 c 1,74,75
 1194 196 1194 196 1250 304 c 0,76,77
 1274 358 1274 358 1287 407 c 128,-1,78
 1300 456 1300 456 1300 508 c 0,79,80
 1300 564 1300 564 1283 621 c 128,-1,81
 1266 678 1266 678 1236 738 c 1,82,83
 1176 840 1176 840 1051 906 c 128,-1,84
 926 972 926 972 774 972 c 0,85,86
 688 972 688 972 610 953 c 128,-1,87
 532 934 532 934 464 894 c 0,88,89
 322 810 322 810 246 660 c 128,-1,90
 170 510 170 510 170 344 c 0,91,92
 170 172 170 172 242 42 c 128,-1,93
 314 -88 314 -88 470 -156 c 1,94,95
 550 -186 550 -186 626 -202 c 128,-1,96
 702 -218 702 -218 794 -218 c 256,97,98
 886 -218 886 -218 963 -202 c 128,-1,99
 1040 -186 1040 -186 1112 -156 c 1,100,101
 1232 -94 1232 -94 1304 -4 c 1,102,-1
 1392 -4 l 1,0,1
908 460 m 0,103,104
 908 556 908 556 856 617 c 128,-1,105
 804 678 804 678 726 678 c 0,106,107
 698 678 698 678 677 673 c 128,-1,108
 656 668 656 668 634 654 c 0,109,110
 588 632 588 632 550 574 c 0,111,112
 516 528 516 528 491 450 c 128,-1,113
 466 372 466 372 466 308 c 0,114,115
 466 204 466 204 514 145 c 128,-1,116
 562 86 562 86 632 86 c 0,117,118
 650 86 650 86 678 96 c 128,-1,119
 706 106 706 106 724 112 c 1,120,121
 742 124 742 124 767 144 c 128,-1,122
 792 164 792 164 812 188 c 0,123,124
 854 236 854 236 880 310 c 0,125,126
 894 360 894 360 901 393 c 128,-1,127
 908 426 908 426 908 460 c 0,103,104
EndSplineSet
EndChar

StartChar: bracketleft
Encoding: 91 91 36
Width: 404
GlyphClass: 2
Flags: W
LayerCount: 2
Fore
SplineSet
368 -276 m 1,0,-1
 114 -276 l 1,1,-1
 114 1028 l 1,2,-1
 368 1028 l 1,3,-1
 368 952 l 1,4,-1
 212 952 l 1,5,-1
 212 -200 l 1,6,-1
 368 -200 l 1,7,-1
 368 -276 l 1,0,-1
EndSplineSet
EndChar

StartChar: backslash
Encoding: 92 92 37
Width: 404
GlyphClass: 2
Flags: W
LayerCount: 2
Fore
SplineSet
302 -18 m 1,0,-1
 0 1060 l 1,1,-1
 104 1060 l 1,2,-1
 404 -18 l 1,3,-1
 302 -18 l 1,0,-1
EndSplineSet
EndChar

StartChar: bracketright
Encoding: 93 93 38
Width: 404
GlyphClass: 2
Flags: W
LayerCount: 2
Fore
SplineSet
298 -276 m 1,0,-1
 42 -276 l 1,1,-1
 42 -200 l 1,2,-1
 198 -200 l 1,3,-1
 198 952 l 1,4,-1
 42 952 l 1,5,-1
 42 1028 l 1,6,-1
 298 1028 l 1,7,-1
 298 -276 l 1,0,-1
EndSplineSet
EndChar

StartChar: asciicircum
Encoding: 94 94 39
Width: 684
GlyphClass: 2
Flags: W
LayerCount: 2
Fore
SplineSet
624 506 m 1,0,-1
 526 506 l 1,1,-1
 342 956 l 1,2,-1
 160 506 l 1,3,-1
 60 506 l 1,4,-1
 300 1044 l 1,5,-1
 384 1044 l 1,6,-1
 624 506 l 1,0,-1
EndSplineSet
EndChar

StartChar: underscore
Encoding: 95 95 40
Width: 810
GlyphClass: 2
Flags: W
LayerCount: 2
Fore
SplineSet
812 -276 m 1,0,-1
 -6 -276 l 1,1,-1
 -6 -212 l 1,2,-1
 812 -212 l 1,3,-1
 812 -276 l 1,0,-1
EndSplineSet
EndChar

StartChar: grave
Encoding: 96 96 41
Width: 384
GlyphClass: 2
Flags: W
LayerCount: 2
Fore
SplineSet
72 1092 m 1,0,1
 78 1118 78 1118 88 1132 c 128,-1,2
 98 1146 98 1146 118 1160 c 0,3,4
 126 1164 126 1164 135 1167 c 128,-1,5
 144 1170 144 1170 176 1176 c 1,6,-1
 254 1176 l 1,7,-1
 286 1170 l 1,8,-1
 312 1152 l 1,9,-1
 328 1126 l 2,10,11
 334 1114 334 1114 334 1098 c 0,12,13
 334 1074 334 1074 327 1053 c 128,-1,14
 320 1032 320 1032 298 1022 c 2,15,-1
 276 1010 l 1,16,-1
 256 1008 l 1,17,-1
 174 1008 l 1,18,-1
 164 1010 l 1,19,-1
 148 1014 l 1,20,-1
 134 1018 l 1,21,-1
 214 1018 l 1,22,-1
 218 1000 l 1,23,-1
 220 982 l 2,24,25
 220 970 220 970 230 954 c 2,26,-1
 248 922 l 1,27,-1
 268 894 l 1,28,-1
 294 870 l 1,29,-1
 320 846 l 1,30,-1
 348 822 l 1,31,-1
 314 784 l 1,32,-1
 234 784 l 1,33,-1
 176 834 l 1,34,-1
 124 890 l 2,35,36
 102 918 102 918 80 964 c 1,37,-1
 68 998 l 1,38,-1
 64 1038 l 2,39,40
 60 1070 60 1070 72 1092 c 1,0,1
EndSplineSet
EndChar

StartChar: braceleft
Encoding: 123 123 42
Width: 428
GlyphClass: 2
Flags: W
LayerCount: 2
Fore
SplineSet
36 382 m 1,0,1
 84 382 84 382 112 408 c 0,2,3
 130 424 130 424 140 439 c 128,-1,4
 150 454 150 454 156 476 c 1,5,-1
 162 548 l 1,6,-1
 164 624 l 2,7,8
 164 730 164 730 170 772 c 0,9,10
 170 796 170 796 173 807 c 128,-1,11
 176 818 176 818 188 844 c 0,12,13
 208 876 208 876 227 894 c 128,-1,14
 246 912 246 912 278 922 c 128,-1,15
 310 932 310 932 362 932 c 2,16,-1
 398 932 l 1,17,-1
 398 834 l 1,18,-1
 378 834 l 2,19,20
 316 834 316 834 293 809 c 128,-1,21
 270 784 270 784 270 706 c 2,22,-1
 270 668 l 1,23,-1
 270 636 l 1,24,-1
 270 612 l 1,25,-1
 270 592 l 1,26,-1
 270 574 l 1,27,-1
 268 528 l 2,28,29
 268 508 268 508 264 500 c 0,30,31
 252 432 252 432 227 399 c 128,-1,32
 202 366 202 366 140 332 c 1,33,34
 208 306 208 306 239 247 c 128,-1,35
 270 188 270 188 270 50 c 2,36,-1
 272 -94 l 1,37,38
 278 -136 278 -136 298 -156 c 1,39,-1
 324 -164 l 2,40,41
 332 -168 332 -168 378 -172 c 1,42,-1
 398 -172 l 1,43,-1
 398 -268 l 1,44,-1
 362 -268 l 2,45,46
 298 -268 298 -268 274 -260 c 0,47,48
 240 -246 240 -246 210 -214 c 0,49,50
 194 -196 194 -196 187 -177 c 128,-1,51
 180 -158 180 -158 172 -132 c 1,52,53
 168 -100 168 -100 166 -68 c 128,-1,54
 164 -36 164 -36 164 30 c 2,55,-1
 164 82 l 2,56,57
 164 112 164 112 164 144 c 1,58,59
 158 176 158 176 156 186 c 0,60,61
 144 230 144 230 113 255 c 128,-1,62
 82 280 82 280 36 280 c 1,63,-1
 36 382 l 1,0,1
EndSplineSet
EndChar

StartChar: bar
Encoding: 124 124 43
Width: 332
GlyphClass: 2
Flags: W
LayerCount: 2
Fore
SplineSet
118 -268 m 1,0,-1
 118 932 l 1,1,-1
 214 932 l 1,2,-1
 214 -268 l 1,3,-1
 118 -268 l 1,0,-1
EndSplineSet
EndChar

StartChar: braceright
Encoding: 125 125 44
Width: 428
GlyphClass: 2
Flags: W
LayerCount: 2
Fore
SplineSet
392 382 m 1,0,-1
 392 280 l 1,1,2
 348 280 348 280 314 256 c 128,-1,3
 280 232 280 232 272 186 c 0,4,5
 266 164 266 164 266 128 c 2,6,-1
 262 40 l 1,7,-1
 262 16 l 1,8,-1
 262 -4 l 1,9,-1
 262 -22 l 1,10,-1
 260 -100 l 2,11,12
 260 -144 260 -144 236 -180 c 0,13,14
 232 -192 232 -192 219 -210 c 128,-1,15
 206 -228 206 -228 200 -234 c 2,16,-1
 176 -246 l 1,17,-1
 142 -262 l 1,18,-1
 112 -268 l 1,19,-1
 64 -268 l 1,20,-1
 28 -268 l 1,21,-1
 28 -172 l 1,22,-1
 48 -172 l 2,23,24
 112 -172 112 -172 134 -147 c 128,-1,25
 156 -122 156 -122 156 -42 c 2,26,-1
 156 80 l 1,27,-1
 162 156 l 2,28,29
 168 222 168 222 202 266 c 0,30,31
 230 308 230 308 286 332 c 1,32,33
 218 362 218 362 187 419 c 128,-1,34
 156 476 156 476 156 612 c 2,35,-1
 156 690 l 1,36,-1
 156 722 l 2,37,38
 156 734 156 734 156 746 c 0,39,40
 152 762 152 762 152 768 c 0,41,42
 152 796 152 796 131 815 c 128,-1,43
 110 834 110 834 48 834 c 2,44,-1
 28 834 l 1,45,-1
 28 932 l 1,46,-1
 64 932 l 2,47,48
 128 932 128 932 162 918 c 0,49,50
 194 908 194 908 219 875 c 128,-1,51
 244 842 244 842 252 794 c 2,52,-1
 260 728 l 1,53,-1
 262 632 l 2,54,55
 262 520 262 520 271 480 c 128,-1,56
 280 440 280 440 312 408 c 1,57,-1
 348 388 l 1,58,-1
 368 384 l 1,59,-1
 392 382 l 1,0,-1
EndSplineSet
EndChar

StartChar: asciitilde
Encoding: 126 126 45
Width: 748
GlyphClass: 2
Flags: W
LayerCount: 2
Fore
SplineSet
54 348 m 1,0,-1
 54 476 l 1,1,2
 124 552 124 552 228 552 c 0,3,4
 260 552 260 552 306 540 c 128,-1,5
 352 528 352 528 368 522 c 0,6,7
 396 508 396 508 426 496 c 2,8,-1
 490 474 l 1,9,-1
 516 468 l 1,10,-1
 532 468 l 2,11,12
 562 468 562 468 612 490 c 1,13,14
 656 514 656 514 694 554 c 1,15,-1
 694 420 l 1,16,17
 670 400 670 400 653 388 c 128,-1,18
 636 376 636 376 617 368 c 128,-1,19
 598 360 598 360 575 354 c 128,-1,20
 552 348 552 348 522 348 c 0,21,22
 478 348 478 348 449 356 c 128,-1,23
 420 364 420 364 402 372 c 128,-1,24
 384 380 384 380 342 398 c 0,25,26
 264 432 264 432 218 432 c 0,27,28
 174 432 174 432 142 416 c 0,29,30
 124 408 124 408 104 392 c 2,31,-1
 54 348 l 1,0,-1
EndSplineSet
EndChar

StartChar: cent
Encoding: 162 162 46
Width: 721
GlyphClass: 2
Flags: W
LayerCount: 2
Fore
SplineSet
598 156 m 1,0,1
 537 71 537 71 467 31 c 128,-1,2
 397 -9 397 -9 304 -17 c 1,3,-1
 228 -265 l 1,4,-1
 187 -265 l 1,5,-1
 262 -17 l 1,6,7
 177 -8 177 -8 128.5 47 c 128,-1,8
 80 102 80 102 80 188 c 0,9,10
 80 345 80 345 191.5 478.5 c 128,-1,11
 303 612 303 612 457 638 c 1,12,-1
 541 917 l 1,13,-1
 580 917 l 1,14,-1
 499 638 l 1,15,16
 580 638 580 638 616.5 607 c 128,-1,17
 653 576 653 576 653 523 c 0,18,19
 653 482 653 482 631.5 455.5 c 128,-1,20
 610 429 610 429 580 429 c 0,21,22
 557 429 557 429 544 442 c 128,-1,23
 531 455 531 455 531 476 c 0,24,25
 531 491 531 491 536 502 c 128,-1,26
 541 513 541 513 560.5 534.5 c 128,-1,27
 580 556 580 556 580 570 c 0,28,29
 580 578 580 578 575 585 c 0,30,31
 565 596 565 596 549.5 601 c 128,-1,32
 534 606 534 606 489 606 c 1,33,-1
 322 49 l 1,34,-1
 352 47 l 1,35,36
 470 47 470 47 580 173 c 1,37,-1
 598 156 l 1,0,1
284 57 m 1,38,-1
 445 598 l 1,39,40
 383 570 383 570 342 533 c 0,41,42
 274 467 274 467 237 380.5 c 128,-1,43
 200 294 200 294 200 205 c 0,44,45
 200 146 200 146 224 108 c 0,46,47
 243 81 243 81 284 57 c 1,38,-1
EndSplineSet
EndChar

StartChar: multiply
Encoding: 215 215 47
Width: 975
GlyphClass: 2
Flags: W
LayerCount: 2
Fore
SplineSet
267 230 m 1,0,-1
 515 479 l 1,1,-1
 267 728 l 1,2,-1
 308 768 l 1,3,-1
 556 520 l 1,4,-1
 805 768 l 1,5,-1
 844 728 l 1,6,-1
 595 480 l 1,7,-1
 845 230 l 1,8,-1
 805 190 l 1,9,-1
 555 439 l 1,10,-1
 307 190 l 1,11,-1
 267 230 l 1,0,-1
EndSplineSet
EndChar

StartChar: divide
Encoding: 247 247 48
Width: 792
GlyphClass: 2
Flags: W
LayerCount: 2
Fore
SplineSet
418 757 m 0,0,1
 443 757 443 757 461 739 c 128,-1,2
 479 721 479 721 479 695 c 0,3,4
 479 670 479 670 461 652 c 128,-1,5
 443 634 443 634 417 634 c 0,6,7
 392 634 392 634 373.5 652 c 128,-1,8
 355 670 355 670 355 695 c 0,9,10
 355 721 355 721 373.5 739 c 128,-1,11
 392 757 392 757 418 757 c 0,0,1
797 450 m 1,12,-1
 38 450 l 1,13,-1
 38 508 l 1,14,-1
 797 508 l 1,15,-1
 797 450 l 1,12,-1
418 320 m 0,16,17
 443 320 443 320 461 301.5 c 128,-1,18
 479 283 479 283 479 257 c 0,19,20
 479 233 479 233 461 215 c 128,-1,21
 443 197 443 197 418 197 c 0,22,23
 392 197 392 197 373.5 215 c 128,-1,24
 355 233 355 233 355 257 c 0,25,26
 355 283 355 283 373.5 301.5 c 128,-1,27
 392 320 392 320 418 320 c 0,16,17
EndSplineSet
EndChar

StartChar: tm_visarga
Encoding: 2947 2947 49
Width: 1110
GlyphClass: 2
Flags: W
LayerCount: 2
Fore
SplineSet
748 624 m 2,0,1
 748 562 748 562 690 507 c 128,-1,2
 632 452 632 452 560 452 c 2,3,-1
 530 452 l 2,4,5
 460 452 460 452 400 500 c 0,6,7
 372 526 372 526 356 557 c 128,-1,8
 340 588 340 588 340 624 c 2,9,-1
 340 654 l 2,10,11
 340 722 340 722 398 768 c 128,-1,12
 456 814 456 814 530 814 c 2,13,-1
 560 814 l 2,14,15
 632 814 632 814 690 769 c 128,-1,16
 748 724 748 724 748 654 c 2,17,-1
 748 624 l 2,0,1
1028 172 m 2,18,19
 1028 110 1028 110 968 52 c 0,20,21
 910 0 910 0 836 0 c 2,22,-1
 806 0 l 2,23,24
 730 0 730 0 674 52 c 128,-1,25
 618 104 618 104 618 172 c 2,26,-1
 618 202 l 2,27,28
 618 270 618 270 676 316 c 128,-1,29
 734 362 734 362 806 362 c 2,30,-1
 836 362 l 2,31,32
 878 362 878 362 907 352 c 128,-1,33
 936 342 936 342 968 316 c 0,34,35
 1028 272 1028 272 1028 202 c 2,36,-1
 1028 172 l 2,18,19
428 172 m 2,37,38
 428 112 428 112 370 54 c 1,39,40
 310 0 310 0 240 0 c 2,41,-1
 210 0 l 2,42,43
 138 0 138 0 80 50 c 0,44,45
 50 76 50 76 35 105 c 128,-1,46
 20 134 20 134 20 172 c 2,47,-1
 20 202 l 2,48,49
 20 268 20 268 76 315 c 128,-1,50
 132 362 132 362 210 362 c 2,51,-1
 240 362 l 2,52,53
 308 362 308 362 368 315 c 128,-1,54
 428 268 428 268 428 202 c 2,55,-1
 428 172 l 2,37,38
646 642 m 0,56,57
 646 678 646 678 617 706 c 128,-1,58
 588 734 588 734 546 734 c 0,59,60
 506 734 506 734 475 710 c 128,-1,61
 444 686 444 686 444 642 c 0,62,63
 444 596 444 596 474 559 c 128,-1,64
 504 522 504 522 546 522 c 0,65,66
 576 522 576 522 611 559 c 128,-1,67
 646 596 646 596 646 642 c 0,56,57
822 74 m 0,68,69
 866 74 866 74 892 104 c 128,-1,70
 918 134 918 134 918 184 c 0,71,72
 918 212 918 212 914 226 c 128,-1,73
 910 240 910 240 892 260 c 0,74,75
 868 292 868 292 822 292 c 256,76,77
 776 292 776 292 750 261 c 128,-1,78
 724 230 724 230 724 184 c 0,79,80
 724 140 724 140 749 107 c 128,-1,81
 774 74 774 74 822 74 c 0,68,69
226 74 m 0,82,83
 270 74 270 74 297 103 c 128,-1,84
 324 132 324 132 324 182 c 0,85,86
 324 226 324 226 300 260 c 1,87,88
 272 292 272 292 226 292 c 256,89,90
 180 292 180 292 152 258 c 128,-1,91
 124 224 124 224 124 182 c 0,92,93
 124 132 124 132 151 103 c 128,-1,94
 178 74 178 74 226 74 c 0,82,83
EndSplineSet
EndChar

StartChar: tm_a
Encoding: 2949 2949 50
Width: 1474
GlyphClass: 2
Flags: W
LayerCount: 2
Fore
SplineSet
1362 -12 m 1,0,-1
 1266 -12 l 1,1,-1
 1266 366 l 1,2,-1
 1114 366 l 1,3,4
 1062 -58 1062 -58 530 -58 c 0,5,6
 314 -58 314 -58 175 38 c 128,-1,7
 36 134 36 134 36 274 c 0,8,9
 36 350 36 350 85 401 c 128,-1,10
 134 452 134 452 214 452 c 2,11,-1
 508 452 l 1,12,13
 410 494 410 494 410 616 c 0,14,15
 410 858 410 858 726 858 c 0,16,17
 1082 858 1082 858 1118 452 c 1,18,-1
 1266 452 l 1,19,-1
 1266 768 l 1,20,-1
 1362 768 l 1,21,-1
 1362 -12 l 1,0,-1
734 632 m 0,22,23
 734 680 734 680 700 716 c 1,24,25
 670 756 670 756 618 756 c 0,26,27
 570 756 570 756 532 721 c 128,-1,28
 494 686 494 686 494 636 c 0,29,30
 494 580 494 580 528 545 c 128,-1,31
 562 510 562 510 618 510 c 0,32,33
 658 510 658 510 696 546 c 128,-1,34
 734 582 734 582 734 632 c 0,22,23
1032 452 m 1,35,36
 1032 604 1032 604 938 700 c 0,37,38
 898 742 898 742 850 761 c 128,-1,39
 802 780 802 780 742 780 c 1,40,41
 824 744 824 744 824 628 c 0,42,43
 824 572 824 572 790 523 c 128,-1,44
 756 474 756 474 704 452 c 1,45,-1
 1032 452 l 1,35,36
1028 366 m 1,46,-1
 226 366 l 2,47,48
 122 366 122 366 122 266 c 0,49,50
 122 160 122 160 246 87 c 128,-1,51
 370 14 370 14 530 14 c 0,52,53
 734 14 734 14 881 117 c 128,-1,54
 1028 220 1028 220 1028 366 c 1,46,-1
EndSplineSet
EndChar

StartChar: tm_aa
Encoding: 2950 2950 51
Width: 1716
GlyphClass: 2
Flags: W
LayerCount: 2
Fore
SplineSet
1676 64 m 0,0,1
 1676 -78 1676 -78 1573 -177 c 128,-1,2
 1470 -276 1470 -276 1302 -276 c 0,3,4
 1150 -276 1150 -276 1052 -193 c 128,-1,5
 954 -110 954 -110 954 22 c 1,6,-1
 1050 22 l 1,7,8
 1050 -196 1050 -196 1306 -196 c 0,9,10
 1420 -196 1420 -196 1503 -129 c 128,-1,11
 1586 -62 1586 -62 1586 42 c 0,12,13
 1586 216 1586 216 1460 216 c 0,14,15
 1322 216 1322 216 1322 60 c 2,16,-1
 1322 0 l 1,17,-1
 1230 0 l 1,18,-1
 1230 388 l 1,19,-1
 1090 388 l 1,20,21
 1038 -26 1038 -26 516 -26 c 0,22,23
 322 -26 322 -26 179 68 c 128,-1,24
 36 162 36 162 36 284 c 0,25,26
 36 368 36 368 90 419 c 128,-1,27
 144 470 144 470 224 470 c 2,28,-1
 502 470 l 1,29,30
 392 512 392 512 392 644 c 0,31,32
 392 870 392 870 704 870 c 0,33,34
 1046 870 1046 870 1090 470 c 1,35,-1
 1230 470 l 1,36,-1
 1230 784 l 1,37,-1
 1322 784 l 1,38,-1
 1322 244 l 1,39,40
 1368 302 1368 302 1460 302 c 0,41,42
 1558 302 1558 302 1617 238 c 128,-1,43
 1676 174 1676 174 1676 64 c 0,0,1
708 648 m 0,44,45
 708 696 708 696 674 730 c 0,46,47
 644 764 644 764 594 764 c 256,48,49
 544 764 544 764 509 730 c 128,-1,50
 474 696 474 696 474 648 c 256,51,52
 474 600 474 600 511 565 c 128,-1,53
 548 530 548 530 592 530 c 0,54,55
 640 530 640 530 674 566 c 128,-1,56
 708 602 708 602 708 648 c 0,44,45
1004 470 m 1,57,58
 1004 628 1004 628 927 711 c 128,-1,59
 850 794 850 794 716 794 c 1,60,61
 742 782 742 782 768 742 c 0,62,63
 774 730 774 730 784 704 c 128,-1,64
 794 678 794 678 794 648 c 0,65,66
 794 532 794 532 688 470 c 1,67,-1
 1004 470 l 1,57,58
1004 388 m 1,68,-1
 250 388 l 2,69,70
 124 388 124 388 124 290 c 0,71,72
 124 184 124 184 258 112 c 0,73,74
 380 48 380 48 530 48 c 0,75,76
 730 48 730 48 867 145 c 128,-1,77
 1004 242 1004 242 1004 388 c 1,68,-1
EndSplineSet
EndChar

StartChar: tm_i
Encoding: 2951 2951 52
Width: 1340
GlyphClass: 2
Flags: W
LayerCount: 2
Fore
SplineSet
1304 72 m 0,0,1
 1304 -170 1304 -170 952 -170 c 0,2,3
 914 -170 914 -170 875 -164 c 128,-1,4
 836 -158 836 -158 788 -142 c 2,5,-1
 640 -94 l 1,6,7
 458 -162 458 -162 334 -162 c 0,8,9
 218 -162 218 -162 130 -108 c 0,10,11
 34 -44 34 -44 34 62 c 0,12,13
 34 236 34 236 208 320 c 1,14,15
 168 396 168 396 168 604 c 0,16,17
 168 794 168 794 308 934 c 0,18,19
 464 1090 464 1090 724 1090 c 0,20,21
 988 1090 988 1090 1132 960 c 0,22,23
 1268 836 1268 836 1268 630 c 2,24,-1
 1268 380 l 1,25,-1
 1182 380 l 1,26,-1
 1182 652 l 2,27,28
 1182 816 1182 816 1049 919 c 128,-1,29
 916 1022 916 1022 742 1022 c 0,30,31
 536 1022 536 1022 394 904 c 0,32,33
 244 778 244 778 244 580 c 0,34,35
 244 454 244 454 288 354 c 1,36,37
 306 368 306 368 408 400 c 1,38,39
 512 426 512 426 556 426 c 1,40,41
 418 484 418 484 418 620 c 0,42,43
 418 732 418 732 504 795 c 128,-1,44
 590 858 590 858 730 858 c 0,45,46
 884 858 884 858 978 744 c 1,47,48
 1056 642 1056 642 1056 486 c 0,49,50
 1056 462 1056 462 1054 435 c 128,-1,51
 1052 408 1052 408 1046 380 c 1,52,53
 1174 318 1174 318 1224 272 c 0,54,55
 1304 198 1304 198 1304 72 c 0,0,1
734 620 m 0,56,57
 734 666 734 666 700 698 c 1,58,59
 670 732 670 732 622 732 c 256,60,61
 574 732 574 732 541 699 c 128,-1,62
 508 666 508 666 508 620 c 0,63,64
 508 572 508 572 542 540 c 128,-1,65
 576 508 576 508 622 508 c 256,66,67
 668 508 668 508 701 539 c 128,-1,68
 734 570 734 570 734 620 c 0,56,57
960 410 m 1,69,-1
 964 476 l 1,70,71
 964 606 964 606 906 691 c 128,-1,72
 848 776 848 776 724 776 c 1,73,74
 754 762 754 762 788 714 c 128,-1,75
 822 666 822 666 822 614 c 0,76,77
 822 550 822 550 781 499 c 128,-1,78
 740 448 740 448 676 436 c 1,79,80
 706 436 706 436 735 436 c 128,-1,81
 764 436 764 436 820 430 c 1,82,83
 864 430 864 430 898 425 c 128,-1,84
 932 420 932 420 960 410 c 1,69,-1
940 326 m 1,85,86
 868 352 868 352 716 352 c 0,87,88
 434 352 434 352 312 282 c 1,89,90
 336 220 336 220 443 117 c 128,-1,91
 550 14 550 14 632 -14 c 1,92,93
 682 10 682 10 733 49 c 128,-1,94
 784 88 784 88 830 140 c 0,95,96
 924 244 924 244 940 326 c 1,85,86
1226 72 m 0,97,98
 1226 154 1226 154 1164 218 c 0,99,100
 1112 270 1112 270 1028 294 c 1,101,102
 992 210 992 210 912 113 c 128,-1,103
 832 16 832 16 736 -44 c 1,104,-1
 834 -74 l 2,105,106
 862 -82 862 -82 893 -88 c 128,-1,107
 924 -94 924 -94 944 -94 c 0,108,109
 1226 -94 1226 -94 1226 72 c 0,97,98
538 -42 m 1,110,111
 468 -22 468 -22 360 92 c 0,112,113
 266 190 266 190 244 242 c 1,114,115
 190 224 190 224 153 174 c 128,-1,116
 116 124 116 124 116 62 c 0,117,118
 116 -8 116 -8 194 -56 c 1,119,120
 264 -94 264 -94 350 -94 c 0,121,122
 394 -94 394 -94 439 -82 c 128,-1,123
 484 -70 484 -70 538 -42 c 1,110,111
EndSplineSet
EndChar

StartChar: tm_ii
Encoding: 2952 2952 53
Width: 1070
GlyphClass: 2
Flags: W
LayerCount: 2
Fore
SplineSet
494 382 m 0,0,1
 494 352 494 352 470 328 c 0,2,3
 450 312 450 312 416 308 c 1,4,5
 340 308 340 308 340 382 c 0,6,7
 340 460 340 460 416 460 c 0,8,9
 446 460 446 460 470 437 c 128,-1,10
 494 414 494 414 494 382 c 0,0,1
1058 680 m 1,11,-1
 720 680 l 1,12,-1
 720 0 l 1,13,-1
 626 0 l 1,14,-1
 626 680 l 1,15,-1
 210 680 l 1,16,-1
 210 0 l 1,17,-1
 110 0 l 1,18,-1
 110 768 l 1,19,-1
 1058 768 l 1,20,-1
 1058 680 l 1,11,-1
1004 380 m 0,21,22
 1004 348 1004 348 984 328 c 128,-1,23
 964 308 964 308 928 304 c 0,24,25
 896 304 896 304 876 324 c 128,-1,26
 856 344 856 344 852 380 c 0,27,28
 852 412 852 412 872 432 c 128,-1,29
 892 452 892 452 928 456 c 0,30,31
 960 456 960 456 980 436 c 128,-1,32
 1000 416 1000 416 1004 380 c 0,21,22
EndSplineSet
EndChar

StartChar: tm_u
Encoding: 2953 2953 54
Width: 1396
GlyphClass: 2
Flags: W
LayerCount: 2
Fore
SplineSet
1384 0 m 1,0,-1
 220 0 l 2,1,2
 150 0 150 0 97 36 c 128,-1,3
 44 72 44 72 44 138 c 0,4,5
 44 198 44 198 100 240 c 0,6,7
 150 274 150 274 222 274 c 2,8,-1
 414 274 l 2,9,10
 518 274 518 274 588 334 c 128,-1,11
 658 394 658 394 658 492 c 0,12,13
 658 592 658 592 588 657 c 128,-1,14
 518 722 518 722 410 722 c 0,15,16
 374 722 374 722 345 718 c 128,-1,17
 316 714 316 714 274 702 c 1,18,19
 410 668 410 668 410 536 c 0,20,21
 410 458 410 458 358 409 c 128,-1,22
 306 360 306 360 222 360 c 0,23,24
 144 360 144 360 90 409 c 128,-1,25
 36 458 36 458 36 542 c 0,26,27
 36 658 36 658 141 726 c 128,-1,28
 246 794 246 794 406 794 c 0,29,30
 568 794 568 794 659 707 c 128,-1,31
 750 620 750 620 750 480 c 0,32,33
 750 350 750 350 647 269 c 128,-1,34
 544 188 544 188 356 188 c 2,35,-1
 232 188 l 2,36,37
 138 188 138 188 138 132 c 0,38,39
 138 112 138 112 164 94 c 1,40,41
 186 84 186 84 220 80 c 1,42,-1
 1384 80 l 1,43,-1
 1384 0 l 1,0,-1
334 536 m 0,44,45
 334 578 334 578 301 611 c 128,-1,46
 268 644 268 644 224 644 c 0,47,48
 182 644 182 644 149 612 c 128,-1,49
 116 580 116 580 116 536 c 0,50,51
 116 496 116 496 148 462 c 1,52,53
 184 430 184 430 224 430 c 256,54,55
 264 430 264 430 299 460 c 128,-1,56
 334 490 334 490 334 536 c 0,44,45
EndSplineSet
EndChar

StartChar: tm_uu
Encoding: 2954 2954 55
Width: 1944
GlyphClass: 2
Flags: W
LayerCount: 2
Fore
SplineSet
1932 692 m 1,0,-1
 1740 692 l 1,1,-1
 1740 154 l 1,2,-1
 1644 154 l 1,3,-1
 1644 692 l 1,4,-1
 1474 692 l 1,5,-1
 1474 154 l 1,6,-1
 1376 154 l 1,7,-1
 1376 460 l 2,8,9
 1376 604 1376 604 1328 659 c 128,-1,10
 1280 714 1280 714 1170 714 c 0,11,12
 1070 714 1070 714 1003 635 c 128,-1,13
 936 556 936 556 936 450 c 0,14,15
 936 422 936 422 940 408 c 1,16,17
 976 500 976 500 1094 500 c 0,18,19
 1172 500 1172 500 1217 450 c 128,-1,20
 1262 400 1262 400 1262 328 c 0,21,22
 1262 258 1262 258 1206 204 c 0,23,24
 1150 154 1150 154 1072 154 c 0,25,26
 988 154 988 154 923 240 c 128,-1,27
 858 326 858 326 858 448 c 0,28,29
 858 610 858 610 954 710 c 1,30,31
 1044 796 1044 796 1176 796 c 0,32,33
 1312 796 1312 796 1376 718 c 1,34,-1
 1376 770 l 1,35,-1
 1932 770 l 1,36,-1
 1932 692 l 1,0,-1
1874 0 m 1,37,-1
 212 0 l 2,38,39
 144 0 144 0 90 38 c 128,-1,40
 36 76 36 76 36 138 c 0,41,42
 36 198 36 198 88 238 c 1,43,44
 140 270 140 270 204 270 c 2,45,-1
 424 270 l 2,46,47
 516 270 516 270 589 336 c 128,-1,48
 662 402 662 402 662 492 c 0,49,50
 662 598 662 598 588 660 c 128,-1,51
 514 722 514 722 410 722 c 0,52,53
 332 722 332 722 266 700 c 1,54,55
 412 670 412 670 412 534 c 0,56,57
 412 462 412 462 354 412 c 0,58,59
 296 366 296 366 216 366 c 0,60,61
 142 366 142 366 89 423 c 128,-1,62
 36 480 36 480 36 562 c 0,63,64
 36 670 36 670 135 733 c 128,-1,65
 234 796 234 796 404 796 c 0,66,67
 556 796 556 796 652 717 c 128,-1,68
 748 638 748 638 748 498 c 0,69,70
 748 368 748 368 651 281 c 128,-1,71
 554 194 554 194 418 194 c 2,72,-1
 224 194 l 2,73,74
 190 194 190 194 159 178 c 128,-1,75
 128 162 128 162 128 132 c 0,76,77
 134 80 134 80 216 80 c 2,78,-1
 1874 80 l 1,79,-1
 1874 0 l 1,37,-1
328 538 m 0,80,81
 328 576 328 576 297 607 c 128,-1,82
 266 638 266 638 222 638 c 0,83,84
 180 638 180 638 150 608 c 128,-1,85
 120 578 120 578 120 538 c 256,86,87
 120 498 120 498 151 469 c 128,-1,88
 182 440 182 440 222 440 c 0,89,90
 266 440 266 440 297 468 c 128,-1,91
 328 496 328 496 328 538 c 0,80,81
1186 326 m 0,92,93
 1186 362 1186 362 1156 394 c 128,-1,94
 1126 426 1126 426 1086 426 c 0,95,96
 1052 426 1052 426 1018 396 c 1,97,98
 990 364 990 364 990 326 c 256,99,100
 990 288 990 288 1018 258 c 1,101,102
 1050 230 1050 230 1086 230 c 0,103,104
 1126 230 1126 230 1156 259 c 128,-1,105
 1186 288 1186 288 1186 326 c 0,92,93
EndSplineSet
EndChar

StartChar: tm_e
Encoding: 2958 2958 56
Width: 1184
GlyphClass: 2
Flags: W
LayerCount: 2
Fore
SplineSet
1172 690 m 1,0,-1
 938 690 l 1,1,-1
 938 0 l 1,2,-1
 844 0 l 1,3,-1
 844 690 l 1,4,-1
 458 690 l 2,5,6
 318 690 318 690 232 601 c 128,-1,7
 146 512 146 512 146 378 c 0,8,9
 146 218 146 218 216 148 c 1,10,11
 208 180 208 180 206 188 c 0,12,13
 206 208 206 208 206 216 c 0,14,15
 206 306 206 306 264 368 c 128,-1,16
 322 430 322 430 424 430 c 0,17,18
 528 430 528 430 589 373 c 128,-1,19
 650 316 650 316 650 208 c 0,20,21
 650 106 650 106 582 47 c 128,-1,22
 514 -12 514 -12 392 -12 c 0,23,24
 252 -12 252 -12 158 92 c 128,-1,25
 64 196 64 196 64 382 c 0,26,27
 64 548 64 548 174 658 c 128,-1,28
 284 768 284 768 456 768 c 2,29,-1
 1172 768 l 1,30,-1
 1172 690 l 1,0,-1
568 206 m 0,31,32
 568 262 568 262 524 306 c 0,33,34
 504 326 504 326 478 338 c 128,-1,35
 452 350 452 350 420 350 c 0,36,37
 364 350 364 350 320 306 c 0,38,39
 280 262 280 262 280 206 c 0,40,41
 280 144 280 144 320 102 c 1,42,43
 364 62 364 62 420 62 c 0,44,45
 478 62 478 62 523 105 c 128,-1,46
 568 148 568 148 568 206 c 0,31,32
EndSplineSet
EndChar

StartChar: tm_ee
Encoding: 2959 2959 57
Width: 1208
GlyphClass: 2
Flags: W
LayerCount: 2
Fore
SplineSet
1198 686 m 1,0,-1
 950 686 l 1,1,-1
 950 -8 l 1,2,-1
 232 -312 l 1,3,-1
 196 -234 l 1,4,-1
 854 36 l 1,5,-1
 854 686 l 1,6,-1
 462 686 l 2,7,8
 328 686 328 686 237 595 c 128,-1,9
 146 504 146 504 146 342 c 0,10,11
 146 240 146 240 216 146 c 1,12,-1
 214 214 l 2,13,14
 214 302 214 302 275 359 c 128,-1,15
 336 416 336 416 446 416 c 0,16,17
 534 416 534 416 593 354 c 128,-1,18
 652 292 652 292 652 200 c 0,19,20
 652 98 652 98 587 36 c 128,-1,21
 522 -26 522 -26 406 -26 c 0,22,23
 260 -26 260 -26 162 82 c 128,-1,24
 64 190 64 190 64 352 c 0,25,26
 64 528 64 528 178 648 c 128,-1,27
 292 768 292 768 462 768 c 2,28,-1
 1198 768 l 1,29,-1
 1198 686 l 1,0,-1
570 190 m 0,30,31
 570 250 570 250 533 291 c 128,-1,32
 496 332 496 332 434 332 c 0,33,34
 296 332 296 332 296 190 c 0,35,36
 296 138 296 138 336 96 c 0,37,38
 376 48 376 48 434 48 c 256,39,40
 492 48 492 48 531 91 c 128,-1,41
 570 134 570 134 570 190 c 0,30,31
EndSplineSet
EndChar

StartChar: tm_ai
Encoding: 2960 2960 58
Width: 1238
GlyphClass: 2
Flags: W
LayerCount: 2
Fore
SplineSet
1174 90 m 0,0,1
 1174 -18 1174 -18 1092 -87 c 128,-1,2
 1010 -156 1010 -156 888 -156 c 0,3,4
 800 -156 800 -156 723 -120 c 128,-1,5
 646 -84 646 -84 628 -22 c 1,6,7
 560 -144 560 -144 370 -144 c 0,8,9
 240 -144 240 -144 151 -73 c 128,-1,10
 62 -2 62 -2 62 94 c 0,11,12
 62 266 62 266 218 308 c 1,13,14
 156 318 156 318 110 370 c 0,15,16
 60 432 60 432 60 516 c 0,17,18
 60 640 60 640 147 717 c 128,-1,19
 234 794 234 794 394 794 c 0,20,21
 594 794 594 794 642 658 c 1,22,23
 684 788 684 788 890 788 c 0,24,25
 1012 788 1012 788 1082 718 c 1,26,27
 1154 652 1154 652 1154 534 c 0,28,29
 1154 422 1154 422 1069 341 c 128,-1,30
 984 260 984 260 862 260 c 2,31,-1
 334 260 l 2,32,33
 150 260 150 260 150 106 c 0,34,35
 150 26 150 26 220 -26 c 0,36,37
 282 -72 282 -72 358 -72 c 0,38,39
 442 -72 442 -72 513 -19 c 128,-1,40
 584 34 584 34 584 110 c 2,41,-1
 584 164 l 1,42,-1
 670 164 l 1,43,-1
 670 116 l 2,44,45
 670 34 670 34 737 -20 c 128,-1,46
 804 -74 804 -74 898 -74 c 0,47,48
 982 -74 982 -74 1030 -34 c 1,49,50
 1088 8 1088 8 1088 94 c 0,51,52
 1088 156 1088 156 1042 204 c 1,53,-1
 1108 258 l 1,54,55
 1174 162 1174 162 1174 90 c 0,0,1
1072 536 m 0,56,57
 1072 614 1072 614 1015 666 c 128,-1,58
 958 718 958 718 882 718 c 0,59,60
 792 718 792 718 737 666 c 128,-1,61
 682 614 682 614 682 534 c 2,62,-1
 682 398 l 1,63,-1
 588 398 l 1,64,-1
 588 546 l 2,65,66
 588 636 588 636 530 681 c 128,-1,67
 472 726 472 726 384 726 c 0,68,69
 356 726 356 726 334 722 c 128,-1,70
 312 718 312 718 282 704 c 0,71,72
 230 684 230 684 214 656 c 1,73,-1
 298 672 l 1,74,75
 378 672 378 672 427 623 c 128,-1,76
 476 574 476 574 476 500 c 0,77,78
 476 376 476 376 384 332 c 1,79,-1
 806 332 l 2,80,81
 918 332 918 332 995 390 c 128,-1,82
 1072 448 1072 448 1072 536 c 0,56,57
392 486 m 0,83,84
 392 534 392 534 357 570 c 128,-1,85
 322 606 322 606 272 606 c 0,86,87
 226 606 226 606 189 571 c 128,-1,88
 152 536 152 536 152 486 c 256,89,90
 152 436 152 436 188 402 c 128,-1,91
 224 368 224 368 272 368 c 0,92,93
 322 368 322 368 357 402 c 128,-1,94
 392 436 392 436 392 486 c 0,83,84
EndSplineSet
EndChar

StartChar: tm_o
Encoding: 2962 2962 59
Width: 1406
GlyphClass: 2
Flags: W
LayerCount: 2
Fore
SplineSet
1280 300 m 0,0,1
 1280 182 1280 182 1198 102 c 0,2,3
 1124 32 1124 32 1044 32 c 0,4,5
 948 32 948 32 886 90 c 128,-1,6
 824 148 824 148 824 226 c 0,7,8
 824 242 824 242 824 258 c 1,9,10
 830 274 830 274 832 280 c 1,11,12
 796 246 796 246 796 168 c 0,13,14
 796 62 796 62 886 -2 c 0,15,16
 966 -58 966 -58 1082 -58 c 2,17,-1
 1170 -58 l 1,18,-1
 1170 -144 l 1,19,-1
 1072 -144 l 2,20,21
 964 -144 964 -144 896 -230 c 1,22,-1
 784 -388 l 1,23,24
 704 -474 704 -474 566 -474 c 0,25,26
 466 -474 466 -474 384 -414 c 0,27,28
 294 -348 294 -348 294 -232 c 0,29,30
 294 -172 294 -172 314 -132 c 1,31,-1
 408 -132 l 1,32,33
 384 -192 384 -192 384 -226 c 0,34,35
 384 -300 384 -300 433 -347 c 128,-1,36
 482 -394 482 -394 568 -394 c 0,37,38
 660 -394 660 -394 718 -330 c 1,39,-1
 804 -204 l 2,40,41
 854 -128 854 -128 916 -104 c 1,42,43
 834 -80 834 -80 778 -18 c 0,44,45
 712 52 712 52 712 144 c 0,46,47
 712 330 712 330 890 440 c 1,48,-1
 940 384 l 1,49,50
 888 336 888 336 888 250 c 0,51,52
 888 194 888 194 934 150 c 0,53,54
 980 110 980 110 1042 110 c 0,55,56
 1112 110 1112 110 1158 170 c 0,57,58
 1200 230 1200 230 1200 320 c 0,59,60
 1200 456 1200 456 1078 576 c 0,61,62
 940 708 940 708 718 708 c 0,63,64
 470 708 470 708 332 588 c 0,65,66
 266 530 266 530 237 452 c 128,-1,67
 208 374 208 374 208 266 c 1,68,69
 254 436 254 436 430 436 c 0,70,71
 520 436 520 436 584 375 c 128,-1,72
 648 314 648 314 648 224 c 0,73,74
 648 120 648 120 587 53 c 128,-1,75
 526 -14 526 -14 406 -14 c 0,76,77
 282 -14 282 -14 203 80 c 128,-1,78
 124 174 124 174 124 298 c 0,79,80
 124 516 124 516 270 644 c 0,81,82
 428 778 428 778 722 778 c 0,83,84
 972 778 972 778 1126 645 c 128,-1,85
 1280 512 1280 512 1280 300 c 0,0,1
558 208 m 0,86,87
 558 266 558 266 515 308 c 128,-1,88
 472 350 472 350 410 350 c 0,89,90
 352 350 352 350 308 309 c 128,-1,91
 264 268 264 268 264 208 c 0,92,93
 264 150 264 150 306 102 c 0,94,95
 326 82 326 82 352 70 c 128,-1,96
 378 58 378 58 410 58 c 0,97,98
 468 58 468 58 513 101 c 128,-1,99
 558 144 558 144 558 208 c 0,86,87
EndSplineSet
EndChar

StartChar: tm_oo
Encoding: 2963 2963 60
Width: 1346
GlyphClass: 2
Flags: W
LayerCount: 2
Fore
SplineSet
1284 292 m 0,0,1
 1284 174 1284 174 1211 93 c 128,-1,2
 1138 12 1138 12 1010 12 c 0,3,4
 906 12 906 12 842 74 c 0,5,6
 812 106 812 106 796 146 c 128,-1,7
 780 186 780 186 780 238 c 1,8,9
 750 220 750 220 750 138 c 0,10,11
 750 38 750 38 840 -28 c 1,12,13
 928 -84 928 -84 1050 -84 c 2,14,-1
 1136 -84 l 1,15,-1
 1136 -166 l 1,16,-1
 996 -166 l 2,17,18
 892 -166 892 -166 832 -256 c 1,19,-1
 732 -420 l 1,20,21
 660 -510 660 -510 508 -510 c 0,22,23
 396 -510 396 -510 314 -454 c 0,24,25
 222 -390 222 -390 222 -288 c 0,26,27
 222 -204 222 -204 278 -150 c 1,28,29
 338 -100 338 -100 440 -100 c 0,30,31
 604 -100 604 -100 604 -272 c 0,32,33
 604 -384 604 -384 486 -432 c 1,34,35
 600 -432 600 -432 658 -366 c 1,36,-1
 728 -228 l 2,37,38
 770 -146 770 -146 854 -118 c 1,39,40
 656 -46 656 -46 656 156 c 0,41,42
 656 252 656 252 718 334 c 0,43,44
 772 408 772 408 854 442 c 1,45,-1
 908 388 l 1,46,-1
 870 334 l 2,47,48
 852 308 852 308 846 274 c 1,49,50
 846 230 846 230 855 203 c 128,-1,51
 864 176 864 176 892 144 c 0,52,53
 948 88 948 88 1026 88 c 0,54,55
 1096 88 1096 88 1150 144 c 1,56,57
 1200 204 1200 204 1200 302 c 0,58,59
 1200 450 1200 450 1060 576 c 1,60,61
 904 710 904 710 672 710 c 0,62,63
 434 710 434 710 288 600 c 128,-1,64
 142 490 142 490 142 298 c 1,65,-1
 144 254 l 1,66,67
 196 418 196 418 380 418 c 0,68,69
 474 418 474 418 533 357 c 128,-1,70
 592 296 592 296 592 208 c 0,71,72
 592 112 592 112 524 47 c 128,-1,73
 456 -18 456 -18 348 -18 c 0,74,75
 228 -18 228 -18 146 67 c 128,-1,76
 64 152 64 152 64 284 c 0,77,78
 64 512 64 512 228 649 c 128,-1,79
 392 786 392 786 678 786 c 0,80,81
 950 786 950 786 1117 647 c 128,-1,82
 1284 508 1284 508 1284 292 c 0,0,1
508 194 m 0,83,84
 508 254 508 254 468 294 c 128,-1,85
 428 334 428 334 364 334 c 0,86,87
 298 334 298 334 256 294 c 0,88,89
 214 258 214 258 214 194 c 0,90,91
 214 132 214 132 257 91 c 128,-1,92
 300 50 300 50 364 50 c 256,93,94
 428 50 428 50 468 89 c 128,-1,95
 508 128 508 128 508 194 c 0,83,84
514 -276 m 0,96,97
 514 -190 514 -190 424 -190 c 0,98,99
 384 -190 384 -190 356 -215 c 128,-1,100
 328 -240 328 -240 328 -280 c 0,101,102
 328 -318 328 -318 355 -342 c 128,-1,103
 382 -366 382 -366 422 -366 c 0,104,105
 514 -366 514 -366 514 -276 c 0,96,97
EndSplineSet
EndChar

StartChar: tm_au
Encoding: 2964 2964 61
Width: 2715
GlyphClass: 2
Flags: W
LayerCount: 2
Fore
SplineSet
2712 682 m 1,0,-1
 2502 682 l 1,1,-1
 2502 0 l 1,2,-1
 2406 0 l 1,3,-1
 2406 682 l 1,4,-1
 2122 682 l 1,5,-1
 2122 0 l 1,6,-1
 2026 0 l 1,7,-1
 2026 498 l 2,8,9
 2026 590 2026 590 1964 650 c 0,10,11
 1892 718 1892 718 1762 718 c 0,12,13
 1448 718 1448 718 1448 386 c 0,14,15
 1448 280 1448 280 1472 252 c 1,16,17
 1472 342 1472 342 1533 402 c 128,-1,18
 1594 462 1594 462 1696 462 c 0,19,20
 1790 462 1790 462 1855 397 c 128,-1,21
 1920 332 1920 332 1920 226 c 0,22,23
 1920 126 1920 126 1852 55 c 128,-1,24
 1784 -16 1784 -16 1684 -16 c 0,25,26
 1538 -16 1538 -16 1451 93 c 128,-1,27
 1364 202 1364 202 1364 386 c 0,28,29
 1364 790 1364 790 1758 790 c 0,30,31
 1968 790 1968 790 2048 666 c 1,32,-1
 2048 768 l 1,33,-1
 2712 768 l 1,34,-1
 2712 682 l 1,0,-1
1840 222 m 256,35,36
 1840 288 1840 288 1794 334 c 128,-1,37
 1748 380 1748 380 1684 380 c 0,38,39
 1618 380 1618 380 1574 334 c 0,40,41
 1554 312 1554 312 1542 284 c 128,-1,42
 1530 256 1530 256 1530 222 c 0,43,44
 1530 156 1530 156 1573 110 c 128,-1,45
 1616 64 1616 64 1684 64 c 0,46,47
 1748 64 1748 64 1794 110 c 128,-1,48
 1840 156 1840 156 1840 222 c 256,35,36
1280 300 m 0,49,50
 1280 182 1280 182 1198 102 c 0,51,52
 1124 32 1124 32 1044 32 c 0,53,54
 948 32 948 32 886 90 c 128,-1,55
 824 148 824 148 824 226 c 0,56,57
 824 242 824 242 824 258 c 1,58,59
 830 274 830 274 832 280 c 1,60,61
 796 246 796 246 796 168 c 0,62,63
 796 62 796 62 886 -2 c 0,64,65
 966 -58 966 -58 1082 -58 c 2,66,-1
 1170 -58 l 1,67,-1
 1170 -144 l 1,68,-1
 1072 -144 l 2,69,70
 964 -144 964 -144 896 -230 c 1,71,-1
 784 -388 l 1,72,73
 704 -474 704 -474 566 -474 c 0,74,75
 466 -474 466 -474 384 -414 c 0,76,77
 294 -348 294 -348 294 -232 c 0,78,79
 294 -172 294 -172 314 -132 c 1,80,-1
 408 -132 l 1,81,82
 384 -192 384 -192 384 -226 c 0,83,84
 384 -300 384 -300 433 -347 c 128,-1,85
 482 -394 482 -394 568 -394 c 0,86,87
 660 -394 660 -394 718 -330 c 1,88,-1
 804 -204 l 2,89,90
 854 -128 854 -128 916 -104 c 1,91,92
 834 -80 834 -80 778 -18 c 0,93,94
 712 52 712 52 712 144 c 0,95,96
 712 330 712 330 890 440 c 1,97,-1
 940 384 l 1,98,99
 888 336 888 336 888 250 c 0,100,101
 888 194 888 194 934 150 c 0,102,103
 980 110 980 110 1042 110 c 0,104,105
 1112 110 1112 110 1158 170 c 0,106,107
 1200 230 1200 230 1200 320 c 0,108,109
 1200 456 1200 456 1078 576 c 0,110,111
 940 708 940 708 718 708 c 0,112,113
 470 708 470 708 332 588 c 0,114,115
 266 530 266 530 237 452 c 128,-1,116
 208 374 208 374 208 266 c 1,117,118
 254 436 254 436 430 436 c 0,119,120
 520 436 520 436 584 375 c 128,-1,121
 648 314 648 314 648 224 c 0,122,123
 648 120 648 120 587 53 c 128,-1,124
 526 -14 526 -14 406 -14 c 0,125,126
 282 -14 282 -14 203 80 c 128,-1,127
 124 174 124 174 124 298 c 0,128,129
 124 516 124 516 270 644 c 0,130,131
 428 778 428 778 722 778 c 0,132,133
 972 778 972 778 1126 645 c 128,-1,134
 1280 512 1280 512 1280 300 c 0,49,50
558 208 m 0,135,136
 558 266 558 266 515 308 c 128,-1,137
 472 350 472 350 410 350 c 0,138,139
 352 350 352 350 308 309 c 128,-1,140
 264 268 264 268 264 208 c 0,141,142
 264 150 264 150 306 102 c 0,143,144
 326 82 326 82 352 70 c 128,-1,145
 378 58 378 58 410 58 c 0,146,147
 468 58 468 58 513 101 c 128,-1,148
 558 144 558 144 558 208 c 0,135,136
EndSplineSet
EndChar

StartChar: tm_ka
Encoding: 2965 2965 62
Width: 1030
GlyphClass: 2
Flags: W
LayerCount: 2
Fore
SplineSet
992 248 m 0,0,1
 992 138 992 138 925 57 c 128,-1,2
 858 -24 858 -24 748 -24 c 0,3,4
 698 -24 698 -24 650 -4 c 1,5,-1
 668 70 l 1,6,7
 676 68 676 68 707 61 c 128,-1,8
 738 54 738 54 746 54 c 0,9,10
 812 54 812 54 856 110 c 128,-1,11
 900 166 900 166 900 240 c 0,12,13
 900 402 900 402 740 402 c 2,14,-1
 614 402 l 1,15,-1
 614 218 l 2,16,17
 614 114 614 114 532 44 c 128,-1,18
 450 -26 450 -26 334 -26 c 0,19,20
 224 -26 224 -26 130 52 c 128,-1,21
 36 130 36 130 36 244 c 0,22,23
 36 436 36 436 200 472 c 1,24,-1
 200 768 l 1,25,-1
 900 768 l 1,26,-1
 900 690 l 1,27,-1
 614 690 l 1,28,-1
 614 482 l 1,29,-1
 782 482 l 2,30,31
 870 482 870 482 936 410 c 1,32,33
 992 342 992 342 992 248 c 0,0,1
512 482 m 1,34,-1
 512 690 l 1,35,-1
 290 690 l 1,36,-1
 290 482 l 1,37,-1
 512 482 l 1,34,-1
512 200 m 2,38,-1
 512 402 l 1,39,-1
 278 402 l 2,40,41
 130 402 130 402 130 242 c 0,42,43
 130 166 130 166 190 108 c 0,44,45
 250 54 250 54 336 54 c 0,46,47
 406 54 406 54 459 95 c 128,-1,48
 512 136 512 136 512 200 c 2,38,-1
EndSplineSet
EndChar

StartChar: tm_nga
Encoding: 2969 2969 63
Width: 1412
GlyphClass: 2
Flags: W
LayerCount: 2
Fore
SplineSet
1300 0 m 1,0,-1
 714 0 l 1,1,-1
 714 82 l 1,2,3
 764 82 764 82 796 91 c 128,-1,4
 828 100 828 100 860 128 c 0,5,6
 922 184 922 184 922 278 c 0,7,8
 922 418 922 418 762 418 c 0,9,10
 700 418 700 418 651 381 c 128,-1,11
 602 344 602 344 602 286 c 2,12,-1
 602 0 l 1,13,-1
 506 0 l 1,14,-1
 506 696 l 1,15,-1
 212 696 l 1,16,-1
 212 0 l 1,17,-1
 110 0 l 1,18,-1
 110 768 l 1,19,-1
 922 768 l 1,20,-1
 922 696 l 1,21,-1
 602 696 l 1,22,-1
 602 426 l 1,23,24
 632 508 632 508 764 508 c 0,25,26
 872 508 872 508 942 447 c 128,-1,27
 1012 386 1012 386 1012 270 c 0,28,29
 1012 152 1012 152 922 80 c 1,30,-1
 1200 80 l 1,31,-1
 1200 768 l 1,32,-1
 1300 768 l 1,33,-1
 1300 0 l 1,0,-1
EndSplineSet
EndChar

StartChar: tm_ca
Encoding: 2970 2970 64
Width: 914
GlyphClass: 2
Flags: W
LayerCount: 2
Fore
SplineSet
904 400 m 1,0,-1
 606 400 l 1,1,-1
 606 222 l 2,2,3
 606 120 606 120 526 50 c 128,-1,4
 446 -20 446 -20 338 -20 c 0,5,6
 220 -20 220 -20 128 54 c 128,-1,7
 36 128 36 128 36 252 c 0,8,9
 36 432 36 432 192 474 c 1,10,-1
 192 768 l 1,11,-1
 840 768 l 1,12,-1
 840 692 l 1,13,-1
 606 692 l 1,14,-1
 606 482 l 1,15,-1
 904 482 l 1,16,-1
 904 400 l 1,0,-1
506 482 m 1,17,-1
 506 692 l 1,18,-1
 282 692 l 1,19,-1
 282 482 l 1,20,-1
 506 482 l 1,17,-1
506 210 m 2,21,-1
 506 400 l 1,22,-1
 282 400 l 2,23,24
 212 400 212 400 171 357 c 128,-1,25
 130 314 130 314 130 252 c 0,26,27
 130 168 130 168 191 114 c 128,-1,28
 252 60 252 60 338 60 c 0,29,30
 408 60 408 60 457 100 c 128,-1,31
 506 140 506 140 506 210 c 2,21,-1
EndSplineSet
EndChar

StartChar: tm_ja
Encoding: 2972 2972 65
Width: 1230
GlyphClass: 2
Flags: W
LayerCount: 2
Fore
SplineSet
1194 74 m 0,0,1
 1194 -18 1194 -18 1126 -88 c 0,2,3
 1048 -170 1048 -170 922 -170 c 0,4,5
 848 -170 848 -170 734 -132 c 1,6,-1
 734 -30 l 1,7,8
 862 -94 862 -94 922 -94 c 0,9,10
 996 -94 996 -94 1052 -44 c 128,-1,11
 1108 6 1108 6 1108 58 c 0,12,13
 1108 238 1108 238 910 238 c 0,14,15
 784 238 784 238 728 170 c 0,16,17
 712 148 712 148 666 24 c 0,18,19
 634 -70 634 -70 564 -110 c 0,20,21
 470 -160 470 -160 382 -160 c 0,22,23
 258 -160 258 -160 170 -98 c 0,24,25
 70 -26 70 -26 70 92 c 0,26,27
 70 170 70 170 114 228 c 0,28,29
 150 276 150 276 206 290 c 1,30,31
 154 308 154 308 114 356 c 0,32,33
 64 416 64 416 64 486 c 0,34,35
 64 630 64 630 157 705 c 128,-1,36
 250 780 250 780 412 780 c 0,37,38
 594 780 594 780 648 644 c 1,39,40
 666 696 666 696 737 737 c 128,-1,41
 808 778 808 778 900 778 c 0,42,43
 1024 778 1024 778 1096 698 c 128,-1,44
 1168 618 1168 618 1168 508 c 0,45,46
 1168 432 1168 432 1122 368 c 0,47,48
 1088 316 1088 316 1028 286 c 1,49,50
 1086 280 1086 280 1138 222 c 0,51,52
 1194 154 1194 154 1194 74 c 0,0,1
1082 528 m 0,53,54
 1082 594 1082 594 1026 649 c 128,-1,55
 970 704 970 704 894 704 c 0,56,57
 800 704 800 704 743 651 c 128,-1,58
 686 598 686 598 686 514 c 2,59,-1
 686 382 l 1,60,-1
 594 382 l 1,61,-1
 594 528 l 2,62,63
 594 710 594 710 390 710 c 0,64,65
 270 710 270 710 222 644 c 1,66,67
 256 656 256 656 302 656 c 0,68,69
 370 656 370 656 416 618 c 0,70,71
 478 568 478 568 478 478 c 0,72,73
 478 374 478 374 390 316 c 1,74,-1
 818 316 l 2,75,76
 930 316 930 316 1006 373 c 128,-1,77
 1082 430 1082 430 1082 528 c 0,53,54
394 466 m 256,78,79
 394 512 394 512 357 548 c 128,-1,80
 320 584 320 584 272 584 c 0,81,82
 226 584 226 584 191 549 c 128,-1,83
 156 514 156 514 156 466 c 0,84,85
 156 420 156 420 192 388 c 128,-1,86
 228 356 228 356 272 356 c 0,87,88
 322 356 322 356 358 388 c 128,-1,89
 394 420 394 420 394 466 c 256,78,79
682 246 m 1,90,-1
 318 246 l 2,91,92
 244 246 244 246 198 200 c 0,93,94
 152 158 152 158 152 94 c 0,95,96
 152 22 152 22 218 -32 c 128,-1,97
 284 -86 284 -86 378 -86 c 0,98,99
 488 -86 488 -86 544 -18 c 0,100,101
 568 12 568 12 608 122 c 0,102,103
 638 214 638 214 682 246 c 1,90,-1
EndSplineSet
EndChar

StartChar: tm_nya
Encoding: 2974 2974 66
Width: 1650
GlyphClass: 2
Flags: W
LayerCount: 2
Fore
SplineSet
1586 156 m 0,0,1
 1586 -70 1586 -70 1368 -204 c 0,2,3
 1172 -320 1172 -320 908 -320 c 0,4,5
 716 -320 716 -320 570 -282 c 128,-1,6
 424 -244 424 -244 306 -160 c 0,7,8
 64 10 64 10 64 312 c 0,9,10
 64 422 64 422 110 531 c 128,-1,11
 156 640 156 640 216 682 c 1,12,-1
 282 622 l 1,13,14
 234 594 234 594 191 503 c 128,-1,15
 148 412 148 412 148 320 c 0,16,17
 148 46 148 46 352 -102 c 128,-1,18
 556 -250 556 -250 914 -250 c 0,19,20
 1150 -250 1150 -250 1318 -150 c 0,21,22
 1510 -36 1510 -36 1510 164 c 0,23,24
 1510 262 1510 262 1458 321 c 128,-1,25
 1406 380 1406 380 1312 380 c 0,26,27
 1236 380 1236 380 1187 340 c 128,-1,28
 1138 300 1138 300 1138 226 c 2,29,-1
 1138 0 l 1,30,-1
 1054 0 l 1,31,-1
 1054 694 l 1,32,-1
 770 694 l 2,33,34
 586 694 586 694 480 612 c 128,-1,35
 374 530 374 530 374 362 c 0,36,37
 374 306 374 306 392 245 c 128,-1,38
 410 184 410 184 432 172 c 1,39,40
 418 214 418 214 418 252 c 0,41,42
 418 324 418 324 472 382 c 0,43,44
 536 446 536 446 652 446 c 0,45,46
 756 446 756 446 822 382 c 128,-1,47
 888 318 888 318 888 218 c 0,48,49
 888 114 888 114 820 49 c 128,-1,50
 752 -16 752 -16 636 -16 c 0,51,52
 500 -16 500 -16 400 74 c 0,53,54
 294 170 294 170 294 336 c 0,55,56
 294 552 294 552 430 664 c 0,57,58
 558 768 558 768 778 768 c 2,59,-1
 1426 768 l 1,60,-1
 1426 694 l 1,61,-1
 1138 694 l 1,62,-1
 1138 406 l 1,63,64
 1174 460 1174 460 1306 460 c 0,65,66
 1430 460 1430 460 1508 383 c 128,-1,67
 1586 306 1586 306 1586 156 c 0,0,1
812 218 m 256,68,69
 812 292 812 292 765 332 c 128,-1,70
 718 372 718 372 648 372 c 0,71,72
 588 372 588 372 538 325 c 128,-1,73
 488 278 488 278 488 212 c 0,74,75
 488 154 488 154 536 104 c 128,-1,76
 584 54 584 54 648 54 c 0,77,78
 714 54 714 54 763 99 c 128,-1,79
 812 144 812 144 812 218 c 256,68,69
EndSplineSet
EndChar

StartChar: tm_tta
Encoding: 2975 2975 67
Width: 1066
GlyphClass: 2
Flags: W
LayerCount: 2
Fore
SplineSet
1054 0 m 1,0,-1
 110 0 l 1,1,-1
 110 768 l 1,2,-1
 202 768 l 1,3,-1
 202 74 l 1,4,-1
 1054 74 l 1,5,-1
 1054 0 l 1,0,-1
EndSplineSet
EndChar

StartChar: tm_nna
Encoding: 2979 2979 68
Width: 1996
GlyphClass: 2
Flags: W
LayerCount: 2
Fore
SplineSet
1984 690 m 1,0,-1
 1750 690 l 1,1,-1
 1750 0 l 1,2,-1
 1660 0 l 1,3,-1
 1660 690 l 1,4,-1
 1504 690 l 2,5,6
 1432 690 1432 690 1402 672 c 1,7,8
 1504 536 1504 536 1504 328 c 0,9,10
 1504 188 1504 188 1443 85 c 128,-1,11
 1382 -18 1382 -18 1296 -18 c 0,12,13
 1104 -18 1104 -18 1104 300 c 0,14,15
 1104 546 1104 546 1238 680 c 1,16,17
 1204 720 1204 720 1098 720 c 0,18,19
 950 720 950 720 902 672 c 1,20,21
 960 624 960 624 999 523 c 128,-1,22
 1038 422 1038 422 1038 308 c 0,23,24
 1038 182 1038 182 988 90 c 0,25,26
 932 -16 932 -16 832 -16 c 0,27,28
 742 -16 742 -16 686 78 c 1,29,30
 642 162 642 162 642 274 c 0,31,32
 642 398 642 398 680 510 c 0,33,34
 712 614 712 614 770 674 c 1,35,36
 702 714 702 714 508 714 c 0,37,38
 346 714 346 714 234 600 c 0,39,40
 136 496 136 496 136 348 c 0,41,42
 136 292 136 292 154 234 c 1,43,44
 154 320 154 320 218 379 c 128,-1,45
 282 438 282 438 368 438 c 0,46,47
 468 438 468 438 526 374 c 128,-1,48
 584 310 584 310 584 210 c 0,49,50
 584 114 584 114 517 48 c 128,-1,51
 450 -18 450 -18 352 -18 c 0,52,53
 236 -18 236 -18 150 83 c 128,-1,54
 64 184 64 184 64 358 c 0,55,56
 64 534 64 534 182 652 c 0,57,58
 314 784 314 784 540 784 c 0,59,60
 624 784 624 784 700 770 c 128,-1,61
 776 756 776 756 840 726 c 1,62,63
 942 786 942 786 1076 786 c 256,64,65
 1210 786 1210 786 1322 730 c 1,66,67
 1366 768 1366 768 1502 768 c 2,68,-1
 1984 768 l 1,69,-1
 1984 690 l 1,0,-1
1428 328 m 0,70,71
 1428 516 1428 516 1324 644 c 1,72,73
 1274 618 1274 618 1230 514 c 128,-1,74
 1186 410 1186 410 1186 290 c 0,75,76
 1186 200 1186 200 1212 140 c 0,77,78
 1242 62 1242 62 1298 62 c 0,79,80
 1356 62 1356 62 1396 152 c 0,81,82
 1412 192 1412 192 1420 233 c 128,-1,83
 1428 274 1428 274 1428 328 c 0,70,71
960 324 m 0,84,85
 960 422 960 422 923 518 c 128,-1,86
 886 614 886 614 844 632 c 1,87,88
 798 620 798 620 758 507 c 128,-1,89
 718 394 718 394 718 292 c 0,90,91
 718 208 718 208 750 128 c 128,-1,92
 782 48 782 48 836 48 c 0,93,94
 894 48 894 48 930 142 c 0,95,96
 960 220 960 220 960 324 c 0,84,85
512 210 m 0,97,98
 512 276 512 276 472 321 c 128,-1,99
 432 366 432 366 366 366 c 256,100,101
 300 366 300 366 257 320 c 128,-1,102
 214 274 214 274 214 208 c 0,103,104
 214 144 214 144 256 97 c 128,-1,105
 298 50 298 50 366 50 c 0,106,107
 430 50 430 50 471 96 c 128,-1,108
 512 142 512 142 512 210 c 0,97,98
EndSplineSet
EndChar

StartChar: tm_ta
Encoding: 2980 2980 69
Width: 1004
GlyphClass: 2
Flags: W
LayerCount: 2
Fore
SplineSet
968 182 m 0,0,1
 968 16 968 16 844 -94 c 0,2,3
 732 -194 732 -194 594 -194 c 2,4,-1
 222 -194 l 2,5,6
 174 -194 174 -194 134 -236 c 1,7,8
 100 -280 100 -280 100 -336 c 2,9,-1
 100 -428 l 1,10,-1
 4 -428 l 1,11,-1
 4 -334 l 2,12,13
 4 -236 4 -236 62 -176 c 1,14,15
 124 -118 124 -118 228 -118 c 2,16,-1
 588 -118 l 2,17,18
 700 -118 700 -118 789 -34 c 128,-1,19
 878 50 878 50 878 166 c 0,20,21
 878 266 878 266 835 331 c 128,-1,22
 792 396 792 396 712 396 c 2,23,-1
 606 396 l 1,24,-1
 606 208 l 2,25,26
 606 110 606 110 520 44 c 128,-1,27
 434 -22 434 -22 326 -22 c 0,28,29
 210 -22 210 -22 123 57 c 128,-1,30
 36 136 36 136 36 248 c 0,31,32
 36 338 36 338 89 403 c 128,-1,33
 142 468 142 468 228 486 c 1,34,-1
 228 768 l 1,35,-1
 880 768 l 1,36,-1
 880 686 l 1,37,-1
 606 686 l 1,38,-1
 606 482 l 1,39,-1
 716 482 l 2,40,41
 834 482 834 482 906 390 c 0,42,43
 968 306 968 306 968 182 c 0,0,1
514 482 m 1,44,-1
 514 686 l 1,45,-1
 322 686 l 1,46,-1
 322 482 l 1,47,-1
 514 482 l 1,44,-1
514 214 m 2,48,-1
 514 396 l 1,49,-1
 298 396 l 2,50,51
 134 396 134 396 134 244 c 0,52,53
 134 168 134 168 194 110 c 0,54,55
 254 56 254 56 334 56 c 0,56,57
 410 56 410 56 462 99 c 128,-1,58
 514 142 514 142 514 214 c 2,48,-1
EndSplineSet
EndChar

StartChar: tm_na
Encoding: 2984 2984 70
Width: 1014
GlyphClass: 2
Flags: W
LayerCount: 2
Fore
SplineSet
978 194 m 0,0,1
 978 36 978 36 875 -76 c 128,-1,2
 772 -188 772 -188 622 -188 c 2,3,-1
 252 -188 l 2,4,5
 206 -188 206 -188 172 -224 c 0,6,7
 142 -260 142 -260 142 -320 c 0,8,9
 142 -370 142 -370 186 -422 c 1,10,-1
 72 -422 l 1,11,12
 44 -378 44 -378 44 -324 c 0,13,14
 44 -236 44 -236 98 -174 c 128,-1,15
 152 -112 152 -112 252 -112 c 2,16,-1
 622 -112 l 2,17,18
 732 -112 732 -112 808 -21 c 128,-1,19
 884 70 884 70 884 188 c 0,20,21
 884 284 884 284 839 353 c 128,-1,22
 794 422 794 422 732 422 c 0,23,24
 674 422 674 422 629 390 c 128,-1,25
 584 358 584 358 584 304 c 2,26,-1
 584 0 l 1,27,-1
 482 0 l 1,28,-1
 482 690 l 1,29,-1
 212 690 l 1,30,-1
 212 0 l 1,31,-1
 110 0 l 1,32,-1
 110 768 l 1,33,-1
 870 768 l 1,34,-1
 870 690 l 1,35,-1
 584 690 l 1,36,-1
 584 446 l 1,37,38
 620 518 620 518 728 518 c 0,39,40
 832 518 832 518 905 418 c 128,-1,41
 978 318 978 318 978 194 c 0,0,1
EndSplineSet
EndChar

StartChar: tm_nnna
Encoding: 2985 2985 71
Width: 1476
GlyphClass: 2
Flags: W
LayerCount: 2
Fore
SplineSet
1464 690 m 1,0,-1
 1314 690 l 1,1,-1
 1314 0 l 1,2,-1
 1216 0 l 1,3,-1
 1216 690 l 1,4,-1
 1028 690 l 2,5,6
 904 690 904 690 876 644 c 1,7,8
 936 626 936 626 978 522 c 128,-1,9
 1020 418 1020 418 1020 304 c 0,10,11
 1020 176 1020 176 974 84 c 0,12,13
 922 -26 922 -26 832 -26 c 0,14,15
 744 -26 744 -26 690 75 c 128,-1,16
 636 176 636 176 636 312 c 0,17,18
 636 524 636 524 752 658 c 1,19,20
 682 702 682 702 536 702 c 0,21,22
 368 702 368 702 253 587 c 128,-1,23
 138 472 138 472 138 316 c 0,24,25
 138 270 138 270 150 218 c 1,26,27
 150 310 150 310 210 371 c 128,-1,28
 270 432 270 432 368 432 c 0,29,30
 456 432 456 432 520 366 c 0,31,32
 580 300 580 300 580 202 c 0,33,34
 580 106 580 106 511 37 c 128,-1,35
 442 -32 442 -32 346 -32 c 0,36,37
 252 -32 252 -32 162 64 c 0,38,39
 64 172 64 172 64 320 c 0,40,41
 64 512 64 512 203 645 c 128,-1,42
 342 778 342 778 536 778 c 0,43,44
 706 778 706 778 822 710 c 1,45,46
 876 768 876 768 994 768 c 2,47,-1
 1464 768 l 1,48,-1
 1464 690 l 1,0,-1
942 316 m 0,49,50
 942 408 942 408 911 490 c 128,-1,51
 880 572 880 572 828 610 c 1,52,53
 718 530 718 530 718 300 c 0,54,55
 718 210 718 210 750 129 c 128,-1,56
 782 48 782 48 838 48 c 0,57,58
 880 48 880 48 911 135 c 128,-1,59
 942 222 942 222 942 316 c 0,49,50
506 196 m 0,60,61
 506 266 506 266 466 312 c 1,62,63
 430 360 430 360 366 360 c 256,64,65
 302 360 302 360 258 313 c 128,-1,66
 214 266 214 266 214 200 c 0,67,68
 214 132 214 132 257 86 c 128,-1,69
 300 40 300 40 366 40 c 0,70,71
 424 40 424 40 465 84 c 128,-1,72
 506 128 506 128 506 196 c 0,60,61
EndSplineSet
EndChar

StartChar: tm_pa
Encoding: 2986 2986 72
Width: 1014
GlyphClass: 2
Flags: W
LayerCount: 2
Fore
SplineSet
904 0 m 1,0,-1
 110 0 l 1,1,-1
 110 768 l 1,2,-1
 200 768 l 1,3,-1
 200 80 l 1,4,-1
 808 80 l 1,5,-1
 808 768 l 1,6,-1
 904 768 l 1,7,-1
 904 0 l 1,0,-1
EndSplineSet
EndChar

StartChar: tm_ma
Encoding: 2990 2990 73
Width: 1246
GlyphClass: 2
Flags: W
LayerCount: 2
Fore
SplineSet
1182 414 m 0,0,1
 1182 214 1182 214 1097 107 c 128,-1,2
 1012 0 1012 0 870 0 c 2,3,-1
 110 0 l 1,4,-1
 110 768 l 1,5,-1
 200 768 l 1,6,-1
 200 78 l 1,7,-1
 568 78 l 1,8,-1
 568 538 l 2,9,10
 568 648 568 648 647 718 c 128,-1,11
 726 788 726 788 862 788 c 0,12,13
 1004 788 1004 788 1098 674 c 0,14,15
 1182 566 1182 566 1182 414 c 0,0,1
1094 418 m 0,16,17
 1094 546 1094 546 1033 631 c 128,-1,18
 972 716 972 716 862 716 c 0,19,20
 664 716 664 716 664 524 c 2,21,-1
 664 78 l 1,22,-1
 840 78 l 2,23,24
 1094 78 1094 78 1094 418 c 0,16,17
EndSplineSet
EndChar

StartChar: tm_ya
Encoding: 2991 2991 74
Width: 1314
GlyphClass: 2
Flags: W
LayerCount: 2
Fore
SplineSet
1204 0 m 1,0,-1
 456 0 l 1,1,-1
 456 80 l 1,2,-1
 396 20 l 1,3,4
 348 -18 348 -18 290 -18 c 0,5,6
 214 -18 214 -18 160 44 c 0,7,8
 110 106 110 106 110 188 c 2,9,-1
 110 768 l 1,10,-1
 212 768 l 1,11,-1
 212 202 l 2,12,13
 212 80 212 80 310 80 c 0,14,15
 366 80 366 80 416 148 c 1,16,17
 456 210 456 210 456 262 c 2,18,-1
 456 768 l 1,19,-1
 556 768 l 1,20,-1
 556 74 l 1,21,-1
 1110 74 l 1,22,-1
 1110 768 l 1,23,-1
 1204 768 l 1,24,-1
 1204 0 l 1,0,-1
EndSplineSet
EndChar

StartChar: tm_ra
Encoding: 2992 2992 75
Width: 870
GlyphClass: 2
Flags: W
LayerCount: 2
Fore
SplineSet
860 690 m 1,0,-1
 610 690 l 1,1,-1
 610 -4 l 1,2,-1
 122 -238 l 1,3,-1
 78 -154 l 1,4,-1
 516 58 l 1,5,-1
 516 690 l 1,6,-1
 200 690 l 1,7,-1
 200 0 l 1,8,-1
 110 0 l 1,9,-1
 110 768 l 1,10,-1
 860 768 l 1,11,-1
 860 690 l 1,0,-1
EndSplineSet
EndChar

StartChar: tm_rra
Encoding: 2993 2993 76
Width: 1058
GlyphClass: 2
Flags: W
LayerCount: 2
Fore
SplineSet
996 350 m 0,0,1
 996 80 996 80 869 -67 c 128,-1,2
 742 -214 742 -214 522 -214 c 2,3,-1
 268 -214 l 2,4,5
 214 -214 214 -214 174 -256 c 0,6,7
 138 -298 138 -298 138 -366 c 2,8,-1
 138 -454 l 1,9,-1
 56 -454 l 1,10,-1
 56 -318 l 2,11,12
 56 -246 56 -246 111 -193 c 128,-1,13
 166 -140 166 -140 260 -140 c 2,14,-1
 508 -140 l 2,15,16
 912 -140 912 -140 912 354 c 0,17,18
 912 696 912 696 684 696 c 0,19,20
 624 696 624 696 577 663 c 128,-1,21
 530 630 530 630 530 574 c 2,22,-1
 530 -20 l 1,23,-1
 434 -20 l 1,24,-1
 434 568 l 2,25,26
 434 614 434 614 398 655 c 128,-1,27
 362 696 362 696 314 696 c 0,28,29
 264 696 264 696 236 657 c 128,-1,30
 208 618 208 618 208 568 c 2,31,-1
 208 -20 l 1,32,-1
 110 -20 l 1,33,-1
 110 576 l 2,34,35
 110 660 110 660 164 714 c 128,-1,36
 218 768 218 768 318 768 c 0,37,38
 438 768 438 768 498 682 c 1,39,40
 528 780 528 780 688 780 c 0,41,42
 830 780 830 780 913 664 c 128,-1,43
 996 548 996 548 996 350 c 0,0,1
EndSplineSet
EndChar

StartChar: tm_la
Encoding: 2994 2994 77
Width: 1294
GlyphClass: 2
Flags: W
LayerCount: 2
Fore
SplineSet
1230 396 m 0,0,1
 1230 222 1230 222 1154 114 c 0,2,3
 1070 -4 1070 -4 926 -4 c 0,4,5
 830 -4 830 -4 761 54 c 128,-1,6
 692 112 692 112 692 194 c 2,7,-1
 692 558 l 2,8,9
 692 652 692 652 626 701 c 128,-1,10
 560 750 560 750 466 750 c 0,11,12
 320 750 320 750 233 647 c 128,-1,13
 146 544 146 544 146 354 c 0,14,15
 146 222 146 222 192 174 c 1,16,-1
 184 234 l 1,17,18
 184 322 184 322 246 382 c 1,19,20
 306 432 306 432 392 432 c 0,21,22
 480 432 480 432 538 369 c 128,-1,23
 596 306 596 306 596 214 c 0,24,25
 596 124 596 124 531 61 c 128,-1,26
 466 -2 466 -2 380 -2 c 0,27,28
 238 -2 238 -2 151 99 c 128,-1,29
 64 200 64 200 64 362 c 0,30,31
 64 560 64 560 156 682 c 0,32,33
 262 822 262 822 470 822 c 0,34,35
 782 822 782 822 782 542 c 2,36,-1
 782 214 l 2,37,38
 782 76 782 76 930 76 c 0,39,40
 1038 76 1038 76 1096 176 c 0,41,42
 1146 266 1146 266 1146 404 c 0,43,44
 1146 536 1146 536 1090 630 c 0,45,46
 1026 734 1026 734 910 734 c 0,47,48
 872 734 872 734 822 720 c 1,49,-1
 822 808 l 1,50,51
 852 814 852 814 912 814 c 0,52,53
 1068 814 1068 814 1156 678 c 0,54,55
 1230 560 1230 560 1230 396 c 0,0,1
522 218 m 0,56,57
 522 274 522 274 484 314 c 0,58,59
 466 334 466 334 443 346 c 128,-1,60
 420 358 420 358 392 358 c 0,61,62
 336 358 336 358 294 318 c 1,63,64
 254 274 254 274 254 218 c 0,65,66
 254 160 254 160 294 118 c 0,67,68
 334 80 334 80 392 80 c 0,69,70
 444 80 444 80 483 122 c 128,-1,71
 522 164 522 164 522 218 c 0,56,57
EndSplineSet
EndChar

StartChar: tm_lla
Encoding: 2995 2995 78
Width: 1422
GlyphClass: 2
Flags: W
LayerCount: 2
Fore
SplineSet
1412 682 m 1,0,-1
 1202 682 l 1,1,-1
 1202 0 l 1,2,-1
 1106 0 l 1,3,-1
 1106 682 l 1,4,-1
 822 682 l 1,5,-1
 822 0 l 1,6,-1
 726 0 l 1,7,-1
 726 498 l 2,8,9
 726 590 726 590 664 650 c 0,10,11
 592 718 592 718 462 718 c 0,12,13
 148 718 148 718 148 386 c 0,14,15
 148 280 148 280 172 252 c 1,16,17
 172 342 172 342 233 402 c 128,-1,18
 294 462 294 462 396 462 c 0,19,20
 490 462 490 462 555 397 c 128,-1,21
 620 332 620 332 620 226 c 0,22,23
 620 126 620 126 552 55 c 128,-1,24
 484 -16 484 -16 384 -16 c 0,25,26
 238 -16 238 -16 151 93 c 128,-1,27
 64 202 64 202 64 386 c 0,28,29
 64 790 64 790 458 790 c 0,30,31
 668 790 668 790 748 666 c 1,32,-1
 748 768 l 1,33,-1
 1412 768 l 1,34,-1
 1412 682 l 1,0,-1
540 222 m 256,35,36
 540 288 540 288 494 334 c 128,-1,37
 448 380 448 380 384 380 c 0,38,39
 318 380 318 380 274 334 c 0,40,41
 254 312 254 312 242 284 c 128,-1,42
 230 256 230 256 230 222 c 0,43,44
 230 156 230 156 273 110 c 128,-1,45
 316 64 316 64 384 64 c 0,46,47
 448 64 448 64 494 110 c 128,-1,48
 540 156 540 156 540 222 c 256,35,36
EndSplineSet
EndChar

StartChar: tm_llla
Encoding: 2996 2996 79
Width: 1246
GlyphClass: 2
Flags: W
LayerCount: 2
Fore
SplineSet
1184 380 m 0,0,1
 1184 202 1184 202 1086 101 c 128,-1,2
 988 0 988 0 832 0 c 2,3,-1
 668 0 l 1,4,5
 668 -50 668 -50 725 -98 c 128,-1,6
 782 -146 782 -146 870 -146 c 2,7,-1
 1072 -146 l 1,8,-1
 1072 -226 l 1,9,-1
 914 -226 l 2,10,11
 812 -226 812 -226 740 -306 c 1,12,-1
 620 -458 l 1,13,14
 534 -538 534 -538 402 -538 c 0,15,16
 280 -538 280 -538 194 -458 c 0,17,18
 148 -414 148 -414 129 -356 c 128,-1,19
 110 -298 110 -298 110 -214 c 1,20,-1
 200 -214 l 1,21,22
 198 -226 198 -226 198 -248 c 0,23,24
 198 -320 198 -320 232 -376 c 0,25,26
 284 -454 284 -454 402 -454 c 0,27,28
 488 -454 488 -454 552 -396 c 0,29,30
 566 -384 566 -384 590 -354 c 128,-1,31
 614 -324 614 -324 646 -282 c 0,32,33
 694 -220 694 -220 732 -208 c 1,34,35
 668 -188 668 -188 619 -127 c 128,-1,36
 570 -66 570 -66 576 0 c 1,37,-1
 110 0 l 1,38,-1
 110 768 l 1,39,-1
 200 768 l 1,40,-1
 200 84 l 1,41,-1
 570 84 l 1,42,-1
 570 574 l 2,43,44
 570 672 570 672 649 737 c 128,-1,45
 728 802 728 802 848 802 c 0,46,47
 984 802 984 802 1080 700 c 0,48,49
 1184 584 1184 584 1184 380 c 0,0,1
1096 388 m 0,50,51
 1096 720 1096 720 848 720 c 0,52,53
 776 720 776 720 721 679 c 128,-1,54
 666 638 666 638 666 570 c 2,55,-1
 666 84 l 1,56,-1
 852 84 l 2,57,58
 948 84 948 84 1016 154 c 0,59,60
 1096 238 1096 238 1096 388 c 0,50,51
EndSplineSet
EndChar

StartChar: tm_va
Encoding: 2997 2997 80
Width: 1392
GlyphClass: 2
Flags: W
LayerCount: 2
Fore
SplineSet
1282 0 m 1,0,-1
 694 0 l 1,1,-1
 694 72 l 1,2,3
 772 82 772 82 831 171 c 128,-1,4
 890 260 890 260 890 396 c 0,5,6
 890 536 890 536 784 631 c 128,-1,7
 678 726 678 726 530 726 c 0,8,9
 334 726 334 726 234 620 c 0,10,11
 142 522 142 522 142 358 c 0,12,13
 142 226 142 226 206 162 c 1,14,15
 194 204 194 204 194 230 c 0,16,17
 194 324 194 324 258 387 c 128,-1,18
 322 450 322 450 426 450 c 0,19,20
 524 450 524 450 589 383 c 128,-1,21
 654 316 654 316 654 220 c 256,22,23
 654 124 654 124 583 56 c 128,-1,24
 512 -12 512 -12 418 -12 c 0,25,26
 276 -12 276 -12 170 103 c 128,-1,27
 64 218 64 218 64 380 c 0,28,29
 64 576 64 576 202 694 c 0,30,31
 330 804 330 804 528 804 c 0,32,33
 730 804 730 804 850 686 c 128,-1,34
 970 568 970 568 970 388 c 0,35,36
 970 198 970 198 856 80 c 1,37,-1
 1190 80 l 1,38,-1
 1190 768 l 1,39,-1
 1282 768 l 1,40,-1
 1282 0 l 1,0,-1
582 216 m 0,41,42
 582 280 582 280 539 325 c 128,-1,43
 496 370 496 370 424 370 c 0,44,45
 360 370 360 370 315 329 c 128,-1,46
 270 288 270 288 270 216 c 0,47,48
 270 152 270 152 314 107 c 128,-1,49
 358 62 358 62 424 62 c 0,50,51
 488 62 488 62 535 108 c 128,-1,52
 582 154 582 154 582 216 c 0,41,42
EndSplineSet
EndChar

StartChar: tm_ssa
Encoding: 2999 2999 81
Width: 1710
GlyphClass: 2
Flags: W
LayerCount: 2
Fore
SplineSet
1698 0 m 1,0,-1
 1254 0 l 1,1,2
 1248 -22 1248 -22 1244 -43 c 128,-1,3
 1240 -64 1240 -64 1240 -88 c 0,4,5
 1240 -246 1240 -246 1392 -330 c 1,6,-1
 1336 -404 l 1,7,8
 1258 -362 1258 -362 1204 -272 c 128,-1,9
 1150 -182 1150 -182 1150 -84 c 0,10,11
 1150 -42 1150 -42 1162 0 c 1,12,-1
 696 0 l 1,13,-1
 696 72 l 1,14,15
 756 78 756 78 808 142 c 0,16,17
 878 224 878 224 878 366 c 0,18,19
 878 522 878 522 779 620 c 128,-1,20
 680 718 680 718 524 718 c 0,21,22
 354 718 354 718 244 622 c 128,-1,23
 134 526 134 526 134 368 c 0,24,25
 134 312 134 312 156 245 c 128,-1,26
 178 178 178 178 208 154 c 1,27,-1
 196 220 l 1,28,29
 196 314 196 314 263 377 c 128,-1,30
 330 440 330 440 424 440 c 0,31,32
 520 440 520 440 583 379 c 128,-1,33
 646 318 646 318 646 206 c 0,34,35
 646 114 646 114 579 51 c 128,-1,36
 512 -12 512 -12 418 -12 c 0,37,38
 282 -12 282 -12 180 88 c 0,39,40
 64 198 64 198 64 376 c 0,41,42
 64 566 64 566 200 684 c 0,43,44
 264 738 264 738 343 766 c 128,-1,45
 422 794 422 794 520 794 c 0,46,47
 724 794 724 794 846 670 c 0,48,49
 958 554 958 554 958 370 c 0,50,51
 958 264 958 264 930 206 c 0,52,53
 910 156 910 156 848 80 c 1,54,-1
 1188 80 l 1,55,56
 1200 108 1200 108 1237 154 c 128,-1,57
 1274 200 1274 200 1300 212 c 1,58,59
 1212 224 1212 224 1136 280 c 0,60,61
 1028 358 1028 358 1028 494 c 0,62,63
 1028 624 1028 624 1110 704 c 128,-1,64
 1192 784 1192 784 1318 784 c 0,65,66
 1430 784 1430 784 1511 700 c 128,-1,67
 1592 616 1592 616 1592 494 c 0,68,69
 1592 402 1592 402 1528 326 c 1,70,71
 1496 280 1496 280 1398 200 c 0,72,73
 1314 130 1314 130 1282 80 c 1,74,-1
 1698 80 l 1,75,-1
 1698 0 l 1,0,-1
1504 502 m 0,76,77
 1504 584 1504 584 1455 640 c 128,-1,78
 1406 696 1406 696 1316 696 c 0,79,80
 1266 696 1266 696 1230 684 c 128,-1,81
 1194 672 1194 672 1164 644 c 0,82,83
 1110 592 1110 592 1110 514 c 0,84,85
 1110 320 1110 320 1340 278 c 1,86,87
 1504 332 1504 332 1504 502 c 0,76,77
576 212 m 0,88,89
 576 276 576 276 530 320 c 1,90,91
 488 366 488 366 422 366 c 0,92,93
 358 366 358 366 313 321 c 128,-1,94
 268 276 268 276 268 212 c 256,95,96
 268 148 268 148 312 104 c 0,97,98
 334 82 334 82 361 71 c 128,-1,99
 388 60 388 60 422 60 c 0,100,101
 486 60 486 60 531 103 c 128,-1,102
 576 146 576 146 576 212 c 0,88,89
EndSplineSet
EndChar

StartChar: tm_sa
Encoding: 3000 3000 82
Width: 1726
GlyphClass: 2
Flags: W
LayerCount: 2
Fore
SplineSet
1660 372 m 0,0,1
 1660 198 1660 198 1574 86 c 128,-1,2
 1488 -26 1488 -26 1338 -26 c 0,3,4
 1240 -26 1240 -26 1176 37 c 128,-1,5
 1112 100 1112 100 1112 190 c 2,6,-1
 1112 584 l 2,7,8
 1112 700 1112 700 980 700 c 0,9,10
 824 700 824 700 824 544 c 2,11,-1
 824 0 l 1,12,-1
 732 0 l 1,13,-1
 732 500 l 2,14,15
 732 714 732 714 478 714 c 0,16,17
 328 714 328 714 237 613 c 128,-1,18
 146 512 146 512 146 366 c 0,19,20
 146 228 146 228 210 158 c 1,21,-1
 204 236 l 1,22,23
 204 326 204 326 262 384 c 1,24,25
 324 440 324 440 436 440 c 0,26,27
 526 440 526 440 587 378 c 128,-1,28
 648 316 648 316 648 208 c 0,29,30
 648 110 648 110 578 46 c 1,31,32
 512 -20 512 -20 406 -20 c 0,33,34
 260 -20 260 -20 162 94 c 128,-1,35
 64 208 64 208 64 362 c 0,36,37
 64 560 64 560 186 676 c 0,38,39
 300 784 300 784 480 784 c 0,40,41
 606 784 606 784 663 758 c 128,-1,42
 720 732 720 732 772 660 c 1,43,44
 788 786 788 786 976 786 c 0,45,46
 1200 786 1200 786 1200 584 c 2,47,-1
 1200 206 l 2,48,49
 1200 146 1200 146 1242 98 c 1,50,51
 1286 54 1286 54 1344 54 c 0,52,53
 1452 54 1452 54 1520 158 c 0,54,55
 1580 252 1580 252 1580 378 c 0,56,57
 1580 510 1580 510 1518 596 c 128,-1,58
 1456 682 1456 682 1352 682 c 0,59,60
 1330 682 1330 682 1315 682 c 128,-1,61
 1300 682 1300 682 1270 674 c 1,62,-1
 1270 768 l 1,63,-1
 1368 768 l 2,64,65
 1478 768 1478 768 1564 670 c 0,66,67
 1660 556 1660 556 1660 372 c 0,0,1
576 214 m 0,68,69
 576 274 576 274 530 320 c 0,70,71
 488 366 488 366 426 366 c 0,72,73
 366 366 366 366 322 322 c 128,-1,74
 278 278 278 278 278 214 c 0,75,76
 278 156 278 156 320 108 c 0,77,78
 362 66 362 66 426 66 c 0,79,80
 486 66 486 66 531 109 c 128,-1,81
 576 152 576 152 576 214 c 0,68,69
EndSplineSet
EndChar

StartChar: tm_ha
Encoding: 3001 3001 83
Width: 2008
GlyphClass: 2
Flags: W
LayerCount: 2
Fore
SplineSet
1946 358 m 0,0,1
 1946 -188 1946 -188 1468 -188 c 2,2,-1
 252 -188 l 2,3,4
 194 -188 194 -188 160 -236 c 0,5,6
 154 -246 154 -246 144 -270 c 128,-1,7
 134 -294 134 -294 134 -324 c 2,8,-1
 134 -420 l 1,9,-1
 52 -420 l 1,10,-1
 52 -342 l 2,11,12
 52 -248 52 -248 103 -179 c 128,-1,13
 154 -110 154 -110 238 -110 c 2,14,-1
 1460 -110 l 2,15,16
 1864 -110 1864 -110 1864 342 c 0,17,18
 1864 712 1864 712 1656 712 c 0,19,20
 1586 712 1586 712 1535 675 c 128,-1,21
 1484 638 1484 638 1484 570 c 2,22,-1
 1484 0 l 1,23,-1
 1396 0 l 1,24,-1
 1396 560 l 2,25,26
 1396 624 1396 624 1365 664 c 128,-1,27
 1334 704 1334 704 1278 704 c 0,28,29
 1224 704 1224 704 1194 661 c 128,-1,30
 1164 618 1164 618 1164 560 c 2,31,-1
 1164 0 l 1,32,-1
 688 0 l 1,33,-1
 688 64 l 1,34,35
 754 80 754 80 804 140 c 0,36,37
 868 220 868 220 868 350 c 0,38,39
 868 522 868 522 760 618 c 0,40,41
 662 700 662 700 514 700 c 0,42,43
 354 700 354 700 247 608 c 128,-1,44
 140 516 140 516 140 356 c 0,45,46
 140 206 140 206 214 144 c 1,47,48
 196 192 196 192 196 218 c 0,49,50
 196 304 196 304 264 369 c 128,-1,51
 332 434 332 434 422 434 c 256,52,53
 512 434 512 434 580 368 c 128,-1,54
 648 302 648 302 648 208 c 0,55,56
 648 126 648 126 588 60 c 0,57,58
 522 -16 522 -16 406 -16 c 0,59,60
 276 -16 276 -16 170 96 c 128,-1,61
 64 208 64 208 64 362 c 0,62,63
 64 554 64 554 212 676 c 0,64,65
 340 780 340 780 514 780 c 0,66,67
 706 780 706 780 827 663 c 128,-1,68
 948 546 948 546 948 362 c 0,69,70
 948 188 948 188 832 72 c 1,71,-1
 1076 72 l 1,72,-1
 1076 592 l 2,73,74
 1076 674 1076 674 1136 728 c 1,75,76
 1198 778 1198 778 1284 778 c 0,77,78
 1406 778 1406 778 1452 688 c 1,79,80
 1504 784 1504 784 1652 784 c 0,81,82
 1946 784 1946 784 1946 358 c 0,0,1
570 210 m 0,83,84
 570 274 570 274 526 318 c 128,-1,85
 482 362 482 362 418 362 c 0,86,87
 358 362 358 362 313 315 c 128,-1,88
 268 268 268 268 268 208 c 256,89,90
 268 148 268 148 312 103 c 128,-1,91
 356 58 356 58 418 58 c 0,92,93
 482 58 482 58 526 104 c 128,-1,94
 570 150 570 150 570 210 c 0,83,84
EndSplineSet
EndChar

StartChar: tm_aakaar
Encoding: 3006 3006 84
Width: 886
GlyphClass: 2
Flags: W
LayerCount: 2
Fore
SplineSet
876 692 m 1,0,-1
 618 692 l 1,1,-1
 618 0 l 1,2,-1
 520 0 l 1,3,-1
 520 692 l 1,4,-1
 206 692 l 1,5,-1
 206 0 l 1,6,-1
 110 0 l 1,7,-1
 110 768 l 1,8,-1
 876 768 l 1,9,-1
 876 692 l 1,0,-1
EndSplineSet
EndChar

StartChar: tm_ikaar
Encoding: 3007 3007 85
Width: 290
GlyphClass: 2
Flags: W
LayerCount: 2
Fore
SplineSet
-310 768 m 1,0,1
 -356 824 -356 824 -356 922 c 0,2,3
 -356 1022 -356 1022 -266 1098 c 0,4,5
 -182 1164 -182 1164 -66 1164 c 0,6,7
 -4 1164 -4 1164 42 1148 c 128,-1,8
 88 1132 88 1132 128 1094 c 0,9,10
 206 1018 206 1018 206 890 c 2,11,-1
 206 0 l 1,12,-1
 108 0 l 1,13,-1
 108 890 l 2,14,15
 108 978 108 978 59 1029 c 128,-1,16
 10 1080 10 1080 -66 1080 c 0,17,18
 -260 1080 -260 1080 -260 898 c 0,19,20
 -260 850 -260 850 -238 812 c 128,-1,21
 -216 774 -216 774 -174 774 c 1,22,-1
 -168 780 l 1,23,24
 -220 776 -220 776 -244 776 c 0,25,26
 -276 772 -276 772 -310 768 c 1,0,1
EndSplineSet
EndChar

StartChar: tm_iikaar
Encoding: 3008 3008 86
Width: 0
GlyphClass: 4
Flags: W
LayerCount: 2
Fore
SplineSet
-632 822 m 1,0,1
 -702 874 -702 874 -702 1010 c 0,2,3
 -702 1160 -702 1160 -604 1244 c 0,4,5
 -512 1320 -512 1320 -374 1320 c 0,6,7
 -274 1320 -274 1320 -194 1254 c 128,-1,8
 -114 1188 -114 1188 -114 1090 c 0,9,10
 -114 1012 -114 1012 -170 955 c 128,-1,11
 -226 898 -226 898 -310 898 c 0,12,13
 -398 898 -398 898 -447 947 c 128,-1,14
 -496 996 -496 996 -496 1078 c 0,15,16
 -496 1172 -496 1172 -418 1230 c 1,17,18
 -608 1200 -608 1200 -608 1014 c 0,19,20
 -608 958 -608 958 -582 906 c 128,-1,21
 -556 854 -556 854 -512 822 c 1,22,-1
 -632 822 l 1,0,1
-192 1080 m 0,23,24
 -192 1126 -192 1126 -224 1158 c 128,-1,25
 -256 1190 -256 1190 -300 1190 c 0,26,27
 -346 1190 -346 1190 -379 1158 c 128,-1,28
 -412 1126 -412 1126 -412 1080 c 0,29,30
 -412 1038 -412 1038 -380 1004 c 1,31,32
 -344 972 -344 972 -300 972 c 256,33,34
 -256 972 -256 972 -224 1004 c 128,-1,35
 -192 1036 -192 1036 -192 1080 c 0,23,24
EndSplineSet
EndChar

StartChar: tm_ukaar
Encoding: 3009 3009 87
Width: 1000
GlyphClass: 4
Flags: W
LayerCount: 2
Fore
SplineSet
673 556 m 0,0,1
 673 616 673 616 629 662 c 0,2,3
 609 682 609 682 583 694 c 128,-1,4
 557 706 557 706 525 706 c 0,5,6
 465 706 465 706 421 662 c 128,-1,7
 377 618 377 618 377 556 c 0,8,9
 377 496 377 496 420 453 c 128,-1,10
 463 410 463 410 525 410 c 0,11,12
 583 410 583 410 629 452 c 0,13,14
 649 472 649 472 661 498 c 128,-1,15
 673 524 673 524 673 556 c 0,0,1
-101 692 m 0,16,17
 -123 692 -123 692 -138 692 c 128,-1,18
 -153 692 -153 692 -183 684 c 1,19,-1
 -183 778 l 1,20,-1
 533 778 l 2,21,22
 581 778 581 778 617 764 c 128,-1,23
 653 750 653 750 691 714 c 0,24,25
 757 654 757 654 757 562 c 256,26,27
 757 470 757 470 690 403 c 128,-1,28
 623 336 623 336 525 336 c 0,29,30
 437 336 437 336 365 402 c 1,31,32
 297 470 297 470 297 562 c 0,33,34
 297 618 297 618 301 643 c 128,-1,35
 305 668 305 668 327 700 c 1,36,37
 205 696 205 696 75 694 c 128,-1,38
 -55 692 -55 692 -101 692 c 0,16,17
EndSplineSet
EndChar

StartChar: tm_uukaar
Encoding: 3010 3010 88
Width: 1276
GlyphClass: 4
Flags: W
LayerCount: 2
Fore
SplineSet
1008 472 m 2,0,1
 1008 284 1008 284 920 176 c 0,2,3
 792 12 792 12 472 12 c 0,4,5
 384 12 384 12 263 75 c 128,-1,6
 142 138 142 138 68 252 c 1,7,-1
 108 288 l 1,8,9
 168 198 168 198 262 146 c 0,10,11
 290 132 290 132 311 123 c 128,-1,12
 332 114 332 114 360 108 c 128,-1,13
 388 102 388 102 415 98 c 128,-1,14
 442 94 442 94 472 94 c 0,15,16
 734 94 734 94 832 210 c 1,17,18
 904 288 904 288 904 452 c 2,19,-1
 904 652 l 2,20,21
 904 790 904 790 815 901 c 128,-1,22
 726 1012 726 1012 600 1012 c 0,23,24
 480 1012 480 1012 406 945 c 128,-1,25
 332 878 332 878 332 750 c 1,26,-1
 660 756 l 1,27,-1
 662 374 l 1,28,-1
 232 374 l 1,29,-1
 232 684 l 1,30,-1
 -134 684 l 1,31,-1
 -134 750 l 1,32,-1
 232 750 l 1,33,34
 232 910 232 910 332 1002 c 0,35,36
 380 1046 380 1046 454 1070 c 128,-1,37
 528 1094 528 1094 618 1094 c 0,38,39
 784 1094 784 1094 904 968 c 1,40,41
 1008 852 1008 852 1008 692 c 2,42,-1
 1008 472 l 2,0,1
556 440 m 1,43,-1
 556 684 l 1,44,-1
 332 684 l 1,45,-1
 332 440 l 1,46,-1
 556 440 l 1,43,-1
EndSplineSet
EndChar

StartChar: tm_ekaar
Encoding: 3014 3014 89
Width: 1154
GlyphClass: 2
Flags: W
LayerCount: 2
Fore
SplineSet
1042 0 m 1,0,-1
 946 0 l 1,1,-1
 946 614 l 2,2,3
 946 754 946 754 849 850 c 128,-1,4
 752 946 752 946 598 946 c 0,5,6
 376 946 376 946 262 830 c 128,-1,7
 148 714 148 714 148 504 c 0,8,9
 148 238 148 238 304 138 c 1,10,11
 266 198 266 198 266 270 c 0,12,13
 266 390 266 390 358 462 c 0,14,15
 442 524 442 524 564 524 c 0,16,17
 676 524 676 524 752 447 c 128,-1,18
 828 370 828 370 828 246 c 256,19,20
 828 122 828 122 742 46 c 128,-1,21
 656 -30 656 -30 524 -30 c 0,22,23
 338 -30 338 -30 201 114 c 128,-1,24
 64 258 64 258 64 482 c 0,25,26
 64 724 64 724 205 872 c 128,-1,27
 346 1020 346 1020 602 1020 c 0,28,29
 804 1020 804 1020 928 884 c 0,30,31
 1042 758 1042 758 1042 568 c 2,32,-1
 1042 0 l 1,0,-1
742 252 m 256,33,34
 742 332 742 332 688 390 c 128,-1,35
 634 448 634 448 546 448 c 0,36,37
 466 448 466 448 408 390 c 128,-1,38
 350 332 350 332 350 252 c 256,39,40
 350 172 350 172 409 115 c 128,-1,41
 468 58 468 58 546 58 c 0,42,43
 626 58 626 58 684 115 c 128,-1,44
 742 172 742 172 742 252 c 256,33,34
EndSplineSet
EndChar

StartChar: tm_eekaar
Encoding: 3015 3015 90
Width: 1066
GlyphClass: 2
Flags: W
LayerCount: 2
Fore
SplineSet
1000 242 m 0,0,1
 1000 106 1000 106 862 22 c 0,2,3
 742 -50 742 -50 574 -50 c 0,4,5
 356 -50 356 -50 218 86 c 0,6,7
 60 244 60 244 60 522 c 0,8,9
 60 768 60 768 234 910 c 0,10,11
 392 1034 392 1034 634 1034 c 0,12,13
 790 1034 790 1034 890 964 c 128,-1,14
 990 894 990 894 990 764 c 0,15,16
 990 674 990 674 927 612 c 128,-1,17
 864 550 864 550 766 550 c 0,18,19
 670 550 670 550 604 602 c 128,-1,20
 538 654 538 654 538 738 c 0,21,22
 538 892 538 892 652 952 c 1,23,-1
 600 954 l 1,24,25
 434 954 434 954 316 874 c 0,26,27
 150 760 150 760 150 518 c 0,28,29
 150 272 150 272 286 142 c 0,30,31
 402 32 402 32 580 32 c 0,32,33
 616 32 616 32 636 34 c 128,-1,34
 656 36 656 36 696 46 c 1,35,36
 538 88 538 88 538 258 c 0,37,38
 538 360 538 360 610 420 c 1,39,40
 678 470 678 470 778 470 c 256,41,42
 878 470 878 470 944 402 c 0,43,44
 1000 340 1000 340 1000 242 c 0,0,1
906 764 m 256,45,46
 906 826 906 826 866 866 c 1,47,48
 830 908 830 908 766 908 c 0,49,50
 704 908 704 908 670 868 c 1,51,52
 634 832 634 832 634 768 c 0,53,54
 634 710 634 710 670 664 c 0,55,56
 706 624 706 624 766 624 c 256,57,58
 826 624 826 624 866 663 c 128,-1,59
 906 702 906 702 906 764 c 256,45,46
908 250 m 0,60,61
 908 310 908 310 871 353 c 128,-1,62
 834 396 834 396 772 396 c 0,63,64
 714 396 714 396 672 354 c 1,65,66
 636 312 636 312 636 250 c 0,67,68
 636 190 636 190 672 146 c 128,-1,69
 708 102 708 102 772 102 c 0,70,71
 830 102 830 102 869 145 c 128,-1,72
 908 188 908 188 908 250 c 0,60,61
EndSplineSet
EndChar

StartChar: tm_aikaar
Encoding: 3016 3016 91
Width: 1530
GlyphClass: 2
Flags: W
LayerCount: 2
Fore
SplineSet
1466 392 m 0,0,1
 1466 204 1466 204 1351 93 c 128,-1,2
 1236 -18 1236 -18 1064 -18 c 1,3,-1
 1064 64 l 1,4,5
 1140 64 1140 64 1196 83 c 128,-1,6
 1252 102 1252 102 1296 148 c 0,7,8
 1382 244 1382 244 1382 422 c 0,9,10
 1382 554 1382 554 1300 637 c 128,-1,11
 1218 720 1218 720 1080 720 c 0,12,13
 982 720 982 720 934 704 c 1,14,15
 998 664 998 664 1046 548 c 0,16,17
 1088 442 1088 442 1088 348 c 0,18,19
 1088 196 1088 196 1021 91 c 128,-1,20
 954 -14 954 -14 852 -14 c 0,21,22
 764 -14 764 -14 700 68 c 0,23,24
 626 166 626 166 626 336 c 0,25,26
 626 564 626 564 768 704 c 1,27,28
 708 724 708 724 578 724 c 0,29,30
 372 724 372 724 255 620 c 128,-1,31
 138 516 138 516 138 350 c 0,32,33
 138 306 138 306 146 268 c 1,34,35
 170 448 170 448 370 448 c 0,36,37
 468 448 468 448 526 381 c 128,-1,38
 584 314 584 314 584 222 c 0,39,40
 584 124 584 124 521 57 c 128,-1,41
 458 -10 458 -10 360 -10 c 0,42,43
 246 -10 246 -10 160 84 c 0,44,45
 64 186 64 186 64 352 c 0,46,47
 64 520 64 520 174 644 c 0,48,49
 304 790 304 790 540 790 c 0,50,51
 740 790 740 790 848 746 c 1,52,53
 924 790 924 790 1100 790 c 0,54,55
 1258 790 1258 790 1362 680 c 128,-1,56
 1466 570 1466 570 1466 392 c 0,0,1
1008 314 m 0,57,58
 1008 596 1008 596 862 674 c 1,59,60
 798 648 798 648 753 556 c 128,-1,61
 708 464 708 464 708 358 c 0,62,63
 708 56 708 56 862 56 c 0,64,65
 924 56 924 56 966 135 c 128,-1,66
 1008 214 1008 214 1008 314 c 0,57,58
512 214 m 256,67,68
 512 280 512 280 468 324 c 128,-1,69
 424 368 424 368 358 368 c 256,70,71
 292 368 292 368 248 324 c 128,-1,72
 204 280 204 280 204 214 c 256,73,74
 204 148 204 148 248 104 c 128,-1,75
 292 60 292 60 358 60 c 256,76,77
 424 60 424 60 468 104 c 128,-1,78
 512 148 512 148 512 214 c 256,67,68
EndSplineSet
EndChar

StartChar: tm_halant
Encoding: 3021 3021 95
Width: 0
GlyphClass: 4
Flags: W
LayerCount: 2
Fore
SplineSet
-544 1094 m 0,0,1
 -544 1056 -544 1056 -573 1027 c 128,-1,2
 -602 998 -602 998 -642 998 c 256,3,4
 -682 998 -682 998 -712 1026 c 1,5,6
 -740 1058 -740 1058 -740 1094 c 0,7,8
 -740 1134 -740 1134 -711 1163 c 128,-1,9
 -682 1192 -682 1192 -642 1192 c 0,10,11
 -604 1192 -604 1192 -574 1163 c 128,-1,12
 -544 1134 -544 1134 -544 1094 c 0,0,1
EndSplineSet
EndChar

StartChar: tm_two
Encoding: 3048 3048 98
Width: 1425
GlyphClass: 2
Flags: W
LayerCount: 2
Fore
SplineSet
1244 70 m 1,0,-1
 1226 0 l 1,1,-1
 586 0 l 2,2,3
 429 0 429 0 429 106 c 0,4,5
 429 153 429 153 478 181.5 c 128,-1,6
 527 210 527 210 586 210 c 2,7,-1
 779 210 l 2,8,9
 867 210 867 210 928 271.5 c 128,-1,10
 989 333 989 333 989 420 c 0,11,12
 989 500 989 500 945 560.5 c 128,-1,13
 901 621 901 621 831 621 c 0,14,15
 793 621 793 621 744 595 c 1,16,17
 814 555 814 555 814 437 c 0,18,19
 814 382 814 382 772.5 344.5 c 128,-1,20
 731 307 731 307 675 307 c 0,21,22
 618 307 618 307 580 351 c 128,-1,23
 542 395 542 395 542 455 c 0,24,25
 542 565 542 565 646.5 632.5 c 128,-1,26
 751 700 751 700 884 700 c 0,27,28
 987 700 987 700 1058 629 c 128,-1,29
 1129 558 1129 558 1129 455 c 0,30,31
 1129 321 1129 321 1025.5 230.5 c 128,-1,32
 922 140 922 140 779 140 c 2,33,-1
 595 140 l 2,34,35
 551 140 551 140 551 106 c 0,36,37
 551 70 551 70 604 70 c 2,38,-1
 1244 70 l 1,0,-1
675 560 m 1,39,40
 621 516 621 516 621 473 c 0,41,42
 621 386 621 386 666 386 c 0,43,44
 709 386 709 386 709 473 c 0,45,46
 709 518 709 518 675 560 c 1,39,40
EndSplineSet
EndChar

StartChar: tm_three
Encoding: 3049 3049 99
Width: 1424
GlyphClass: 2
Flags: W
LayerCount: 2
Fore
SplineSet
1270 70 m 1,0,-1
 1252 0 l 1,1,-1
 640 0 l 1,2,-1
 657 70 l 1,3,-1
 780 70 l 2,4,5
 874 70 874 70 941 130.5 c 128,-1,6
 1008 191 1008 191 1008 280 c 0,7,8
 1008 317 1008 317 982.5 342.5 c 128,-1,9
 957 368 957 368 920 368 c 0,10,11
 890 368 890 368 865 341 c 128,-1,12
 840 314 840 314 833 280 c 2,13,-1
 815 193 l 1,14,-1
 675 193 l 1,15,-1
 764 630 l 1,16,-1
 571 630 l 1,17,-1
 444 0 l 1,18,-1
 378 0 l 1,19,-1
 517 700 l 1,20,-1
 1095 700 l 1,21,-1
 1077 630 l 1,22,-1
 902 630 l 1,23,-1
 859 403 l 1,24,25
 918 455 918 455 990 455 c 0,26,27
 1057 455 1057 455 1102.5 403.5 c 128,-1,28
 1148 352 1148 352 1148 280 c 0,29,30
 1148 209 1148 209 1090 151 c 128,-1,31
 1032 93 1032 93 947 70 c 1,32,-1
 1270 70 l 1,0,-1
EndSplineSet
EndChar

StartChar: tm_four
Encoding: 3050 3050 100
Width: 1427
GlyphClass: 2
Flags: W
LayerCount: 2
Fore
SplineSet
915 316 m 1,0,-1
 644 316 l 2,1,2
 601 316 601 316 570.5 291 c 128,-1,3
 540 266 540 266 540 228 c 0,4,5
 540 158 540 158 609.5 114 c 128,-1,6
 679 70 679 70 766 70 c 0,7,8
 811 70 811 70 844 99.5 c 128,-1,9
 877 129 877 129 887 175 c 2,10,-1
 915 316 l 1,0,-1
979 630 m 1,11,-1
 784 630 l 1,12,-1
 735 386 l 1,13,-1
 930 386 l 1,14,-1
 979 630 l 1,11,-1
1042 245 m 2,15,16
 1017 125 1017 125 940 62.5 c 128,-1,17
 863 0 863 0 766 0 c 0,18,19
 651 0 651 0 559.5 64 c 128,-1,20
 468 128 468 128 468 228 c 0,21,22
 468 294 468 294 520.5 340 c 128,-1,23
 573 386 573 386 644 386 c 2,24,-1
 669 386 l 1,25,-1
 731 700 l 1,26,-1
 1344 700 l 1,27,-1
 1329 630 l 1,28,-1
 1118 630 l 1,29,-1
 1068 386 l 1,30,-1
 1232 386 l 1,31,-1
 1248 464 l 1,32,-1
 1309 464 l 1,33,-1
 1279 316 l 1,34,-1
 1055 316 l 1,35,-1
 1042 245 l 2,15,16
EndSplineSet
EndChar

StartChar: tm_five
Encoding: 3051 3051 101
Width: 1424
GlyphClass: 2
Flags: W
LayerCount: 2
Fore
SplineSet
1412 517 m 1,0,-1
 1359 526 l 1,1,2
 1369 563 1369 563 1369 598 c 0,3,4
 1369 723 1369 723 1253.5 825.5 c 128,-1,5
 1138 928 1138 928 965 928 c 0,6,7
 728 928 728 928 575.5 716 c 128,-1,8
 423 504 423 504 423 228 c 0,9,10
 423 -43 423 -43 515 -179.5 c 128,-1,11
 607 -316 607 -316 790 -316 c 0,12,13
 979 -316 979 -316 1103.5 -163.5 c 128,-1,14
 1228 -11 1228 -11 1228 193 c 0,15,16
 1228 257 1228 257 1200 304.5 c 128,-1,17
 1172 352 1172 352 1126 352 c 0,18,19
 1099 352 1099 352 1072.5 336.5 c 128,-1,20
 1046 321 1046 321 1039 298 c 2,21,-1
 980 0 l 1,22,-1
 840 0 l 1,23,-1
 965 630 l 1,24,-1
 759 630 l 1,25,-1
 634 0 l 1,26,-1
 566 0 l 1,27,-1
 706 700 l 1,28,-1
 1237 700 l 1,29,-1
 1219 630 l 1,30,-1
 1105 630 l 1,31,-1
 1057 386 l 1,32,33
 1101 437 1101 437 1171 437 c 0,34,35
 1261 437 1261 437 1314.5 368.5 c 128,-1,36
 1368 300 1368 300 1368 193 c 0,37,38
 1368 -47 1368 -47 1202.5 -216 c 128,-1,39
 1037 -385 1037 -385 799 -385 c 0,40,41
 589 -385 589 -385 471.5 -223 c 128,-1,42
 354 -61 354 -61 354 193 c 0,43,44
 354 513 354 513 519 764 c 128,-1,45
 684 1015 684 1015 948 1015 c 0,46,47
 1152 1015 1152 1015 1288.5 889.5 c 128,-1,48
 1425 764 1425 764 1425 613 c 0,49,50
 1425 566 1425 566 1412 517 c 1,0,-1
EndSplineSet
EndChar

StartChar: tm_six
Encoding: 3052 3052 102
Width: 1424
GlyphClass: 2
Flags: W
LayerCount: 2
Fore
SplineSet
784 316 m 1,0,-1
 513 316 l 2,1,2
 469 316 469 316 438 291 c 128,-1,3
 407 266 407 266 407 228 c 0,4,5
 407 158 407 158 477 114 c 128,-1,6
 547 70 547 70 635 70 c 0,7,8
 680 70 680 70 713 99.5 c 128,-1,9
 746 129 746 129 756 175 c 2,10,-1
 784 316 l 1,0,-1
846 630 m 1,11,-1
 653 630 l 1,12,-1
 603 386 l 1,13,-1
 798 386 l 1,14,-1
 846 630 l 1,11,-1
910 245 m 2,15,16
 884 125 884 125 808 62.5 c 128,-1,17
 732 0 732 0 635 0 c 0,18,19
 518 0 518 0 428 64 c 128,-1,20
 338 128 338 128 338 228 c 0,21,22
 338 294 338 294 389.5 340 c 128,-1,23
 441 386 441 386 513 386 c 2,24,-1
 537 386 l 1,25,-1
 600 700 l 1,26,-1
 1229 700 l 1,27,-1
 1213 630 l 1,28,-1
 988 630 l 1,29,-1
 938 386 l 1,30,-1
 1422 386 l 1,31,-1
 1410 316 l 1,32,-1
 1353 316 l 1,33,-1
 1291 0 l 1,34,-1
 1151 0 l 1,35,-1
 1213 316 l 1,36,-1
 1116 316 l 1,37,-1
 1055 0 l 1,38,-1
 967 0 l 1,39,-1
 1028 316 l 1,40,-1
 924 316 l 1,41,-1
 910 245 l 2,15,16
EndSplineSet
EndChar

StartChar: tm_seven
Encoding: 3053 3053 103
Width: 1425
GlyphClass: 2
Flags: W
LayerCount: 2
Fore
SplineSet
643 88 m 1,0,1
 706 88 706 88 753 128 c 128,-1,2
 800 168 800 168 800 228 c 0,3,4
 800 269 800 269 781 301 c 128,-1,5
 762 333 762 333 729 333 c 0,6,7
 684 333 684 333 654.5 296.5 c 128,-1,8
 625 260 625 260 625 210 c 0,9,10
 625 135 625 135 643 88 c 1,0,1
1042 0 m 1,11,-1
 1167 630 l 1,12,-1
 852 630 l 2,13,14
 704 630 704 630 594.5 540.5 c 128,-1,15
 485 451 485 451 485 316 c 0,16,17
 485 247 485 247 507 194.5 c 128,-1,18
 529 142 529 142 572 106 c 1,19,20
 555 135 555 135 555 228 c 256,21,22
 555 321 555 321 614.5 388 c 128,-1,23
 674 455 674 455 765 455 c 0,24,25
 837 455 837 455 884 398 c 128,-1,26
 931 341 931 341 931 263 c 0,27,28
 931 155 931 155 863 77.5 c 128,-1,29
 795 0 795 0 695 0 c 0,30,31
 576 0 576 0 495.5 94 c 128,-1,32
 415 188 415 188 415 316 c 0,33,34
 415 481 415 481 545.5 590.5 c 128,-1,35
 676 700 676 700 852 700 c 2,36,-1
 1430 700 l 1,37,-1
 1412 630 l 1,38,-1
 1307 630 l 1,39,-1
 1181 0 l 1,40,-1
 1042 0 l 1,11,-1
EndSplineSet
EndChar

StartChar: tm_eight
Encoding: 3054 3054 104
Width: 1427
GlyphClass: 2
Flags: W
LayerCount: 2
Fore
SplineSet
849 629 m 1,0,1
 745 611 745 611 670 548.5 c 128,-1,2
 595 486 595 486 595 402 c 0,3,4
 595 338 595 338 638.5 291 c 128,-1,5
 682 244 682 244 744 244 c 0,6,7
 817 244 817 244 864 307.5 c 128,-1,8
 911 371 911 371 911 454 c 0,9,10
 911 580 911 580 849 629 c 1,0,1
1024 140 m 1,11,-1
 411 140 l 2,12,13
 381 140 381 140 357 125 c 128,-1,14
 333 110 333 110 333 87 c 0,15,16
 333 43 333 43 412 -13.5 c 128,-1,17
 491 -70 491 -70 639 -70 c 0,18,19
 743 -70 743 -70 839.5 -18 c 128,-1,20
 936 34 936 34 1024 140 c 1,11,-1
1414 -245 m 1,21,-1
 1269 -245 l 1,22,-1
 1348 140 l 1,23,-1
 1164 140 l 1,24,25
 1051 4 1051 4 915 -63.5 c 128,-1,26
 779 -131 779 -131 621 -131 c 0,27,28
 421 -131 421 -131 311.5 -52.5 c 128,-1,29
 202 26 202 26 202 123 c 0,30,31
 202 160 202 160 233 184.5 c 128,-1,32
 264 209 264 209 307 209 c 2,33,-1
 666 209 l 1,34,35
 604 231 604 231 565 284.5 c 128,-1,36
 526 338 526 338 526 402 c 0,37,38
 526 534 526 534 652 617 c 128,-1,39
 778 700 778 700 937 700 c 0,40,41
 1069 700 1069 700 1169 620.5 c 128,-1,42
 1269 541 1269 541 1269 420 c 0,43,44
 1269 306 1269 306 1213 209 c 1,45,-1
 1364 209 l 1,46,-1
 1463 700 l 1,47,-1
 1603 700 l 1,48,-1
 1414 -245 l 1,21,-1
989 620 m 1,49,50
 1042 530 1042 530 1042 411 c 0,51,52
 1042 267 1042 267 919 209 c 1,53,-1
 1077 209 l 1,54,55
 1146 308 1146 308 1146 402 c 0,56,57
 1146 486 1146 486 1103 553 c 128,-1,58
 1060 620 1060 620 989 620 c 1,49,50
EndSplineSet
EndChar

StartChar: tm_nine
Encoding: 3055 3055 105
Width: 1427
GlyphClass: 2
Flags: W
LayerCount: 2
Fore
SplineSet
692 316 m 1,0,-1
 422 316 l 2,1,2
 379 316 379 316 348 291 c 128,-1,3
 317 266 317 266 317 228 c 0,4,5
 317 158 317 158 387 114 c 128,-1,6
 457 70 457 70 544 70 c 0,7,8
 589 70 589 70 622 99.5 c 128,-1,9
 655 129 655 129 665 175 c 2,10,-1
 692 316 l 1,0,-1
756 630 m 1,11,-1
 562 630 l 1,12,-1
 513 386 l 1,13,-1
 707 386 l 1,14,-1
 756 630 l 1,11,-1
1157 175 m 0,15,16
 1157 259 1157 259 1052 298 c 1,17,18
 982 240 982 240 982 158 c 0,19,20
 982 121 982 121 1007.5 95.5 c 128,-1,21
 1033 70 1033 70 1068 70 c 0,22,23
 1107 70 1107 70 1132 101.5 c 128,-1,24
 1157 133 1157 133 1157 175 c 0,15,16
1297 0 m 1,25,26
 1375 93 1375 93 1375 193 c 0,27,28
 1375 263 1375 263 1332.5 315.5 c 128,-1,29
 1290 368 1290 368 1226 368 c 0,30,31
 1163 368 1163 368 1113 342 c 1,32,33
 1167 322 1167 322 1201 276.5 c 128,-1,34
 1235 231 1235 231 1235 175 c 0,35,36
 1235 104 1235 104 1187 52 c 128,-1,37
 1139 0 1139 0 1068 0 c 0,38,39
 1005 0 1005 0 958.5 46.5 c 128,-1,40
 912 93 912 93 912 158 c 0,41,42
 912 257 912 257 982 316 c 1,43,-1
 833 316 l 1,44,-1
 819 245 l 2,45,46
 795 125 795 125 718.5 62.5 c 128,-1,47
 642 0 642 0 544 0 c 0,48,49
 428 0 428 0 337 64 c 128,-1,50
 246 128 246 128 246 228 c 0,51,52
 246 294 246 294 299 340 c 128,-1,53
 352 386 352 386 422 386 c 2,54,-1
 446 386 l 1,55,-1
 508 700 l 1,56,-1
 1122 700 l 1,57,-1
 1104 630 l 1,58,-1
 896 630 l 1,59,-1
 847 386 l 1,60,-1
 947 386 l 2,61,62
 1014 386 1014 386 1052 368 c 1,63,64
 1111 420 1111 420 1226 420 c 0,65,66
 1327 420 1327 420 1399.5 354.5 c 128,-1,67
 1472 289 1472 289 1472 193 c 0,68,69
 1472 109 1472 109 1410 0 c 1,70,-1
 1297 0 l 1,25,26
EndSplineSet
EndChar

StartChar: tm_ten
Encoding: 3056 3056 106
Width: 1260
GlyphClass: 2
Flags: W
LayerCount: 2
Fore
SplineSet
597 149 m 1,0,1
 558 74 558 74 508 37 c 128,-1,2
 458 0 458 0 395 0 c 0,3,4
 302 0 302 0 242 64 c 128,-1,5
 182 128 182 128 182 200 c 0,6,7
 182 224 182 224 186 244 c 2,8,-1
 279 700 l 1,9,-1
 419 700 l 1,10,-1
 325 244 l 2,11,12
 320 223 320 223 320 205 c 0,13,14
 320 155 320 155 346.5 112.5 c 128,-1,15
 373 70 373 70 413 70 c 0,16,17
 472 70 472 70 525 146 c 128,-1,18
 578 222 578 222 606 359 c 2,19,-1
 675 700 l 1,20,-1
 815 700 l 1,21,-1
 746 351 l 2,22,23
 728 262 728 262 728 204 c 0,24,25
 728 150 728 150 760.5 110 c 128,-1,26
 793 70 793 70 841 70 c 0,27,28
 957 70 957 70 1026 204 c 128,-1,29
 1095 338 1095 338 1095 500 c 0,30,31
 1095 691 1095 691 995.5 840 c 128,-1,32
 896 989 896 989 737 989 c 1,33,-1
 755 1042 l 1,34,35
 960 1042 960 1042 1097.5 880.5 c 128,-1,36
 1235 719 1235 719 1235 500 c 0,37,38
 1235 300 1235 300 1118.5 150 c 128,-1,39
 1002 0 1002 0 824 0 c 0,40,41
 739 0 739 0 673.5 40.5 c 128,-1,42
 608 81 608 81 597 149 c 1,0,1
EndSplineSet
EndChar

StartChar: tm_hundred
Encoding: 3057 3057 107
Width: 1166
GlyphClass: 2
Flags: W
LayerCount: 2
Fore
SplineSet
1284 700 m 1,0,-1
 1267 629 l 1,1,-1
 1117 629 l 1,2,-1
 991 0 l 1,3,-1
 851 0 l 1,4,-1
 977 629 l 1,5,-1
 770 629 l 1,6,-1
 644 0 l 1,7,-1
 504 0 l 1,8,-1
 599 472 l 2,9,10
 606 507 606 507 606 534 c 0,11,12
 606 579 606 579 589 613 c 128,-1,13
 572 647 572 647 540 647 c 0,14,15
 483 647 483 647 440 595.5 c 128,-1,16
 397 544 397 544 382 472 c 2,17,-1
 285 0 l 1,18,-1
 146 0 l 1,19,-1
 242 472 l 2,20,21
 263 577 263 577 336.5 647 c 128,-1,22
 410 717 410 717 503 717 c 0,23,24
 567 717 567 717 614 679.5 c 128,-1,25
 661 642 661 642 661 585 c 1,26,-1
 685 700 l 1,27,-1
 1284 700 l 1,0,-1
EndSplineSet
EndChar

StartChar: tm_thousand
Encoding: 3058 3058 108
Width: 1256
GlyphClass: 2
Flags: W
LayerCount: 2
Fore
SplineSet
551 316 m 1,0,-1
 280 316 l 2,1,2
 237 316 237 316 206 291 c 128,-1,3
 175 266 175 266 175 228 c 0,4,5
 175 158 175 158 245.5 114 c 128,-1,6
 316 70 316 70 402 70 c 0,7,8
 447 70 447 70 480 99.5 c 128,-1,9
 513 129 513 129 523 175 c 2,10,-1
 551 316 l 1,0,-1
615 630 m 1,11,-1
 420 630 l 1,12,-1
 371 386 l 1,13,-1
 565 386 l 1,14,-1
 615 630 l 1,11,-1
677 245 m 2,15,16
 653 125 653 125 576 62.5 c 128,-1,17
 499 0 499 0 402 0 c 0,18,19
 285 0 285 0 195 64 c 128,-1,20
 105 128 105 128 105 228 c 0,21,22
 105 294 105 294 156.5 340 c 128,-1,23
 208 386 208 386 280 386 c 2,24,-1
 304 386 l 1,25,-1
 367 700 l 1,26,-1
 997 700 l 1,27,-1
 983 630 l 1,28,-1
 755 630 l 1,29,-1
 705 386 l 1,30,-1
 1120 386 l 1,31,-1
 1105 316 l 1,32,-1
 971 316 l 1,33,-1
 945 175 l 1,34,35
 990 228 990 228 1067 228 c 0,36,37
 1134 228 1134 228 1179.5 176 c 128,-1,38
 1225 124 1225 124 1225 53 c 0,39,40
 1225 -78 1225 -78 1108 -161 c 128,-1,41
 991 -244 991 -244 840 -244 c 0,42,43
 740 -244 740 -244 542 -205 c 0,44,45
 346 -167 346 -167 244 -167 c 0,46,47
 181 -167 181 -167 134 -206.5 c 128,-1,48
 87 -246 87 -246 87 -307 c 0,49,50
 87 -384 87 -384 158 -411 c 1,51,-1
 149 -445 l 1,52,53
 82 -433 82 -433 36.5 -387 c 128,-1,54
 -9 -341 -9 -341 -9 -280 c 0,55,56
 -9 -205 -9 -205 70.5 -159.5 c 128,-1,57
 150 -114 150 -114 244 -114 c 0,58,59
 346 -114 346 -114 542 -153 c 0,60,61
 740 -192 740 -192 840 -192 c 0,62,63
 938 -192 938 -192 1011.5 -135 c 128,-1,64
 1085 -78 1085 -78 1085 9 c 0,65,66
 1085 61 1085 61 1061 100.5 c 128,-1,67
 1037 140 1037 140 997 140 c 256,68,69
 957 140 957 140 927 88 c 1,70,-1
 910 0 l 1,71,-1
 769 0 l 1,72,-1
 831 316 l 1,73,-1
 691 316 l 1,74,-1
 677 245 l 2,15,16
EndSplineSet
EndChar

StartChar: zerowidthnonjoiner
Encoding: 8204 8204 109
Width: 0
GlyphClass: 2
Flags: W
LayerCount: 2
Fore
SplineSet
315 1225 m 1,0,-1
 -34 -516 l 1,1,-1
 -103 -516 l 1,2,-1
 244 1225 l 1,3,-1
 315 1225 l 1,0,-1
EndSplineSet
EndChar

StartChar: zerowidthjoiner
Encoding: 8205 8205 110
Width: 0
GlyphClass: 2
Flags: W
LayerCount: 2
Fore
SplineSet
415 997 m 1,0,-1
 363 953 l 1,1,-1
 270 1073 l 1,2,-1
 -24 -441 l 1,3,-1
 -87 -441 l 1,4,-1
 206 1073 l 1,5,-1
 65 953 l 1,6,-1
 32 997 l 1,7,-1
 210 1145 l 1,8,-1
 89 1292 l 1,9,-1
 140 1334 l 1,10,-1
 260 1185 l 1,11,-1
 437 1334 l 1,12,-1
 472 1292 l 1,13,-1
 294 1145 l 1,14,-1
 415 997 l 1,0,-1
EndSplineSet
EndChar

StartChar: u2013
Encoding: 8211 8211 111
Width: 722
GlyphClass: 2
Flags: W
LayerCount: 2
Fore
SplineSet
733 319 m 1,0,-1
 -12 319 l 1,1,-1
 -12 370 l 1,2,-1
 733 370 l 1,3,-1
 733 319 l 1,0,-1
EndSplineSet
EndChar

StartChar: u2014
Encoding: 8212 8212 112
Width: 1284
GlyphClass: 2
Flags: W
LayerCount: 2
Fore
SplineSet
1296 318 m 1,0,-1
 -13 319 l 1,1,-1
 -13 371 l 1,2,-1
 1296 370 l 1,3,-1
 1296 318 l 1,0,-1
EndSplineSet
EndChar

StartChar: u2018
Encoding: 65539 -1 113
Width: 444
GlyphClass: 2
Flags: W
LayerCount: 2
Fore
SplineSet
314 1192 m 1,0,-1
 314 988 l 1,1,-1
 126 988 l 1,2,-1
 126 1148 l 2,3,4
 126 1218 126 1218 132 1260 c 128,-1,5
 138 1302 138 1302 156 1338 c 0,6,7
 198 1408 198 1408 286 1456 c 1,8,-1
 330 1388 l 1,9,10
 278 1370 278 1370 250 1319 c 128,-1,11
 222 1268 222 1268 222 1192 c 1,12,-1
 314 1192 l 1,0,-1
EndSplineSet
EndChar

StartChar: u2019
Encoding: 65540 -1 114
Width: 444
GlyphClass: 2
Flags: W
LayerCount: 2
Fore
SplineSet
122 1242 m 1,0,-1
 122 1446 l 1,1,-1
 310 1446 l 1,2,-1
 310 1286 l 2,3,4
 310 1162 310 1162 280 1096 c 1,5,6
 242 1024 242 1024 148 978 c 1,7,-1
 106 1046 l 1,8,9
 152 1064 152 1064 182 1113 c 128,-1,10
 212 1162 212 1162 212 1242 c 1,11,-1
 122 1242 l 1,0,-1
EndSplineSet
EndChar

StartChar: u201C
Encoding: 65541 -1 115
Width: 666
GlyphClass: 2
Flags: W
LayerCount: 2
Fore
SplineSet
270 1192 m 1,0,-1
 270 988 l 1,1,-1
 82 988 l 1,2,-1
 82 1148 l 2,3,4
 82 1218 82 1218 88 1260 c 128,-1,5
 94 1302 94 1302 112 1338 c 0,6,7
 154 1408 154 1408 242 1456 c 1,8,-1
 286 1388 l 1,9,10
 234 1370 234 1370 206 1319 c 128,-1,11
 178 1268 178 1268 178 1192 c 1,12,-1
 270 1192 l 1,0,-1
572 1192 m 1,13,-1
 572 988 l 1,14,-1
 384 988 l 1,15,-1
 384 1148 l 2,16,17
 384 1286 384 1286 419 1347 c 128,-1,18
 454 1408 454 1408 544 1456 c 1,19,-1
 588 1388 l 1,20,21
 536 1370 536 1370 508 1319 c 128,-1,22
 480 1268 480 1268 480 1192 c 1,23,-1
 572 1192 l 1,13,-1
EndSplineSet
EndChar

StartChar: u201D
Encoding: 65542 -1 116
Width: 666
GlyphClass: 2
Flags: W
LayerCount: 2
Fore
SplineSet
84 1242 m 1,0,-1
 84 1446 l 1,1,-1
 274 1446 l 1,2,-1
 274 1286 l 2,3,4
 274 1162 274 1162 244 1096 c 1,5,6
 206 1024 206 1024 112 978 c 1,7,-1
 70 1046 l 1,8,9
 116 1064 116 1064 146 1113 c 128,-1,10
 176 1162 176 1162 176 1242 c 1,11,-1
 84 1242 l 1,0,-1
388 1242 m 1,12,-1
 388 1446 l 1,13,-1
 576 1446 l 1,14,-1
 576 1286 l 2,15,16
 576 1162 576 1162 546 1096 c 1,17,18
 504 1022 504 1022 416 978 c 1,19,-1
 372 1046 l 1,20,21
 422 1064 422 1064 451 1116 c 128,-1,22
 480 1168 480 1168 480 1242 c 1,23,-1
 388 1242 l 1,12,-1
EndSplineSet
EndChar

StartChar: u2026
Encoding: 8230 8230 117
Width: 1283
GlyphClass: 2
Flags: W
LayerCount: 2
Fore
SplineSet
265 136 m 0,0,1
 298 136 298 136 320.5 114 c 128,-1,2
 343 92 343 92 343 58 c 0,3,4
 343 26 343 26 320.5 3 c 128,-1,5
 298 -20 298 -20 265 -20 c 0,6,7
 233 -20 233 -20 210 3 c 128,-1,8
 187 26 187 26 187 58 c 0,9,10
 187 92 187 92 210 114 c 128,-1,11
 233 136 233 136 265 136 c 0,0,1
638 136 m 256,12,13
 670 136 670 136 693 114 c 128,-1,14
 716 92 716 92 716 58 c 0,15,16
 716 26 716 26 692.5 3 c 128,-1,17
 669 -20 669 -20 638 -20 c 0,18,19
 606 -20 606 -20 583 3 c 128,-1,20
 560 26 560 26 560 58 c 0,21,22
 560 92 560 92 583 114 c 128,-1,23
 606 136 606 136 638 136 c 256,12,13
1010 136 m 0,24,25
 1043 136 1043 136 1066 114 c 128,-1,26
 1089 92 1089 92 1089 58 c 0,27,28
 1089 26 1089 26 1065.5 3 c 128,-1,29
 1042 -20 1042 -20 1010 -20 c 256,30,31
 978 -20 978 -20 955.5 3 c 128,-1,32
 933 26 933 26 933 58 c 0,33,34
 933 92 933 92 955.5 114 c 128,-1,35
 978 136 978 136 1010 136 c 0,24,25
EndSplineSet
EndChar

StartChar: u2212
Encoding: 8722 8722 118
Width: 974
GlyphClass: 2
Flags: W
LayerCount: 2
Fore
SplineSet
133 450 m 1,0,-1
 133 508 l 1,1,-1
 894 508 l 1,2,-1
 894 450 l 1,3,-1
 133 450 l 1,0,-1
EndSplineSet
EndChar

StartChar: u25CC
Encoding: 9676 9676 119
Width: 1167
GlyphClass: 2
Flags: W
LayerCount: 2
Fore
SplineSet
654 665 m 0,0,1
 626 665 626 665 612 679 c 128,-1,2
 598 693 598 693 598 724 c 0,3,4
 598 746 598 746 615 762.5 c 128,-1,5
 632 779 632 779 654 779 c 0,6,7
 683 779 683 779 697.5 765 c 128,-1,8
 712 751 712 751 712 724 c 0,9,10
 712 693 712 693 697.5 679 c 128,-1,11
 683 665 683 665 654 665 c 0,0,1
840 616 m 0,12,13
 811 616 811 616 796.5 630.5 c 128,-1,14
 782 645 782 645 782 674 c 0,15,16
 782 701 782 701 796.5 715 c 128,-1,17
 811 729 811 729 840 729 c 0,18,19
 862 729 862 729 879 713 c 128,-1,20
 896 697 896 697 896 674 c 0,21,22
 896 645 896 645 882 630.5 c 128,-1,23
 868 616 868 616 840 616 c 0,12,13
470 616 m 0,24,25
 442 616 442 616 428 630.5 c 128,-1,26
 414 645 414 645 414 674 c 0,27,28
 414 697 414 697 431 713 c 128,-1,29
 448 729 448 729 470 729 c 0,30,31
 494 729 494 729 510 713 c 128,-1,32
 526 697 526 697 526 674 c 0,33,34
 526 645 526 645 512.5 630.5 c 128,-1,35
 499 616 499 616 470 616 c 0,24,25
973 482 m 0,36,37
 951 482 951 482 933.5 498 c 128,-1,38
 916 514 916 514 916 538 c 0,39,40
 916 567 916 567 930.5 581 c 128,-1,41
 945 595 945 595 973 595 c 256,42,43
 1001 595 1001 595 1014.5 581 c 128,-1,44
 1028 567 1028 567 1028 538 c 0,45,46
 1028 514 1028 514 1012 498 c 128,-1,47
 996 482 996 482 973 482 c 0,36,37
336 482 m 0,48,49
 307 482 307 482 293 495.5 c 128,-1,50
 279 509 279 509 279 538 c 256,51,52
 279 567 279 567 293 581 c 128,-1,53
 307 595 307 595 336 595 c 0,54,55
 364 595 364 595 378 581 c 128,-1,56
 392 567 392 567 392 538 c 0,57,58
 392 514 392 514 375 498 c 128,-1,59
 358 482 358 482 336 482 c 0,48,49
1024 298 m 0,60,61
 994 298 994 298 979.5 311.5 c 128,-1,62
 965 325 965 325 965 354 c 0,63,64
 965 382 965 382 979.5 396 c 128,-1,65
 994 410 994 410 1024 410 c 0,66,67
 1046 410 1046 410 1063 393 c 128,-1,68
 1080 376 1080 376 1080 354 c 0,69,70
 1080 331 1080 331 1063 314.5 c 128,-1,71
 1046 298 1046 298 1024 298 c 0,60,61
287 298 m 0,72,73
 257 298 257 298 243 311.5 c 128,-1,74
 229 325 229 325 229 354 c 0,75,76
 229 382 229 382 243 396 c 128,-1,77
 257 410 257 410 287 410 c 0,78,79
 310 410 310 410 326.5 393 c 128,-1,80
 343 376 343 376 343 354 c 0,81,82
 343 331 343 331 326.5 314.5 c 128,-1,83
 310 298 310 298 287 298 c 0,72,73
973 112 m 256,84,85
 945 112 945 112 930.5 126.5 c 128,-1,86
 916 141 916 141 916 169 c 0,87,88
 916 193 916 193 933.5 209.5 c 128,-1,89
 951 226 951 226 973 226 c 0,90,91
 996 226 996 226 1012 209.5 c 128,-1,92
 1028 193 1028 193 1028 169 c 0,93,94
 1028 141 1028 141 1014.5 126.5 c 128,-1,95
 1001 112 1001 112 973 112 c 256,84,85
336 112 m 0,96,97
 307 112 307 112 293 126.5 c 128,-1,98
 279 141 279 141 279 169 c 0,99,100
 279 198 279 198 293 212 c 128,-1,101
 307 226 307 226 336 226 c 0,102,103
 358 226 358 226 375 209.5 c 128,-1,104
 392 193 392 193 392 169 c 0,105,106
 392 141 392 141 378 126.5 c 128,-1,107
 364 112 364 112 336 112 c 0,96,97
840 -22 m 0,108,109
 811 -22 811 -22 796.5 -8 c 128,-1,110
 782 6 782 6 782 34 c 0,111,112
 782 63 782 63 796.5 78 c 128,-1,113
 811 93 811 93 840 93 c 0,114,115
 863 93 863 93 879.5 75 c 128,-1,116
 896 57 896 57 896 34 c 256,117,118
 896 11 896 11 879 -5.5 c 128,-1,119
 862 -22 862 -22 840 -22 c 0,108,109
470 -22 m 0,120,121
 448 -22 448 -22 431 -5.5 c 128,-1,122
 414 11 414 11 414 34 c 256,123,124
 414 57 414 57 430.5 75 c 128,-1,125
 447 93 447 93 470 93 c 0,126,127
 495 93 495 93 510.5 75 c 128,-1,128
 526 57 526 57 526 34 c 256,129,130
 526 11 526 11 510 -5.5 c 128,-1,131
 494 -22 494 -22 470 -22 c 0,120,121
654 -72 m 0,132,133
 632 -72 632 -72 615 -55 c 128,-1,134
 598 -38 598 -38 598 -16 c 0,135,136
 598 14 598 14 612 28.5 c 128,-1,137
 626 43 626 43 654 43 c 0,138,139
 683 43 683 43 697.5 28.5 c 128,-1,140
 712 14 712 14 712 -16 c 0,141,142
 712 -44 712 -44 697.5 -58 c 128,-1,143
 683 -72 683 -72 654 -72 c 0,132,133
EndSplineSet
EndChar

StartChar: tm_k_ikaar
Encoding: 65543 -1 120
Width: 1126
GlyphClass: 2
Flags: W
LayerCount: 2
Fore
SplineSet
1062 470 m 1,0,-1
 972 470 l 1,1,-1
 972 892 l 2,2,3
 972 1110 972 1110 780 1110 c 0,4,5
 692 1110 692 1110 636 1072 c 0,6,7
 568 1022 568 1022 568 930 c 0,8,9
 568 874 568 874 604 821 c 128,-1,10
 640 768 640 768 684 768 c 2,11,-1
 898 768 l 1,12,-1
 898 682 l 1,13,-1
 610 682 l 1,14,-1
 610 476 l 1,15,-1
 782 476 l 2,16,17
 884 476 884 476 945 408 c 128,-1,18
 1006 340 1006 340 1006 234 c 0,19,20
 1006 124 1006 124 936 52 c 128,-1,21
 866 -20 866 -20 746 -20 c 0,22,23
 716 -20 716 -20 685 -14 c 128,-1,24
 654 -8 654 -8 636 -4 c 1,25,-1
 666 78 l 1,26,27
 702 62 702 62 750 62 c 0,28,29
 826 62 826 62 874 113 c 128,-1,30
 922 164 922 164 922 238 c 0,31,32
 922 396 922 396 742 396 c 2,33,-1
 610 396 l 1,34,-1
 610 220 l 2,35,36
 610 118 610 118 531 51 c 128,-1,37
 452 -16 452 -16 332 -16 c 0,38,39
 220 -16 220 -16 128 62 c 128,-1,40
 36 140 36 140 36 242 c 0,41,42
 36 352 36 352 100 416 c 0,43,44
 146 458 146 458 202 470 c 1,45,-1
 202 768 l 1,46,-1
 528 768 l 1,47,-1
 494 824 l 1,48,49
 472 868 472 868 472 924 c 0,50,51
 472 1042 472 1042 557 1118 c 128,-1,52
 642 1194 642 1194 786 1194 c 0,53,54
 916 1194 916 1194 994 1110 c 0,55,56
 1062 1032 1062 1032 1062 910 c 2,57,-1
 1062 470 l 1,0,-1
516 476 m 1,58,-1
 516 682 l 1,59,-1
 292 682 l 1,60,-1
 292 476 l 1,61,-1
 516 476 l 1,58,-1
516 222 m 2,62,-1
 516 396 l 1,63,-1
 278 396 l 2,64,65
 132 396 132 396 132 244 c 0,66,67
 132 168 132 168 193 115 c 128,-1,68
 254 62 254 62 336 62 c 0,69,70
 416 62 416 62 466 107 c 128,-1,71
 516 152 516 152 516 222 c 2,62,-1
EndSplineSet
Ligature2: "'psts' Post Base Substitutions lookup 8 subtable" tm_ka tm_ikaar
EndChar

StartChar: tm_ng_ikaar
Encoding: 65544 -1 121
Width: 1480
GlyphClass: 2
Flags: W
LayerCount: 2
Fore
SplineSet
1046 534 m 1,0,1
 938 534 938 534 853 616 c 128,-1,2
 768 698 768 698 768 828 c 0,3,4
 768 974 768 974 854 1062 c 0,5,6
 952 1160 952 1160 1132 1160 c 0,7,8
 1290 1160 1290 1160 1374 1065 c 128,-1,9
 1458 970 1458 970 1458 802 c 2,10,-1
 1460 4 l 1,11,-1
 1366 0 l 1,12,-1
 1366 826 l 2,13,14
 1366 928 1366 928 1301 1000 c 128,-1,15
 1236 1072 1236 1072 1128 1072 c 0,16,17
 1010 1072 1010 1072 934 1007 c 128,-1,18
 858 942 858 942 858 838 c 0,19,20
 858 730 858 730 916 672 c 0,21,22
 966 622 966 622 1048 622 c 1,23,-1
 1100 628 l 1,24,-1
 1100 768 l 1,25,-1
 1200 768 l 1,26,-1
 1200 0 l 1,27,-1
 614 0 l 1,28,-1
 614 82 l 1,29,30
 664 82 664 82 696 91 c 128,-1,31
 728 100 728 100 760 128 c 0,32,33
 822 184 822 184 822 278 c 0,34,35
 822 418 822 418 662 418 c 0,36,37
 600 418 600 418 551 381 c 128,-1,38
 502 344 502 344 502 286 c 2,39,-1
 502 0 l 1,40,-1
 406 0 l 1,41,-1
 406 696 l 1,42,-1
 112 696 l 1,43,-1
 112 0 l 1,44,-1
 10 0 l 1,45,-1
 10 768 l 1,46,-1
 744 768 l 1,47,-1
 742 696 l 1,48,-1
 502 696 l 1,49,-1
 502 426 l 1,50,51
 532 508 532 508 664 508 c 0,52,53
 772 508 772 508 842 447 c 128,-1,54
 912 386 912 386 912 270 c 0,55,56
 912 152 912 152 822 80 c 1,57,-1
 1100 80 l 1,58,-1
 1100 540 l 1,59,-1
 1046 534 l 1,0,1
EndSplineSet
Ligature2: "'psts' Post Base Substitutions lookup 8 subtable" tm_nga tm_ikaar
EndChar

StartChar: tm_c_ikaar
Encoding: 65545 -1 122
Width: 1194
GlyphClass: 2
Flags: W
LayerCount: 2
Fore
SplineSet
1082 0 m 1,0,-1
 986 0 l 1,1,-1
 986 844 l 2,2,3
 986 968 986 968 925 1043 c 128,-1,4
 864 1118 864 1118 760 1118 c 0,5,6
 670 1118 670 1118 599 1065 c 128,-1,7
 528 1012 528 1012 528 928 c 0,8,9
 528 866 528 866 558 817 c 128,-1,10
 588 768 588 768 630 768 c 2,11,-1
 838 768 l 1,12,-1
 838 686 l 1,13,-1
 610 686 l 1,14,-1
 610 462 l 1,15,-1
 884 462 l 1,16,-1
 884 388 l 1,17,-1
 610 388 l 1,18,-1
 610 214 l 2,19,20
 610 118 610 118 530 50 c 128,-1,21
 450 -18 450 -18 342 -18 c 0,22,23
 228 -18 228 -18 132 60 c 128,-1,24
 36 138 36 138 36 254 c 0,25,26
 36 330 36 330 83 394 c 128,-1,27
 130 458 130 458 200 466 c 1,28,-1
 200 768 l 1,29,-1
 494 768 l 1,30,31
 436 814 436 814 436 918 c 0,32,33
 436 1046 436 1046 525 1123 c 128,-1,34
 614 1200 614 1200 768 1200 c 0,35,36
 894 1200 894 1200 988 1110 c 1,37,38
 1082 1012 1082 1012 1082 870 c 2,39,-1
 1082 0 l 1,0,-1
514 462 m 1,40,-1
 514 686 l 1,41,-1
 296 686 l 1,42,-1
 296 462 l 1,43,-1
 514 462 l 1,40,-1
514 222 m 2,44,-1
 514 388 l 1,45,-1
 282 388 l 2,46,47
 132 388 132 388 132 248 c 0,48,49
 132 172 132 172 194 116 c 128,-1,50
 256 60 256 60 330 60 c 0,51,52
 408 60 408 60 461 105 c 128,-1,53
 514 150 514 150 514 222 c 2,44,-1
EndSplineSet
Ligature2: "'psts' Post Base Substitutions lookup 8 subtable" tm_ca tm_ikaar
EndChar

StartChar: tm_j_ikaar
Encoding: 65546 -1 123
Width: 1558
GlyphClass: 2
Flags: W
LayerCount: 2
Fore
SplineSet
1448 0 m 1,0,-1
 1350 0 l 1,1,-1
 1350 860 l 2,2,3
 1350 968 1350 968 1290 1044 c 0,4,5
 1224 1126 1224 1126 1108 1126 c 0,6,7
 1016 1126 1016 1126 952 1074 c 0,8,9
 880 1020 880 1020 880 936 c 0,10,11
 880 842 880 842 954 780 c 1,12,13
 1042 764 1042 764 1100 710 c 0,14,15
 1174 640 1174 640 1174 524 c 0,16,17
 1174 374 1174 374 1042 290 c 1,18,19
 1094 278 1094 278 1146 224 c 0,20,21
 1206 160 1206 160 1206 72 c 0,22,23
 1206 -8 1206 -8 1146 -80 c 0,24,25
 1068 -170 1068 -170 922 -170 c 0,26,27
 862 -170 862 -170 823 -162 c 128,-1,28
 784 -154 784 -154 744 -130 c 1,29,-1
 744 -38 l 1,30,-1
 812 -70 l 2,31,32
 862 -90 862 -90 926 -90 c 0,33,34
 1004 -90 1004 -90 1062 -47 c 128,-1,35
 1120 -4 1120 -4 1120 64 c 0,36,37
 1120 238 1120 238 922 238 c 0,38,39
 822 238 822 238 772 206 c 0,40,41
 736 184 736 184 714 126 c 2,42,-1
 680 20 l 1,43,44
 614 -166 614 -166 386 -166 c 0,45,46
 230 -166 230 -166 148 -86 c 0,47,48
 74 -16 74 -16 74 96 c 0,49,50
 74 234 74 234 216 284 c 1,51,52
 158 298 158 298 111 356 c 128,-1,53
 64 414 64 414 64 494 c 0,54,55
 64 626 64 626 160 703 c 128,-1,56
 256 780 256 780 402 780 c 0,57,58
 584 780 584 780 652 646 c 1,59,60
 658 684 658 684 712 726 c 128,-1,61
 766 768 766 768 840 778 c 1,62,63
 790 850 790 850 790 940 c 0,64,65
 790 1050 790 1050 883 1127 c 128,-1,66
 976 1204 976 1204 1108 1204 c 0,67,68
 1256 1204 1256 1204 1352 1107 c 128,-1,69
 1448 1010 1448 1010 1448 860 c 2,70,-1
 1448 0 l 1,0,-1
1088 528 m 0,71,72
 1088 606 1088 606 1034 660 c 1,73,74
 982 706 982 706 906 706 c 0,75,76
 794 706 794 706 738 650 c 0,77,78
 690 604 690 604 690 532 c 2,79,-1
 690 380 l 1,80,-1
 594 380 l 1,81,-1
 594 536 l 2,82,83
 594 610 594 610 544 659 c 128,-1,84
 494 708 494 708 398 708 c 0,85,86
 340 708 340 708 290 686 c 1,87,88
 238 668 238 668 222 638 c 1,89,90
 232 640 232 640 266 647 c 128,-1,91
 300 654 300 654 308 654 c 0,92,93
 376 654 376 654 424 614 c 0,94,95
 482 566 482 566 482 470 c 0,96,97
 482 368 482 368 394 312 c 1,98,-1
 822 312 l 2,99,100
 926 312 926 312 1002 370 c 0,101,102
 1088 434 1088 434 1088 528 c 0,71,72
394 466 m 0,103,104
 394 512 394 512 359 548 c 128,-1,105
 324 584 324 584 274 584 c 0,106,107
 228 584 228 584 193 549 c 128,-1,108
 158 514 158 514 158 466 c 0,109,110
 158 416 158 416 192 382 c 128,-1,111
 226 348 226 348 274 348 c 0,112,113
 324 348 324 348 359 383 c 128,-1,114
 394 418 394 418 394 466 c 0,103,104
682 238 m 1,115,-1
 320 238 l 2,116,117
 250 238 250 238 202 196 c 0,118,119
 160 154 160 154 160 86 c 0,120,121
 160 4 160 4 230 -48 c 0,122,123
 292 -94 292 -94 374 -94 c 0,124,125
 496 -94 496 -94 554 -24 c 0,126,127
 588 14 588 14 624 122 c 0,128,129
 652 216 652 216 682 238 c 1,115,-1
EndSplineSet
Ligature2: "'psts' Post Base Substitutions lookup 8 subtable" tm_ja tm_ikaar
EndChar

StartChar: tm_ny_ikaar
Encoding: 65547 -1 124
Width: 1740
GlyphClass: 2
Flags: W
LayerCount: 2
Fore
SplineSet
812 218 m 256,0,1
 812 292 812 292 765 332 c 128,-1,2
 718 372 718 372 648 372 c 0,3,4
 588 372 588 372 538 325 c 128,-1,5
 488 278 488 278 488 212 c 0,6,7
 488 154 488 154 536 104 c 128,-1,8
 584 54 584 54 648 54 c 0,9,10
 714 54 714 54 763 99 c 128,-1,11
 812 144 812 144 812 218 c 256,0,1
1214 770 m 1,12,-1
 1426 770 l 1,13,-1
 1426 694 l 1,14,-1
 1138 694 l 1,15,-1
 1138 406 l 1,16,17
 1174 460 1174 460 1306 460 c 0,18,19
 1430 460 1430 460 1508 383 c 128,-1,20
 1586 306 1586 306 1586 156 c 0,21,22
 1586 -70 1586 -70 1368 -204 c 0,23,24
 1172 -320 1172 -320 908 -320 c 0,25,26
 716 -320 716 -320 570 -282 c 128,-1,27
 424 -244 424 -244 306 -160 c 0,28,29
 64 10 64 10 64 312 c 0,30,31
 64 422 64 422 110 531 c 128,-1,32
 156 640 156 640 216 682 c 1,33,-1
 282 622 l 1,34,35
 234 594 234 594 191 503 c 128,-1,36
 148 412 148 412 148 320 c 0,37,38
 148 46 148 46 352 -102 c 128,-1,39
 556 -250 556 -250 914 -250 c 0,40,41
 1150 -250 1150 -250 1318 -150 c 0,42,43
 1510 -36 1510 -36 1510 164 c 0,44,45
 1510 262 1510 262 1458 321 c 128,-1,46
 1406 380 1406 380 1312 380 c 0,47,48
 1236 380 1236 380 1187 340 c 128,-1,49
 1138 300 1138 300 1138 226 c 2,50,-1
 1138 0 l 1,51,-1
 1054 0 l 1,52,-1
 1054 694 l 1,53,-1
 770 694 l 2,54,55
 586 694 586 694 480 612 c 128,-1,56
 374 530 374 530 374 362 c 0,57,58
 374 306 374 306 392 245 c 128,-1,59
 410 184 410 184 432 172 c 1,60,61
 418 214 418 214 418 252 c 0,62,63
 418 324 418 324 472 382 c 0,64,65
 536 446 536 446 652 446 c 0,66,67
 756 446 756 446 822 382 c 128,-1,68
 888 318 888 318 888 218 c 0,69,70
 888 114 888 114 820 49 c 128,-1,71
 752 -16 752 -16 636 -16 c 0,72,73
 500 -16 500 -16 400 74 c 0,74,75
 294 170 294 170 294 336 c 0,76,77
 294 552 294 552 430 664 c 0,78,79
 558 768 558 768 778 768 c 2,80,-1
 1116 768 l 1,81,82
 1096 800 1096 800 1088 822 c 0,83,84
 1074 862 1074 862 1074 914 c 0,85,86
 1074 1026 1074 1026 1166 1104 c 1,87,88
 1262 1178 1262 1178 1398 1178 c 256,89,90
 1534 1178 1534 1178 1626 1077 c 128,-1,91
 1718 976 1718 976 1718 826 c 2,92,-1
 1718 0 l 1,93,-1
 1624 0 l 1,94,-1
 1624 796 l 2,95,96
 1624 938 1624 938 1562 1018 c 128,-1,97
 1500 1098 1500 1098 1390 1098 c 0,98,99
 1294 1098 1294 1098 1227 1043 c 128,-1,100
 1160 988 1160 988 1160 918 c 0,101,102
 1160 878 1160 878 1174 841 c 128,-1,103
 1188 804 1188 804 1214 770 c 1,12,-1
EndSplineSet
Ligature2: "'psts' Post Base Substitutions lookup 8 subtable" tm_nya tm_ikaar
EndChar

StartChar: tm_tt_ikaar
Encoding: 65548 -1 125
Width: 1084
GlyphClass: 2
Flags: W
LayerCount: 2
Fore
SplineSet
1072 0 m 1,0,-1
 628 0 l 1,1,2
 608 -46 608 -46 608 -90 c 0,3,4
 608 -240 608 -240 756 -322 c 1,5,-1
 700 -396 l 1,6,7
 624 -358 624 -358 570 -270 c 0,8,9
 522 -186 522 -186 522 -82 c 0,10,11
 522 -38 522 -38 530 0 c 1,12,-1
 110 0 l 1,13,-1
 110 768 l 1,14,-1
 204 768 l 1,15,-1
 204 80 l 1,16,-1
 560 80 l 1,17,18
 602 182 602 182 666 206 c 1,19,20
 560 218 560 218 481 297 c 128,-1,21
 402 376 402 376 402 486 c 0,22,23
 402 618 402 618 480 693 c 128,-1,24
 558 768 558 768 700 768 c 0,25,26
 816 768 816 768 892 689 c 128,-1,27
 968 610 968 610 968 478 c 0,28,29
 968 384 968 384 904 312 c 0,30,31
 882 286 882 286 774 202 c 0,32,33
 692 138 692 138 666 80 c 1,34,-1
 1072 80 l 1,35,-1
 1072 0 l 1,0,-1
882 486 m 0,36,37
 882 568 882 568 834 628 c 1,38,39
 780 688 780 688 688 688 c 0,40,41
 494 688 494 688 494 490 c 0,42,43
 494 400 494 400 556 340 c 0,44,45
 616 286 616 286 716 276 c 1,46,47
 882 336 882 336 882 486 c 0,36,37
EndSplineSet
Ligature2: "'psts' Post Base Substitutions lookup 8 subtable" tm_tta tm_ikaar
EndChar

StartChar: tm_nn_ikaar
Encoding: 65549 -1 126
Width: 2326
GlyphClass: 2
Flags: W
LayerCount: 2
Fore
SplineSet
2214 0 m 1,0,-1
 2116 0 l 1,1,-1
 2116 852 l 2,2,3
 2116 970 2116 970 2050 1042 c 1,4,5
 1982 1110 1982 1110 1882 1110 c 0,6,7
 1798 1110 1798 1110 1727 1060 c 128,-1,8
 1656 1010 1656 1010 1656 932 c 0,9,10
 1656 870 1656 870 1682 824 c 0,11,12
 1710 768 1710 768 1760 768 c 2,13,-1
 1994 768 l 1,14,-1
 1994 692 l 1,15,-1
 1766 692 l 1,16,-1
 1766 0 l 1,17,-1
 1670 0 l 1,18,-1
 1670 692 l 1,19,-1
 1506 692 l 2,20,21
 1430 692 1430 692 1396 674 c 1,22,23
 1500 534 1500 534 1500 342 c 0,24,25
 1500 176 1500 176 1428 70 c 0,26,27
 1366 -16 1366 -16 1296 -16 c 0,28,29
 1224 -16 1224 -16 1168 40 c 0,30,31
 1094 120 1094 120 1094 284 c 0,32,33
 1094 398 1094 398 1136 513 c 128,-1,34
 1178 628 1178 628 1242 688 c 1,35,36
 1170 726 1170 726 1078 726 c 0,37,38
 954 726 954 726 906 676 c 1,39,40
 1034 566 1034 566 1034 320 c 0,41,42
 1034 194 1034 194 984 100 c 0,43,44
 924 -8 924 -8 824 -8 c 0,45,46
 734 -8 734 -8 681 77 c 128,-1,47
 628 162 628 162 628 316 c 0,48,49
 628 524 628 524 772 680 c 1,50,51
 690 726 690 726 510 726 c 0,52,53
 342 726 342 726 238 614 c 128,-1,54
 134 502 134 502 134 358 c 0,55,56
 134 298 134 298 152 244 c 1,57,58
 152 328 152 328 212 390 c 128,-1,59
 272 452 272 452 370 452 c 0,60,61
 460 452 460 452 521 384 c 128,-1,62
 582 316 582 316 582 222 c 0,63,64
 582 126 582 126 514 61 c 128,-1,65
 446 -4 446 -4 352 -4 c 0,66,67
 232 -4 232 -4 152 84 c 0,68,69
 64 184 64 184 64 372 c 0,70,71
 64 538 64 538 178 658 c 0,72,73
 310 794 310 794 542 794 c 0,74,75
 630 794 630 794 699 780 c 128,-1,76
 768 766 768 766 844 730 c 1,77,78
 952 792 952 792 1086 792 c 256,79,80
 1220 792 1220 792 1322 734 c 1,81,82
 1390 768 1390 768 1502 768 c 2,83,-1
 1622 768 l 1,84,85
 1570 814 1570 814 1570 914 c 0,86,87
 1570 1034 1570 1034 1654 1112 c 128,-1,88
 1738 1190 1738 1190 1878 1190 c 0,89,90
 2016 1190 2016 1190 2115 1098 c 128,-1,91
 2214 1006 2214 1006 2214 860 c 2,92,-1
 2214 0 l 1,0,-1
1426 328 m 0,93,94
 1426 518 1426 518 1324 644 c 1,95,96
 1274 618 1274 618 1226 512 c 128,-1,97
 1178 406 1178 406 1178 290 c 0,98,99
 1178 202 1178 202 1206 129 c 128,-1,100
 1234 56 1234 56 1290 56 c 0,101,102
 1336 56 1336 56 1382 146 c 0,103,104
 1402 188 1402 188 1414 236 c 128,-1,105
 1426 284 1426 284 1426 328 c 0,93,94
952 324 m 0,106,107
 952 370 952 370 944 421 c 128,-1,108
 936 472 936 472 918 522 c 0,109,110
 888 622 888 622 844 640 c 1,111,112
 796 628 796 628 755 514 c 128,-1,113
 714 400 714 400 714 294 c 0,114,115
 714 212 714 212 746 137 c 128,-1,116
 778 62 778 62 832 62 c 0,117,118
 880 62 880 62 916 146 c 128,-1,119
 952 230 952 230 952 324 c 0,106,107
508 220 m 0,120,121
 508 284 508 284 467 331 c 128,-1,122
 426 378 426 378 360 378 c 0,123,124
 298 378 298 378 254 331 c 128,-1,125
 210 284 210 284 210 218 c 0,126,127
 210 154 210 154 252 106 c 1,128,129
 296 62 296 62 360 62 c 256,130,131
 424 62 424 62 466 107 c 128,-1,132
 508 152 508 152 508 220 c 0,120,121
EndSplineSet
Ligature2: "'psts' Post Base Substitutions lookup 8 subtable" tm_nna tm_ikaar
EndChar

StartChar: tm_t_ikaar
Encoding: 65550 -1 127
Width: 1116
GlyphClass: 2
Flags: W
LayerCount: 2
Fore
SplineSet
1052 458 m 1,0,-1
 968 458 l 1,1,-1
 968 844 l 2,2,3
 968 1076 968 1076 786 1076 c 0,4,5
 592 1076 592 1076 592 900 c 0,6,7
 592 850 592 850 620 809 c 128,-1,8
 648 768 648 768 692 768 c 2,9,-1
 876 768 l 1,10,-1
 876 686 l 1,11,-1
 606 686 l 1,12,-1
 606 482 l 1,13,-1
 710 482 l 2,14,15
 974 482 974 482 974 162 c 0,16,17
 974 6 974 6 850 -100 c 0,18,19
 738 -194 738 -194 588 -194 c 2,20,-1
 244 -194 l 2,21,22
 188 -194 188 -194 148 -234 c 128,-1,23
 108 -274 108 -274 108 -334 c 2,24,-1
 108 -436 l 1,25,-1
 12 -436 l 1,26,-1
 12 -342 l 2,27,28
 12 -250 12 -250 64 -192 c 0,29,30
 126 -118 126 -118 238 -118 c 2,31,-1
 584 -118 l 2,32,33
 704 -118 704 -118 794 -40 c 128,-1,34
 884 38 884 38 884 162 c 0,35,36
 884 258 884 258 842 324 c 0,37,38
 794 396 794 396 716 396 c 2,39,-1
 606 396 l 1,40,-1
 606 192 l 2,41,42
 606 100 606 100 525 37 c 128,-1,43
 444 -26 444 -26 326 -26 c 0,44,45
 204 -26 204 -26 120 51 c 128,-1,46
 36 128 36 128 36 244 c 0,47,48
 36 332 36 332 89 398 c 128,-1,49
 142 464 142 464 224 482 c 1,50,-1
 224 768 l 1,51,-1
 542 768 l 1,52,53
 494 828 494 828 494 918 c 0,54,55
 494 1026 494 1026 582 1095 c 128,-1,56
 670 1164 670 1164 786 1164 c 0,57,58
 924 1164 924 1164 992 1072 c 0,59,60
 1052 994 1052 994 1052 864 c 2,61,-1
 1052 458 l 1,0,-1
516 482 m 1,62,-1
 516 686 l 1,63,-1
 320 686 l 1,64,-1
 320 482 l 1,65,-1
 516 482 l 1,62,-1
516 212 m 2,66,-1
 516 396 l 1,67,-1
 328 396 l 2,68,69
 134 396 134 396 134 240 c 0,70,71
 134 160 134 160 194 108 c 128,-1,72
 254 56 254 56 334 56 c 256,73,74
 414 56 414 56 465 99 c 128,-1,75
 516 142 516 142 516 212 c 2,66,-1
EndSplineSet
Ligature2: "'psts' Post Base Substitutions lookup 8 subtable" tm_ta tm_ikaar
EndChar

StartChar: tm_n_ikaar
Encoding: 65551 -1 128
Width: 1092
GlyphClass: 2
Flags: W
LayerCount: 2
Fore
SplineSet
1028 448 m 1,0,-1
 938 448 l 1,1,-1
 938 836 l 2,2,3
 938 972 938 972 884 1030 c 0,4,5
 840 1074 840 1074 750 1074 c 0,6,7
 568 1074 568 1074 568 890 c 0,8,9
 568 848 568 848 592 806 c 0,10,11
 618 768 618 768 652 768 c 2,12,-1
 848 768 l 1,13,-1
 848 692 l 1,14,-1
 578 692 l 1,15,-1
 578 446 l 1,16,17
 634 520 634 520 726 520 c 0,18,19
 840 520 840 520 912 412 c 0,20,21
 978 316 978 316 978 192 c 0,22,23
 978 22 978 22 872 -85 c 128,-1,24
 766 -192 766 -192 614 -192 c 2,25,-1
 260 -192 l 2,26,27
 126 -192 126 -192 126 -334 c 2,28,-1
 126 -430 l 1,29,-1
 32 -430 l 1,30,-1
 32 -344 l 2,31,32
 32 -116 32 -116 260 -116 c 2,33,-1
 614 -116 l 2,34,35
 728 -116 728 -116 807 -25 c 128,-1,36
 886 66 886 66 886 192 c 0,37,38
 886 276 886 276 848 344 c 0,39,40
 802 422 802 422 724 422 c 0,41,42
 664 422 664 422 621 385 c 128,-1,43
 578 348 578 348 578 282 c 2,44,-1
 578 0 l 1,45,-1
 482 0 l 1,46,-1
 482 692 l 1,47,-1
 200 692 l 1,48,-1
 200 0 l 1,49,-1
 110 0 l 1,50,-1
 110 768 l 1,51,-1
 514 768 l 1,52,53
 470 812 470 812 470 916 c 0,54,55
 470 1026 470 1026 555 1095 c 128,-1,56
 640 1164 640 1164 764 1164 c 0,57,58
 882 1164 882 1164 955 1091 c 128,-1,59
 1028 1018 1028 1018 1028 878 c 2,60,-1
 1028 448 l 1,0,-1
EndSplineSet
Ligature2: "'psts' Post Base Substitutions lookup 8 subtable" tm_na tm_ikaar
EndChar

StartChar: tm_nnn_ikaar
Encoding: 65552 -1 129
Width: 1816
GlyphClass: 2
Flags: W
LayerCount: 2
Fore
SplineSet
1706 0 m 1,0,-1
 1608 0 l 1,1,-1
 1608 890 l 2,2,3
 1608 978 1608 978 1559 1029 c 128,-1,4
 1510 1080 1510 1080 1434 1080 c 0,5,6
 1240 1080 1240 1080 1240 898 c 0,7,8
 1240 850 1240 850 1264 809 c 128,-1,9
 1288 768 1288 768 1332 768 c 2,10,-1
 1476 768 l 1,11,-1
 1476 692 l 1,12,-1
 1322 692 l 1,13,-1
 1322 0 l 1,14,-1
 1226 0 l 1,15,-1
 1226 692 l 1,16,-1
 1032 692 l 2,17,18
 920 692 920 692 892 656 c 1,19,20
 942 626 942 626 983 520 c 128,-1,21
 1024 414 1024 414 1024 308 c 0,22,23
 1024 180 1024 180 978 88 c 0,24,25
 926 -22 926 -22 836 -22 c 0,26,27
 752 -22 752 -22 694 90 c 0,28,29
 672 136 672 136 658 195 c 128,-1,30
 644 254 644 254 644 316 c 0,31,32
 644 520 644 520 754 642 c 1,33,34
 654 704 654 704 538 704 c 0,35,36
 370 704 370 704 254 588 c 128,-1,37
 138 472 138 472 138 318 c 0,38,39
 138 268 138 268 152 220 c 1,40,41
 152 308 152 308 213 371 c 128,-1,42
 274 434 274 434 372 434 c 0,43,44
 460 434 460 434 522 369 c 128,-1,45
 584 304 584 304 584 208 c 256,46,47
 584 112 584 112 515 43 c 128,-1,48
 446 -26 446 -26 350 -26 c 256,49,50
 254 -26 254 -26 164 66 c 0,51,52
 64 170 64 170 64 324 c 0,53,54
 64 514 64 514 203 646 c 128,-1,55
 342 778 342 778 538 778 c 0,56,57
 708 778 708 778 824 708 c 1,58,59
 840 724 840 724 900 748 c 1,60,61
 964 768 964 768 998 768 c 2,62,-1
 1190 768 l 1,63,64
 1144 824 1144 824 1144 922 c 0,65,66
 1144 1022 1144 1022 1234 1098 c 0,67,68
 1318 1164 1318 1164 1434 1164 c 0,69,70
 1496 1164 1496 1164 1542 1148 c 128,-1,71
 1588 1132 1588 1132 1628 1094 c 0,72,73
 1706 1018 1706 1018 1706 890 c 2,74,-1
 1706 0 l 1,0,-1
940 320 m 0,75,76
 940 500 940 500 824 608 c 1,77,78
 726 510 726 510 726 304 c 0,79,80
 726 216 726 216 761 139 c 128,-1,81
 796 62 796 62 844 62 c 0,82,83
 884 62 884 62 914 144 c 0,84,85
 940 226 940 226 940 320 c 0,75,76
516 202 m 0,86,87
 516 268 516 268 474 316 c 128,-1,88
 432 364 432 364 366 364 c 0,89,90
 302 364 302 364 258 317 c 128,-1,91
 214 270 214 270 214 202 c 256,92,93
 214 134 214 134 256 87 c 128,-1,94
 298 40 298 40 366 40 c 256,95,96
 434 40 434 40 475 86 c 128,-1,97
 516 132 516 132 516 202 c 0,86,87
EndSplineSet
Ligature2: "'psts' Post Base Substitutions lookup 8 subtable" tm_nnna tm_ikaar
EndChar

StartChar: tm_p_ikaar
Encoding: 65553 -1 130
Width: 1302
GlyphClass: 2
Flags: W
LayerCount: 2
Fore
SplineSet
1194 0 m 1,0,-1
 1098 0 l 1,1,-1
 1098 810 l 2,2,3
 1098 934 1098 934 1031 1003 c 128,-1,4
 964 1072 964 1072 854 1072 c 0,5,6
 732 1072 732 1072 661 1008 c 128,-1,7
 590 944 590 944 590 840 c 0,8,9
 590 624 590 624 824 624 c 1,10,-1
 824 768 l 1,11,-1
 922 768 l 1,12,-1
 922 0 l 1,13,-1
 110 0 l 1,14,-1
 110 768 l 1,15,-1
 200 768 l 1,16,-1
 200 72 l 1,17,-1
 824 72 l 1,18,-1
 824 542 l 1,19,-1
 778 538 l 1,20,21
 672 538 672 538 588 616 c 0,22,23
 498 700 498 700 498 836 c 0,24,25
 498 978 498 978 589 1071 c 128,-1,26
 680 1164 680 1164 840 1164 c 0,27,28
 1194 1164 1194 1164 1194 810 c 2,29,-1
 1194 0 l 1,0,-1
EndSplineSet
Ligature2: "'psts' Post Base Substitutions lookup 8 subtable" tm_pa tm_ikaar
EndChar

StartChar: tm_m_ikaar
Encoding: 65554 -1 131
Width: 1544
GlyphClass: 2
Flags: W
LayerCount: 2
Fore
SplineSet
1434 0 m 1,0,-1
 1336 0 l 1,1,-1
 1336 842 l 2,2,3
 1336 958 1336 958 1270 1034 c 128,-1,4
 1204 1110 1204 1110 1096 1110 c 0,5,6
 1006 1110 1006 1110 939 1057 c 128,-1,7
 872 1004 872 1004 872 922 c 0,8,9
 872 842 872 842 920 784 c 1,10,11
 976 784 976 784 1022 757 c 128,-1,12
 1068 730 1068 730 1108 678 c 0,13,14
 1188 568 1188 568 1188 386 c 0,15,16
 1188 222 1188 222 1106 116 c 0,17,18
 1018 0 1018 0 864 0 c 2,19,-1
 110 0 l 1,20,-1
 110 768 l 1,21,-1
 206 768 l 1,22,-1
 206 80 l 1,23,-1
 572 80 l 1,24,-1
 572 526 l 2,25,26
 572 652 572 652 639 718 c 128,-1,27
 706 784 706 784 820 784 c 1,28,29
 786 828 786 828 786 906 c 0,30,31
 786 1038 786 1038 878 1118 c 0,32,33
 962 1190 962 1190 1102 1190 c 0,34,35
 1240 1190 1240 1190 1337 1092 c 128,-1,36
 1434 994 1434 994 1434 852 c 2,37,-1
 1434 0 l 1,0,-1
1106 402 m 0,38,39
 1106 532 1106 532 1041 622 c 128,-1,40
 976 712 976 712 862 712 c 0,41,42
 668 712 668 712 668 538 c 2,43,-1
 668 78 l 1,44,-1
 860 78 l 2,45,46
 976 78 976 78 1041 165 c 128,-1,47
 1106 252 1106 252 1106 402 c 0,38,39
EndSplineSet
Ligature2: "'psts' Post Base Substitutions lookup 8 subtable" tm_ma tm_ikaar
EndChar

StartChar: tm_y_ikaar
Encoding: 65555 -1 132
Width: 1586
GlyphClass: 2
Flags: W
LayerCount: 2
Fore
SplineSet
1478 0 m 1,0,-1
 1386 0 l 1,1,-1
 1386 826 l 2,2,3
 1386 928 1386 928 1321 1000 c 128,-1,4
 1256 1072 1256 1072 1148 1072 c 0,5,6
 1030 1072 1030 1072 954 1007 c 128,-1,7
 878 942 878 942 878 838 c 0,8,9
 878 730 878 730 936 672 c 0,10,11
 986 622 986 622 1068 622 c 1,12,-1
 1114 626 l 1,13,-1
 1114 768 l 1,14,-1
 1210 768 l 1,15,-1
 1210 0 l 1,16,-1
 458 0 l 1,17,-1
 458 86 l 1,18,19
 380 -14 380 -14 294 -14 c 0,20,21
 210 -14 210 -14 160 51 c 128,-1,22
 110 116 110 116 110 204 c 2,23,-1
 110 768 l 1,24,-1
 208 768 l 1,25,-1
 208 200 l 2,26,27
 208 86 208 86 308 86 c 0,28,29
 378 86 378 86 418 144 c 128,-1,30
 458 202 458 202 458 286 c 2,31,-1
 458 768 l 1,32,-1
 560 768 l 1,33,-1
 560 80 l 1,34,-1
 1114 80 l 1,35,-1
 1114 538 l 1,36,-1
 1066 534 l 1,37,38
 958 534 958 534 873 616 c 128,-1,39
 788 698 788 698 788 828 c 0,40,41
 788 974 788 974 874 1062 c 0,42,43
 972 1160 972 1160 1152 1160 c 0,44,45
 1310 1160 1310 1160 1394 1065 c 128,-1,46
 1478 970 1478 970 1478 802 c 2,47,-1
 1478 0 l 1,0,-1
EndSplineSet
Ligature2: "'psts' Post Base Substitutions lookup 8 subtable" tm_ya tm_ikaar
EndChar

StartChar: tm_r_ikaar
Encoding: 65556 -1 133
Width: 1076
GlyphClass: 2
Flags: W
LayerCount: 2
Fore
SplineSet
860 690 m 1,0,-1
 610 690 l 1,1,-1
 610 -4 l 1,2,-1
 122 -238 l 1,3,-1
 78 -154 l 1,4,-1
 514 57 l 1,5,-1
 514 690 l 1,6,-1
 206 690 l 1,7,-1
 206 0 l 1,8,-1
 110 0 l 1,9,-1
 110 768 l 1,10,-1
 454 768 l 1,11,12
 434 798 434 798 424 833 c 128,-1,13
 414 868 414 868 414 916 c 0,14,15
 414 1022 414 1022 492 1088 c 0,16,17
 532 1120 532 1120 582 1136 c 128,-1,18
 632 1152 632 1152 704 1152 c 0,19,20
 966 1152 966 1152 966 854 c 2,21,-1
 966 0 l 1,22,-1
 876 0 l 1,23,-1
 876 852 l 2,24,25
 876 1070 876 1070 704 1070 c 0,26,27
 620 1070 620 1070 563 1025 c 128,-1,28
 506 980 506 980 506 890 c 0,29,30
 506 848 506 848 530 806 c 0,31,32
 556 768 556 768 588 768 c 2,33,-1
 860 768 l 1,34,-1
 860 690 l 1,0,-1
EndSplineSet
Ligature2: "'psts' Post Base Substitutions lookup 8 subtable" tm_ra tm_ikaar
EndChar

StartChar: tm_rr_ikaar
Encoding: 65557 -1 134
Width: 1326
GlyphClass: 2
Flags: W
LayerCount: 2
Fore
SplineSet
1216 0 m 1,0,-1
 1130 0 l 1,1,-1
 1130 900 l 2,2,3
 1130 976 1130 976 1076 1036 c 128,-1,4
 1022 1096 1022 1096 944 1096 c 0,5,6
 718 1096 718 1096 718 922 c 0,7,8
 718 844 718 844 782 780 c 1,9,10
 994 708 994 708 994 368 c 0,11,12
 994 -198 994 -198 522 -198 c 2,13,-1
 268 -198 l 2,14,15
 212 -198 212 -198 175 -239 c 128,-1,16
 138 -280 138 -280 138 -348 c 2,17,-1
 138 -436 l 1,18,-1
 56 -436 l 1,19,-1
 56 -300 l 2,20,21
 56 -234 56 -234 110 -176 c 1,22,23
 166 -124 166 -124 260 -124 c 2,24,-1
 508 -124 l 2,25,26
 912 -124 912 -124 912 372 c 0,27,28
 912 532 912 532 852 624 c 128,-1,29
 792 716 792 716 700 716 c 0,30,31
 628 716 628 716 579 679 c 128,-1,32
 530 642 530 642 530 582 c 2,33,-1
 530 -4 l 1,34,-1
 440 -4 l 1,35,-1
 440 578 l 2,36,37
 440 632 440 632 406 668 c 1,38,39
 376 708 376 708 318 708 c 0,40,41
 268 708 268 708 237 665 c 128,-1,42
 206 622 206 622 206 570 c 2,43,-1
 206 -4 l 1,44,-1
 110 -4 l 1,45,-1
 110 578 l 2,46,47
 110 662 110 662 166 724 c 128,-1,48
 222 786 222 786 318 786 c 0,49,50
 444 786 444 786 500 698 c 1,51,52
 530 774 530 774 658 794 c 1,53,54
 622 842 622 842 622 922 c 0,55,56
 622 1044 622 1044 710 1114 c 128,-1,57
 798 1184 798 1184 942 1184 c 0,58,59
 1066 1184 1066 1184 1141 1104 c 128,-1,60
 1216 1024 1216 1024 1216 886 c 2,61,-1
 1216 0 l 1,0,-1
EndSplineSet
Ligature2: "'psts' Post Base Substitutions lookup 8 subtable" tm_rra tm_ikaar
EndChar

StartChar: tm_l_ikaar
Encoding: 65558 -1 135
Width: 1554
GlyphClass: 2
Flags: W
LayerCount: 2
Fore
SplineSet
1442 0 m 1,0,-1
 1358 0 l 1,1,-1
 1358 828 l 2,2,3
 1358 1120 1358 1120 1122 1120 c 0,4,5
 1028 1120 1028 1120 965 1069 c 128,-1,6
 902 1018 902 1018 902 938 c 0,7,8
 902 836 902 836 948 810 c 1,9,-1
 1048 774 l 1,10,11
 1224 670 1224 670 1224 408 c 0,12,13
 1224 222 1224 222 1142 112 c 128,-1,14
 1060 2 1060 2 912 2 c 0,15,16
 824 2 824 2 756 59 c 128,-1,17
 688 116 688 116 688 200 c 2,18,-1
 688 556 l 2,19,20
 688 650 688 650 625 700 c 128,-1,21
 562 750 562 750 470 750 c 0,22,23
 312 750 312 750 222 642 c 1,24,25
 142 538 142 538 142 372 c 0,26,27
 142 220 142 220 192 184 c 1,28,-1
 184 240 l 1,29,30
 184 320 184 320 246 376 c 128,-1,31
 308 432 308 432 396 432 c 0,32,33
 478 432 478 432 536 369 c 128,-1,34
 594 306 594 306 594 222 c 0,35,36
 594 130 594 130 532 67 c 128,-1,37
 470 4 470 4 372 4 c 0,38,39
 246 4 246 4 158 92 c 0,40,41
 64 192 64 192 64 368 c 0,42,43
 64 592 64 592 173 704 c 128,-1,44
 282 816 282 816 474 816 c 0,45,46
 774 816 774 816 774 548 c 2,47,-1
 774 232 l 2,48,49
 774 82 774 82 926 82 c 0,50,51
 1030 82 1030 82 1090 178 c 0,52,53
 1142 264 1142 264 1142 402 c 0,54,55
 1142 532 1142 532 1088 626 c 0,56,57
 1024 732 1024 732 908 732 c 0,58,59
 878 732 878 732 865 730 c 128,-1,60
 852 728 852 728 816 716 c 1,61,-1
 816 804 l 1,62,-1
 854 810 l 1,63,64
 814 832 814 832 814 930 c 0,65,66
 814 1046 814 1046 901 1123 c 128,-1,67
 988 1200 988 1200 1126 1200 c 0,68,69
 1278 1200 1278 1200 1360 1107 c 128,-1,70
 1442 1014 1442 1014 1442 864 c 2,71,-1
 1442 0 l 1,0,-1
524 220 m 256,72,73
 524 276 524 276 484 316 c 128,-1,74
 444 356 444 356 388 356 c 256,75,76
 332 356 332 356 293 315 c 128,-1,77
 254 274 254 274 254 220 c 0,78,79
 254 164 254 164 293 124 c 128,-1,80
 332 84 332 84 388 84 c 256,81,82
 444 84 444 84 484 124 c 128,-1,83
 524 164 524 164 524 220 c 256,72,73
EndSplineSet
Ligature2: "'psts' Post Base Substitutions lookup 8 subtable" tm_la tm_ikaar
EndChar

StartChar: tm_ll_ikaar
Encoding: 65559 -1 136
Width: 1732
GlyphClass: 2
Flags: W
LayerCount: 2
Fore
SplineSet
1622 0 m 1,0,-1
 1524 0 l 1,1,-1
 1524 846 l 2,2,3
 1524 1082 1524 1082 1346 1082 c 0,4,5
 1264 1082 1264 1082 1210 1030 c 128,-1,6
 1156 978 1156 978 1156 902 c 0,7,8
 1156 768 1156 768 1260 768 c 2,9,-1
 1424 768 l 1,10,-1
 1424 684 l 1,11,-1
 1220 684 l 1,12,-1
 1220 0 l 1,13,-1
 1116 0 l 1,14,-1
 1116 684 l 1,15,-1
 834 684 l 1,16,-1
 834 0 l 1,17,-1
 732 0 l 1,18,-1
 732 508 l 2,19,20
 732 606 732 606 657 662 c 128,-1,21
 582 718 582 718 456 718 c 0,22,23
 324 718 324 718 235 631 c 128,-1,24
 146 544 146 544 146 384 c 0,25,26
 146 308 146 308 176 238 c 1,27,28
 176 346 176 346 241 405 c 128,-1,29
 306 464 306 464 402 464 c 256,30,31
 498 464 498 464 563 400 c 128,-1,32
 628 336 628 336 628 224 c 0,33,34
 628 128 628 128 557 55 c 128,-1,35
 486 -18 486 -18 386 -18 c 0,36,37
 242 -18 242 -18 153 91 c 128,-1,38
 64 200 64 200 64 366 c 0,39,40
 64 570 64 570 167 679 c 128,-1,41
 270 788 270 788 450 788 c 0,42,43
 672 788 672 788 758 660 c 1,44,-1
 758 768 l 1,45,-1
 1104 768 l 1,46,47
 1060 802 1060 802 1060 904 c 0,48,49
 1060 1018 1060 1018 1139 1091 c 128,-1,50
 1218 1164 1218 1164 1352 1164 c 0,51,52
 1464 1164 1464 1164 1543 1094 c 128,-1,53
 1622 1024 1622 1024 1622 892 c 2,54,-1
 1622 0 l 1,0,-1
550 220 m 256,55,56
 550 286 550 286 504 332 c 128,-1,57
 458 378 458 378 394 378 c 0,58,59
 326 378 326 378 281 333 c 128,-1,60
 236 288 236 288 236 220 c 0,61,62
 236 154 236 154 280 108 c 1,63,64
 328 64 328 64 394 64 c 0,65,66
 458 64 458 64 504 109 c 128,-1,67
 550 154 550 154 550 220 c 256,55,56
EndSplineSet
Ligature2: "'psts' Post Base Substitutions lookup 8 subtable" tm_lla tm_ikaar
EndChar

StartChar: tm_lll_ikaar
Encoding: 65560 -1 137
Width: 1488
GlyphClass: 2
Flags: W
LayerCount: 2
Fore
SplineSet
1378 0 m 1,0,-1
 1284 0 l 1,1,-1
 1284 796 l 2,2,3
 1284 938 1284 938 1222 1018 c 128,-1,4
 1160 1098 1160 1098 1050 1098 c 0,5,6
 954 1098 954 1098 887 1043 c 128,-1,7
 820 988 820 988 820 918 c 0,8,9
 820 840 820 840 868 780 c 1,10,11
 1158 732 1158 732 1158 382 c 0,12,13
 1158 190 1158 190 1058 90 c 0,14,15
 970 0 970 0 822 0 c 2,16,-1
 656 0 l 1,17,18
 662 -58 662 -58 716 -104 c 0,19,20
 770 -146 770 -146 852 -146 c 2,21,-1
 1046 -146 l 1,22,-1
 1046 -230 l 1,23,-1
 896 -230 l 2,24,25
 786 -230 786 -230 712 -304 c 1,26,-1
 594 -444 l 1,27,28
 514 -518 514 -518 392 -518 c 0,29,30
 264 -518 264 -518 182 -440 c 0,31,32
 140 -398 140 -398 123 -341 c 128,-1,33
 106 -284 106 -284 106 -198 c 1,34,-1
 194 -198 l 1,35,-1
 190 -240 l 1,36,37
 190 -320 190 -320 243 -379 c 128,-1,38
 296 -438 296 -438 396 -438 c 0,39,40
 472 -438 472 -438 538 -384 c 0,41,42
 552 -372 552 -372 626 -280 c 0,43,44
 674 -220 674 -220 718 -208 c 1,45,46
 656 -188 656 -188 609 -131 c 128,-1,47
 562 -74 562 -74 562 0 c 1,48,-1
 110 0 l 1,49,-1
 110 768 l 1,50,-1
 200 768 l 1,51,-1
 200 84 l 1,52,-1
 558 84 l 1,53,-1
 558 510 l 2,54,55
 558 642 558 642 615 713 c 128,-1,56
 672 784 672 784 784 784 c 1,57,58
 734 800 734 800 734 914 c 0,59,60
 734 1026 734 1026 826 1104 c 1,61,62
 922 1178 922 1178 1058 1178 c 256,63,64
 1194 1178 1194 1178 1286 1077 c 128,-1,65
 1378 976 1378 976 1378 826 c 2,66,-1
 1378 0 l 1,0,-1
1072 386 m 0,67,68
 1072 542 1072 542 1003 624 c 128,-1,69
 934 706 934 706 824 706 c 0,70,71
 758 706 758 706 705 659 c 128,-1,72
 652 612 652 612 652 540 c 2,73,-1
 652 84 l 1,74,-1
 830 84 l 2,75,76
 952 84 952 84 1018 182 c 0,77,78
 1072 260 1072 260 1072 386 c 0,67,68
EndSplineSet
Ligature2: "'psts' Post Base Substitutions lookup 8 subtable" tm_llla tm_ikaar
EndChar

StartChar: tm_v_ikaar
Encoding: 65561 -1 138
Width: 1658
GlyphClass: 2
Flags: W
LayerCount: 2
Fore
SplineSet
1546 0 m 1,0,-1
 1462 0 l 1,1,-1
 1462 768 l 2,2,3
 1462 1078 1462 1078 1210 1078 c 0,4,5
 1094 1078 1094 1078 1023 1016 c 128,-1,6
 952 954 952 954 952 838 c 0,7,8
 952 628 952 628 1186 628 c 1,9,-1
 1186 768 l 1,10,-1
 1276 768 l 1,11,-1
 1276 0 l 1,12,-1
 696 0 l 1,13,-1
 696 72 l 1,14,15
 774 80 774 80 831 171 c 128,-1,16
 888 262 888 262 888 400 c 0,17,18
 888 540 888 540 784 635 c 128,-1,19
 680 730 680 730 534 730 c 0,20,21
 338 730 338 730 234 624 c 0,22,23
 140 526 140 526 140 360 c 0,24,25
 140 230 140 230 206 164 c 1,26,27
 194 206 194 206 194 230 c 0,28,29
 194 322 194 322 262 387 c 128,-1,30
 330 452 330 452 424 452 c 256,31,32
 518 452 518 452 586 384 c 128,-1,33
 654 316 654 316 654 222 c 0,34,35
 654 126 654 126 583 57 c 128,-1,36
 512 -12 512 -12 418 -12 c 0,37,38
 276 -12 276 -12 170 103 c 128,-1,39
 64 218 64 218 64 384 c 0,40,41
 64 580 64 580 202 698 c 0,42,43
 332 806 332 806 530 806 c 0,44,45
 734 806 734 806 854 684 c 0,46,47
 968 570 968 570 968 388 c 0,48,49
 968 204 968 204 852 80 c 1,50,-1
 1186 80 l 1,51,-1
 1186 542 l 1,52,-1
 1140 538 l 1,53,54
 1032 538 1032 538 948 616 c 0,55,56
 856 702 856 702 856 824 c 0,57,58
 856 990 856 990 964 1084 c 0,59,60
 1062 1170 1062 1170 1216 1170 c 0,61,62
 1372 1170 1372 1170 1459 1075 c 128,-1,63
 1546 980 1546 980 1546 798 c 2,64,-1
 1546 0 l 1,0,-1
584 218 m 0,65,66
 584 278 584 278 536 328 c 128,-1,67
 488 378 488 378 424 378 c 256,68,69
 360 378 360 378 313 331 c 128,-1,70
 266 284 266 284 266 218 c 0,71,72
 266 154 266 154 312 108 c 0,73,74
 334 88 334 88 362 76 c 128,-1,75
 390 64 390 64 424 64 c 0,76,77
 486 64 486 64 535 109 c 128,-1,78
 584 154 584 154 584 218 c 0,65,66
EndSplineSet
Ligature2: "'psts' Post Base Substitutions lookup 8 subtable" tm_va tm_ikaar
EndChar

StartChar: tm_ss_ikaar
Encoding: 65562 -1 139
Width: 1924
GlyphClass: 2
Flags: W
LayerCount: 2
Fore
SplineSet
1814 0 m 1,0,-1
 1720 0 l 1,1,-1
 1720 892 l 2,2,3
 1720 1104 1720 1104 1532 1104 c 0,4,5
 1322 1104 1322 1104 1322 928 c 0,6,7
 1322 842 1322 842 1392 780 c 1,8,-1
 1522 682 l 1,9,10
 1592 612 1592 612 1592 496 c 0,11,12
 1592 406 1592 406 1528 328 c 1,13,14
 1496 282 1496 282 1398 202 c 0,15,16
 1312 130 1312 130 1282 80 c 1,17,-1
 1698 80 l 1,18,-1
 1698 0 l 1,19,-1
 1254 0 l 1,20,21
 1248 -22 1248 -22 1244 -43 c 128,-1,22
 1240 -64 1240 -64 1240 -88 c 0,23,24
 1240 -246 1240 -246 1392 -330 c 1,25,-1
 1336 -404 l 1,26,27
 1258 -362 1258 -362 1204 -272 c 128,-1,28
 1150 -182 1150 -182 1150 -84 c 0,29,30
 1150 -42 1150 -42 1162 0 c 1,31,-1
 696 0 l 1,32,-1
 696 72 l 1,33,34
 756 78 756 78 808 142 c 0,35,36
 878 224 878 224 878 366 c 0,37,38
 878 522 878 522 779 620 c 128,-1,39
 680 718 680 718 524 718 c 0,40,41
 354 718 354 718 244 622 c 128,-1,42
 134 526 134 526 134 368 c 0,43,44
 134 312 134 312 156 245 c 128,-1,45
 178 178 178 178 208 154 c 1,46,-1
 196 220 l 1,47,48
 196 314 196 314 263 377 c 128,-1,49
 330 440 330 440 424 440 c 0,50,51
 520 440 520 440 583 379 c 128,-1,52
 646 318 646 318 646 206 c 0,53,54
 646 114 646 114 579 51 c 128,-1,55
 512 -12 512 -12 418 -12 c 0,56,57
 282 -12 282 -12 180 88 c 0,58,59
 64 198 64 198 64 376 c 0,60,61
 64 566 64 566 200 684 c 0,62,63
 264 738 264 738 343 766 c 128,-1,64
 422 794 422 794 520 794 c 0,65,66
 724 794 724 794 846 670 c 0,67,68
 958 554 958 554 958 370 c 0,69,70
 958 264 958 264 930 206 c 0,71,72
 910 156 910 156 848 80 c 1,73,-1
 1188 80 l 1,74,75
 1200 108 1200 108 1237 154 c 128,-1,76
 1274 200 1274 200 1300 212 c 1,77,78
 1212 224 1212 224 1136 280 c 0,79,80
 1028 358 1028 358 1028 494 c 0,81,82
 1028 756 1028 756 1276 776 c 1,83,84
 1226 854 1226 854 1226 918 c 0,85,86
 1226 1040 1226 1040 1305 1115 c 128,-1,87
 1384 1190 1384 1190 1538 1190 c 0,88,89
 1668 1190 1668 1190 1746 1104 c 0,90,91
 1814 1024 1814 1024 1814 902 c 2,92,-1
 1814 0 l 1,0,-1
1504 502 m 0,93,94
 1504 584 1504 584 1455 640 c 128,-1,95
 1406 696 1406 696 1316 696 c 0,96,97
 1266 696 1266 696 1230 684 c 128,-1,98
 1194 672 1194 672 1164 644 c 0,99,100
 1110 592 1110 592 1110 514 c 0,101,102
 1110 320 1110 320 1340 278 c 1,103,104
 1504 332 1504 332 1504 502 c 0,93,94
576 212 m 0,105,106
 576 276 576 276 530 320 c 1,107,108
 488 366 488 366 422 366 c 0,109,110
 358 366 358 366 313 321 c 128,-1,111
 268 276 268 276 268 212 c 256,112,113
 268 148 268 148 312 104 c 0,114,115
 334 82 334 82 361 71 c 128,-1,116
 388 60 388 60 422 60 c 0,117,118
 486 60 486 60 531 103 c 128,-1,119
 576 146 576 146 576 212 c 0,105,106
EndSplineSet
Ligature2: "'psts' Post Base Substitutions lookup 8 subtable" tm_ssa tm_ikaar
EndChar

StartChar: tm_s_ikaar
Encoding: 65563 -1 140
Width: 1996
GlyphClass: 2
Flags: W
LayerCount: 2
Fore
SplineSet
1886 0 m 1,0,-1
 1786 0 l 1,1,-1
 1786 858 l 2,2,3
 1786 950 1786 950 1728 1020 c 0,4,5
 1660 1106 1660 1106 1544 1106 c 0,6,7
 1442 1106 1442 1106 1376 1046 c 0,8,9
 1322 994 1322 994 1322 924 c 0,10,11
 1322 810 1322 810 1404 764 c 1,12,13
 1506 752 1506 752 1578 668 c 0,14,15
 1672 558 1672 558 1672 364 c 0,16,17
 1672 284 1672 284 1654 219 c 128,-1,18
 1636 154 1636 154 1596 98 c 0,19,20
 1508 -24 1508 -24 1354 -24 c 0,21,22
 1230 -24 1230 -24 1164 54 c 0,23,24
 1114 116 1114 116 1114 216 c 2,25,-1
 1114 590 l 2,26,27
 1114 644 1114 644 1073 676 c 128,-1,28
 1032 708 1032 708 978 708 c 0,29,30
 922 708 922 708 878 678 c 128,-1,31
 834 648 834 648 834 598 c 2,32,-1
 834 0 l 1,33,-1
 734 0 l 1,34,-1
 734 508 l 2,35,36
 734 712 734 712 464 712 c 0,37,38
 330 712 330 712 238 610 c 128,-1,39
 146 508 146 508 146 352 c 0,40,41
 146 224 146 224 208 162 c 1,42,-1
 202 226 l 1,43,44
 202 322 202 322 262 382 c 128,-1,45
 322 442 322 442 430 442 c 0,46,47
 532 442 532 442 596 370 c 0,48,49
 650 304 650 304 650 206 c 256,50,51
 650 108 650 108 580 44 c 128,-1,52
 510 -20 510 -20 410 -20 c 0,53,54
 254 -20 254 -20 159 93 c 128,-1,55
 64 206 64 206 64 364 c 0,56,57
 64 566 64 566 184 676 c 128,-1,58
 304 786 304 786 508 786 c 0,59,60
 668 786 668 786 776 664 c 1,61,62
 806 788 806 788 992 788 c 0,63,64
 1214 788 1214 788 1214 538 c 2,65,-1
 1214 184 l 2,66,67
 1214 122 1214 122 1263 83 c 128,-1,68
 1312 44 1312 44 1366 44 c 0,69,70
 1442 44 1442 44 1514 134 c 128,-1,71
 1586 224 1586 224 1586 364 c 0,72,73
 1586 680 1586 680 1350 680 c 0,74,75
 1296 680 1296 680 1268 666 c 1,76,-1
 1268 768 l 1,77,-1
 1284 768 l 1,78,79
 1232 820 1232 820 1232 924 c 0,80,81
 1232 1036 1232 1036 1323 1111 c 128,-1,82
 1414 1186 1414 1186 1544 1186 c 0,83,84
 1696 1186 1696 1186 1796 1078 c 0,85,86
 1886 978 1886 978 1886 834 c 2,87,-1
 1886 0 l 1,0,-1
576 214 m 0,88,89
 576 274 576 274 532 319 c 128,-1,90
 488 364 488 364 426 364 c 256,91,92
 364 364 364 364 319 320 c 128,-1,93
 274 276 274 276 274 214 c 256,94,95
 274 152 274 152 318 106 c 1,96,97
 366 62 366 62 426 62 c 0,98,99
 492 62 492 62 534 105 c 128,-1,100
 576 148 576 148 576 214 c 0,88,89
EndSplineSet
Ligature2: "'psts' Post Base Substitutions lookup 8 subtable" tm_sa tm_ikaar
EndChar

StartChar: tm_h_ikaar
Encoding: 65564 -1 141
Width: 2292
GlyphClass: 2
Flags: W
LayerCount: 2
Fore
SplineSet
2180 0 m 1,0,-1
 2090 0 l 1,1,-1
 2090 888 l 2,2,3
 2090 1010 2090 1010 2022 1072 c 0,4,5
 1970 1118 1970 1118 1900 1118 c 0,6,7
 1826 1118 1826 1118 1768 1080 c 0,8,9
 1690 1032 1690 1032 1690 936 c 0,10,11
 1690 858 1690 858 1762 792 c 0,12,13
 1866 700 1866 700 1892 662 c 0,14,15
 1964 554 1964 554 1964 358 c 0,16,17
 1964 -192 1964 -192 1470 -192 c 2,18,-1
 248 -192 l 2,19,20
 188 -192 188 -192 156 -238 c 0,21,22
 150 -248 150 -248 140 -272 c 128,-1,23
 130 -296 130 -296 130 -326 c 2,24,-1
 130 -422 l 1,25,-1
 34 -422 l 1,26,-1
 34 -344 l 2,27,28
 34 -254 34 -254 90 -185 c 128,-1,29
 146 -116 146 -116 236 -116 c 2,30,-1
 1442 -116 l 2,31,32
 1688 -116 1688 -116 1792 12 c 0,33,34
 1878 122 1878 122 1878 344 c 0,35,36
 1878 706 1878 706 1662 706 c 0,37,38
 1614 706 1614 706 1566 682 c 0,39,40
 1496 646 1496 646 1496 572 c 2,41,-1
 1496 0 l 1,42,-1
 1406 0 l 1,43,-1
 1406 562 l 2,44,45
 1406 624 1406 624 1375 664 c 128,-1,46
 1344 704 1344 704 1290 704 c 256,47,48
 1236 704 1236 704 1206 662 c 128,-1,49
 1176 620 1176 620 1176 562 c 2,50,-1
 1176 0 l 1,51,-1
 696 0 l 1,52,-1
 696 64 l 1,53,54
 762 80 762 80 812 140 c 0,55,56
 844 180 844 180 860 230 c 128,-1,57
 876 280 876 280 876 352 c 0,58,59
 876 526 876 526 762 622 c 0,60,61
 664 704 664 704 522 704 c 0,62,63
 338 704 338 704 238 612 c 128,-1,64
 138 520 138 520 138 358 c 0,65,66
 138 244 138 244 206 146 c 1,67,-1
 198 226 l 1,68,69
 198 314 198 314 265 373 c 128,-1,70
 332 432 332 432 422 432 c 0,71,72
 514 432 514 432 580 366 c 128,-1,73
 646 300 646 300 646 206 c 0,74,75
 646 124 646 124 592 58 c 0,76,77
 528 -16 528 -16 414 -16 c 0,78,79
 282 -16 282 -16 176 88 c 0,80,81
 64 200 64 200 64 364 c 0,82,83
 64 564 64 564 210 680 c 0,84,85
 338 778 338 778 510 778 c 0,86,87
 704 778 704 778 831 661 c 128,-1,88
 958 544 958 544 958 364 c 0,89,90
 958 178 958 178 842 70 c 1,91,-1
 1088 70 l 1,92,-1
 1088 594 l 2,93,94
 1088 676 1088 676 1148 728 c 0,95,96
 1208 776 1208 776 1296 776 c 0,97,98
 1344 776 1344 776 1395 751 c 128,-1,99
 1446 726 1446 726 1464 688 c 1,100,101
 1480 726 1480 726 1534 752 c 128,-1,102
 1588 778 1588 778 1632 778 c 0,103,104
 1646 776 1646 776 1652 776 c 1,105,106
 1596 870 1596 870 1596 922 c 0,107,108
 1596 1064 1596 1064 1704 1142 c 0,109,110
 1788 1198 1788 1198 1900 1198 c 0,111,112
 2016 1198 2016 1198 2098 1126 c 128,-1,113
 2180 1054 2180 1054 2180 928 c 2,114,-1
 2180 0 l 1,0,-1
574 210 m 0,115,116
 574 274 574 274 528 318 c 1,117,118
 486 364 486 364 422 364 c 256,119,120
 358 364 358 364 313 319 c 128,-1,121
 268 274 268 274 268 210 c 256,122,123
 268 146 268 146 312 102 c 0,124,125
 334 80 334 80 361 69 c 128,-1,126
 388 58 388 58 422 58 c 0,127,128
 486 58 486 58 530 104 c 128,-1,129
 574 150 574 150 574 210 c 0,115,116
EndSplineSet
Ligature2: "'psts' Post Base Substitutions lookup 8 subtable" tm_ha tm_ikaar
EndChar

StartChar: tm_k_iikaar
Encoding: 65565 -1 142
Width: 1030
GlyphClass: 2
Flags: W
LayerCount: 2
Fore
SplineSet
994 238 m 0,0,1
 994 130 994 130 927 56 c 128,-1,2
 860 -18 860 -18 740 -18 c 0,3,4
 718 -18 718 -18 646 0 c 1,5,-1
 666 78 l 1,6,7
 712 58 712 58 746 58 c 0,8,9
 810 58 810 58 864 114 c 1,10,11
 914 174 914 174 914 242 c 0,12,13
 914 404 914 404 738 404 c 2,14,-1
 610 404 l 1,15,-1
 610 224 l 2,16,17
 610 120 610 120 533 51 c 128,-1,18
 456 -18 456 -18 344 -18 c 0,19,20
 226 -18 226 -18 134 56 c 0,21,22
 36 136 36 136 36 244 c 0,23,24
 36 456 36 456 200 476 c 1,25,-1
 200 768 l 1,26,-1
 474 768 l 1,27,28
 412 776 412 776 368 842 c 1,29,30
 328 910 328 910 328 1002 c 0,31,32
 328 1130 328 1130 415 1203 c 128,-1,33
 502 1276 502 1276 644 1276 c 0,34,35
 754 1276 754 1276 828 1218 c 128,-1,36
 902 1160 902 1160 902 1072 c 0,37,38
 902 994 902 994 852 938 c 128,-1,39
 802 882 802 882 716 882 c 0,40,41
 636 882 636 882 578 928 c 128,-1,42
 520 974 520 974 520 1054 c 0,43,44
 520 1138 520 1138 596 1194 c 1,45,46
 534 1194 534 1194 478 1138 c 1,47,48
 422 1076 422 1076 422 988 c 0,49,50
 422 892 422 892 498 828 c 1,51,52
 576 768 576 768 680 768 c 2,53,-1
 892 768 l 1,54,-1
 892 682 l 1,55,-1
 610 682 l 1,56,-1
 610 478 l 1,57,-1
 772 478 l 2,58,59
 994 478 994 478 994 238 c 0,0,1
810 1062 m 256,60,61
 810 1104 810 1104 781 1135 c 128,-1,62
 752 1166 752 1166 712 1166 c 256,63,64
 672 1166 672 1166 643 1134 c 128,-1,65
 614 1102 614 1102 614 1062 c 0,66,67
 614 1018 614 1018 642 990 c 128,-1,68
 670 962 670 962 712 962 c 0,69,70
 752 962 752 962 781 991 c 128,-1,71
 810 1020 810 1020 810 1062 c 256,60,61
514 478 m 1,72,-1
 514 682 l 1,73,-1
 286 682 l 1,74,-1
 286 478 l 1,75,-1
 514 478 l 1,72,-1
514 226 m 2,76,-1
 514 404 l 1,77,-1
 274 404 l 2,78,79
 130 404 130 404 130 248 c 0,80,81
 130 176 130 176 190 116 c 0,82,83
 222 86 222 86 254 72 c 128,-1,84
 286 58 286 58 330 58 c 0,85,86
 418 58 418 58 466 105 c 128,-1,87
 514 152 514 152 514 226 c 2,76,-1
EndSplineSet
Ligature2: "'abvs' Above Base Substitutions lookup 6 subtable" tm_ka tm_iikaar
EndChar

StartChar: tm_ng_iikaar
Encoding: 65566 -1 143
Width: 1332
GlyphClass: 2
Flags: W
LayerCount: 2
Fore
SplineSet
1274 1120 m 0,0,1
 1274 1164 1274 1164 1246 1198 c 0,2,3
 1222 1232 1222 1232 1180 1232 c 256,4,5
 1138 1232 1138 1232 1109 1194 c 128,-1,6
 1080 1156 1080 1156 1080 1110 c 0,7,8
 1080 1066 1080 1066 1108 1033 c 128,-1,9
 1136 1000 1136 1000 1176 1000 c 0,10,11
 1218 1000 1218 1000 1246 1036 c 128,-1,12
 1274 1072 1274 1072 1274 1120 c 0,0,1
850 684 m 0,13,14
 736 792 736 792 736 958 c 0,15,16
 736 1120 736 1120 816 1218 c 0,17,18
 908 1328 908 1328 1080 1328 c 0,19,20
 1170 1328 1170 1328 1238 1266 c 128,-1,21
 1306 1204 1306 1204 1306 1118 c 0,22,23
 1306 1036 1306 1036 1249 980 c 128,-1,24
 1192 924 1192 924 1110 924 c 0,25,26
 1036 924 1036 924 980 980 c 1,27,28
 928 1038 928 1038 928 1118 c 0,29,30
 928 1180 928 1180 962 1226 c 1,31,32
 920 1214 920 1214 876 1138 c 0,33,34
 832 1054 832 1054 832 960 c 0,35,36
 832 888 832 888 849 838 c 128,-1,37
 866 788 866 788 907 743 c 128,-1,38
 948 698 948 698 993 678 c 128,-1,39
 1038 658 1038 658 1100 658 c 1,40,-1
 1100 768 l 1,41,-1
 1200 768 l 1,42,-1
 1200 0 l 1,43,-1
 614 0 l 1,44,-1
 614 82 l 1,45,46
 664 82 664 82 696 91 c 128,-1,47
 728 100 728 100 760 128 c 0,48,49
 822 184 822 184 822 278 c 0,50,51
 822 418 822 418 662 418 c 0,52,53
 600 418 600 418 551 381 c 128,-1,54
 502 344 502 344 502 286 c 2,55,-1
 502 0 l 1,56,-1
 406 0 l 1,57,-1
 406 696 l 1,58,-1
 112 696 l 1,59,-1
 112 0 l 1,60,-1
 10 0 l 1,61,-1
 10 768 l 1,62,-1
 744 768 l 1,63,-1
 742 696 l 1,64,-1
 502 696 l 1,65,-1
 502 426 l 1,66,67
 532 508 532 508 664 508 c 0,68,69
 772 508 772 508 842 447 c 128,-1,70
 912 386 912 386 912 270 c 0,71,72
 912 152 912 152 822 80 c 1,73,-1
 1100 80 l 1,74,-1
 1100 580 l 1,75,76
 962 580 962 580 850 684 c 0,13,14
EndSplineSet
Ligature2: "'abvs' Above Base Substitutions lookup 6 subtable" tm_nga tm_iikaar
EndChar

StartChar: tm_c_iikaar
Encoding: 65567 -1 144
Width: 922
GlyphClass: 2
Flags: W
LayerCount: 2
Fore
SplineSet
926 1050 m 0,0,1
 926 980 926 980 870 926 c 0,2,3
 814 876 814 876 740 876 c 0,4,5
 544 876 544 876 544 1056 c 0,6,7
 544 1140 544 1140 618 1194 c 1,8,9
 560 1194 560 1194 506 1136 c 0,10,11
 448 1078 448 1078 448 1000 c 0,12,13
 448 896 448 896 528 828 c 0,14,15
 600 768 600 768 696 768 c 2,16,-1
 836 768 l 1,17,-1
 836 684 l 1,18,-1
 606 684 l 1,19,-1
 606 466 l 1,20,-1
 910 466 l 1,21,-1
 910 384 l 1,22,-1
 606 384 l 1,23,-1
 606 208 l 2,24,25
 606 112 606 112 526 47 c 128,-1,26
 446 -18 446 -18 342 -18 c 0,27,28
 228 -18 228 -18 132 59 c 128,-1,29
 36 136 36 136 36 248 c 0,30,31
 36 434 36 434 204 470 c 1,32,-1
 204 768 l 1,33,-1
 450 768 l 1,34,35
 422 790 422 790 392 848 c 0,36,37
 352 922 352 922 352 994 c 0,38,39
 352 1114 352 1114 436 1194 c 128,-1,40
 520 1274 520 1274 670 1274 c 0,41,42
 784 1274 784 1274 855 1213 c 128,-1,43
 926 1152 926 1152 926 1050 c 0,0,1
832 1064 m 256,44,45
 832 1104 832 1104 807 1133 c 128,-1,46
 782 1162 782 1162 740 1162 c 0,47,48
 706 1162 706 1162 674 1133 c 128,-1,49
 642 1104 642 1104 642 1064 c 256,50,51
 642 1024 642 1024 670 994 c 1,52,53
 702 966 702 966 740 966 c 0,54,55
 780 966 780 966 806 995 c 128,-1,56
 832 1024 832 1024 832 1064 c 256,44,45
516 466 m 1,57,-1
 516 684 l 1,58,-1
 298 684 l 1,59,-1
 298 466 l 1,60,-1
 516 466 l 1,57,-1
516 216 m 2,61,-1
 516 384 l 1,62,-1
 282 384 l 2,63,64
 132 384 132 384 132 244 c 0,65,66
 132 170 132 170 193 115 c 128,-1,67
 254 60 254 60 330 60 c 0,68,69
 408 60 408 60 462 102 c 128,-1,70
 516 144 516 144 516 216 c 2,61,-1
EndSplineSet
Ligature2: "'abvs' Above Base Substitutions lookup 6 subtable" tm_ca tm_iikaar
EndChar

StartChar: tm_j_iikaar
Encoding: 65568 -1 145
Width: 1238
GlyphClass: 2
Flags: W
LayerCount: 2
Fore
SplineSet
1352 1062 m 0,0,1
 1352 980 1352 980 1293 916 c 128,-1,2
 1234 852 1234 852 1150 852 c 0,3,4
 1072 852 1072 852 1014 904 c 1,5,6
 960 958 960 958 960 1040 c 0,7,8
 960 1154 960 1154 1066 1208 c 1,9,10
 960 1208 960 1208 896 1150 c 128,-1,11
 832 1092 832 1092 832 992 c 0,12,13
 832 868 832 868 920 806 c 1,14,-1
 1080 716 l 1,15,16
 1168 656 1168 656 1168 530 c 0,17,18
 1168 376 1168 376 1040 296 c 1,19,20
 1094 284 1094 284 1142 230 c 0,21,22
 1202 166 1202 166 1202 78 c 0,23,24
 1202 -6 1202 -6 1144 -72 c 0,25,26
 1068 -162 1068 -162 922 -162 c 0,27,28
 804 -162 804 -162 742 -124 c 1,29,-1
 742 -32 l 1,30,-1
 812 -66 l 2,31,32
 862 -86 862 -86 924 -86 c 0,33,34
 1002 -86 1002 -86 1060 -40 c 0,35,36
 1118 2 1118 2 1118 70 c 0,37,38
 1118 244 1118 244 922 244 c 0,39,40
 822 244 822 244 770 212 c 0,41,42
 734 190 734 190 712 132 c 2,43,-1
 678 26 l 1,44,45
 612 -162 612 -162 382 -162 c 0,46,47
 236 -162 236 -162 157 -86 c 128,-1,48
 78 -10 78 -10 78 102 c 0,49,50
 78 242 78 242 214 290 c 1,51,52
 154 302 154 302 109 361 c 128,-1,53
 64 420 64 420 64 500 c 0,54,55
 64 620 64 620 162 700 c 128,-1,56
 260 780 260 780 402 780 c 0,57,58
 588 780 588 780 650 650 c 1,59,60
 662 686 662 686 716 727 c 128,-1,61
 770 768 770 768 832 776 c 1,62,63
 736 852 736 852 736 966 c 0,64,65
 736 1126 736 1126 834 1216 c 0,66,67
 920 1290 920 1290 1064 1290 c 0,68,69
 1186 1290 1186 1290 1269 1228 c 128,-1,70
 1352 1166 1352 1166 1352 1062 c 0,0,1
1268 1040 m 0,71,72
 1268 1082 1268 1082 1234 1116 c 0,73,74
 1204 1150 1204 1150 1158 1150 c 0,75,76
 1114 1150 1114 1150 1081 1118 c 128,-1,77
 1048 1086 1048 1086 1048 1040 c 0,78,79
 1048 998 1048 998 1079 966 c 128,-1,80
 1110 934 1110 934 1158 934 c 0,81,82
 1198 934 1198 934 1233 964 c 128,-1,83
 1268 994 1268 994 1268 1040 c 0,71,72
1082 532 m 0,84,85
 1082 606 1082 606 1030 655 c 128,-1,86
 978 704 978 704 902 704 c 0,87,88
 802 704 802 704 744 654 c 0,89,90
 716 628 716 628 702 601 c 128,-1,91
 688 574 688 574 688 538 c 2,92,-1
 688 382 l 1,93,-1
 598 382 l 1,94,-1
 598 540 l 2,95,96
 598 614 598 614 544 662 c 128,-1,97
 490 710 490 710 396 710 c 0,98,99
 338 710 338 710 288 688 c 0,100,101
 234 668 234 668 220 638 c 1,102,-1
 306 658 l 1,103,104
 374 658 374 658 422 618 c 0,105,106
 482 570 482 570 482 474 c 0,107,108
 482 360 482 360 390 316 c 1,109,-1
 820 316 l 2,110,111
 926 316 926 316 998 368 c 0,112,113
 1082 428 1082 428 1082 532 c 0,84,85
396 470 m 0,114,115
 396 512 396 512 361 550 c 128,-1,116
 326 588 326 588 278 588 c 0,117,118
 232 588 232 588 197 553 c 128,-1,119
 162 518 162 518 162 470 c 0,120,121
 162 420 162 420 196 385 c 128,-1,122
 230 350 230 350 278 350 c 256,123,124
 326 350 326 350 361 385 c 128,-1,125
 396 420 396 420 396 470 c 0,114,115
682 244 m 1,126,-1
 320 244 l 2,127,128
 248 244 248 244 203 200 c 128,-1,129
 158 156 158 156 158 90 c 0,130,131
 158 14 158 14 226 -37 c 128,-1,132
 294 -88 294 -88 372 -88 c 0,133,134
 486 -88 486 -88 548 -18 c 0,135,136
 582 22 582 22 622 126 c 0,137,138
 654 216 654 216 682 244 c 1,126,-1
EndSplineSet
Ligature2: "'abvs' Above Base Substitutions lookup 6 subtable" tm_ja tm_iikaar
EndChar

StartChar: tm_ny_iikaar
Encoding: 65569 -1 146
Width: 1650
GlyphClass: 2
Flags: W
LayerCount: 2
Fore
SplineSet
812 218 m 256,0,1
 812 292 812 292 765 332 c 128,-1,2
 718 372 718 372 648 372 c 0,3,4
 588 372 588 372 538 325 c 128,-1,5
 488 278 488 278 488 212 c 0,6,7
 488 154 488 154 536 104 c 128,-1,8
 584 54 584 54 648 54 c 0,9,10
 714 54 714 54 763 99 c 128,-1,11
 812 144 812 144 812 218 c 256,0,1
1196 776 m 0,12,13
 1202 772 1202 772 1261 770 c 128,-1,14
 1320 768 1320 768 1358 768 c 0,15,16
 1402 768 1402 768 1410 768 c 128,-1,17
 1418 768 1418 768 1426 768 c 1,18,-1
 1426 694 l 1,19,-1
 1138 694 l 1,20,-1
 1138 406 l 1,21,22
 1174 460 1174 460 1306 460 c 0,23,24
 1430 460 1430 460 1508 383 c 128,-1,25
 1586 306 1586 306 1586 156 c 0,26,27
 1586 -70 1586 -70 1368 -204 c 0,28,29
 1172 -320 1172 -320 908 -320 c 0,30,31
 716 -320 716 -320 570 -282 c 128,-1,32
 424 -244 424 -244 306 -160 c 0,33,34
 64 10 64 10 64 312 c 0,35,36
 64 422 64 422 110 531 c 128,-1,37
 156 640 156 640 216 682 c 1,38,-1
 282 622 l 1,39,40
 234 594 234 594 191 503 c 128,-1,41
 148 412 148 412 148 320 c 0,42,43
 148 46 148 46 352 -102 c 128,-1,44
 556 -250 556 -250 914 -250 c 0,45,46
 1150 -250 1150 -250 1318 -150 c 0,47,48
 1510 -36 1510 -36 1510 164 c 0,49,50
 1510 262 1510 262 1458 321 c 128,-1,51
 1406 380 1406 380 1312 380 c 0,52,53
 1236 380 1236 380 1187 340 c 128,-1,54
 1138 300 1138 300 1138 226 c 2,55,-1
 1138 0 l 1,56,-1
 1054 0 l 1,57,-1
 1054 694 l 1,58,-1
 770 694 l 2,59,60
 586 694 586 694 480 612 c 128,-1,61
 374 530 374 530 374 362 c 0,62,63
 374 306 374 306 392 245 c 128,-1,64
 410 184 410 184 432 172 c 1,65,66
 418 214 418 214 418 252 c 0,67,68
 418 324 418 324 472 382 c 0,69,70
 536 446 536 446 652 446 c 0,71,72
 756 446 756 446 822 382 c 128,-1,73
 888 318 888 318 888 218 c 0,74,75
 888 114 888 114 820 49 c 128,-1,76
 752 -16 752 -16 636 -16 c 0,77,78
 500 -16 500 -16 400 74 c 0,79,80
 294 170 294 170 294 336 c 0,81,82
 294 552 294 552 430 664 c 0,83,84
 558 768 558 768 778 768 c 2,85,-1
 1050 768 l 1,86,87
 1022 790 1022 790 992 848 c 0,88,89
 952 922 952 922 952 994 c 0,90,91
 952 1114 952 1114 1036 1194 c 128,-1,92
 1120 1274 1120 1274 1270 1274 c 0,93,94
 1384 1274 1384 1274 1455 1213 c 128,-1,95
 1526 1152 1526 1152 1526 1050 c 0,96,97
 1526 980 1526 980 1470 926 c 0,98,99
 1414 876 1414 876 1342 876 c 0,100,101
 1144 876 1144 876 1144 1056 c 0,102,103
 1144 1140 1144 1140 1218 1194 c 1,104,105
 1160 1194 1160 1194 1106 1136 c 0,106,107
 1048 1078 1048 1078 1048 1000 c 0,108,109
 1048 940 1048 940 1083 880 c 128,-1,110
 1118 820 1118 820 1196 776 c 0,12,13
1412 1064 m 256,111,112
 1412 1104 1412 1104 1387 1133 c 128,-1,113
 1362 1162 1362 1162 1320 1162 c 0,114,115
 1286 1162 1286 1162 1254 1133 c 128,-1,116
 1222 1104 1222 1104 1222 1064 c 256,117,118
 1222 1024 1222 1024 1250 994 c 1,119,120
 1282 966 1282 966 1320 966 c 0,121,122
 1360 966 1360 966 1386 995 c 128,-1,123
 1412 1024 1412 1024 1412 1064 c 256,111,112
EndSplineSet
Ligature2: "'abvs' Above Base Substitutions lookup 6 subtable" tm_nya tm_iikaar
EndChar

StartChar: tm_tt_iikaar
Encoding: 65570 -1 147
Width: 1080
GlyphClass: 2
Flags: W
LayerCount: 2
Fore
SplineSet
1068 0 m 1,0,-1
 110 0 l 1,1,-1
 110 766 l 1,2,-1
 208 766 l 1,3,-1
 208 76 l 1,4,-1
 518 76 l 1,5,6
 368 196 368 196 368 402 c 0,7,8
 368 566 368 566 458 668 c 128,-1,9
 548 770 548 770 694 770 c 0,10,11
 792 770 792 770 875 704 c 128,-1,12
 958 638 958 638 958 540 c 0,13,14
 958 462 958 462 904 402 c 1,15,16
 848 346 848 346 770 346 c 0,17,18
 690 346 690 346 632 402 c 1,19,20
 578 460 578 460 578 538 c 0,21,22
 578 620 578 620 658 684 c 1,23,24
 570 696 570 696 510 594 c 1,25,26
 460 500 460 500 460 366 c 0,27,28
 460 250 460 250 542 163 c 128,-1,29
 624 76 624 76 722 76 c 2,30,-1
 1068 76 l 1,31,-1
 1068 0 l 1,0,-1
886 540 m 256,32,33
 886 588 886 588 852 622 c 128,-1,34
 818 656 818 656 770 656 c 0,35,36
 720 656 720 656 686 622 c 0,37,38
 652 592 652 592 652 540 c 0,39,40
 652 492 652 492 686 458 c 128,-1,41
 720 424 720 424 770 424 c 0,42,43
 816 424 816 424 851 458 c 128,-1,44
 886 492 886 492 886 540 c 256,32,33
EndSplineSet
Ligature2: "'abvs' Above Base Substitutions lookup 5 subtable" tm_tta tm_iikaar
EndChar

StartChar: tm_nn_iikaar
Encoding: 65571 -1 148
Width: 1974
GlyphClass: 2
Flags: W
LayerCount: 2
Fore
SplineSet
2038 1062 m 0,0,1
 2038 990 2038 990 1978 932 c 0,2,3
 1920 880 1920 880 1840 880 c 0,4,5
 1758 880 1758 880 1703 929 c 128,-1,6
 1648 978 1648 978 1648 1056 c 0,7,8
 1648 1128 1648 1128 1722 1188 c 1,9,10
 1648 1188 1648 1188 1599 1127 c 128,-1,11
 1550 1066 1550 1066 1550 982 c 0,12,13
 1550 896 1550 896 1620 832 c 128,-1,14
 1690 768 1690 768 1764 768 c 2,15,-1
 1962 768 l 1,16,-1
 1962 696 l 1,17,-1
 1728 696 l 1,18,-1
 1728 0 l 1,19,-1
 1632 0 l 1,20,-1
 1632 696 l 1,21,-1
 1486 696 l 2,22,23
 1400 696 1400 696 1366 674 c 1,24,25
 1476 528 1476 528 1476 326 c 0,26,27
 1476 184 1476 184 1420 85 c 128,-1,28
 1364 -14 1364 -14 1288 -14 c 0,29,30
 1222 -14 1222 -14 1161 79 c 128,-1,31
 1100 172 1100 172 1100 298 c 0,32,33
 1100 540 1100 540 1240 688 c 1,34,35
 1170 726 1170 726 1074 726 c 0,36,37
 936 726 936 726 884 674 c 1,38,39
 1022 554 1022 554 1022 320 c 0,40,41
 1022 190 1022 190 978 100 c 0,42,43
 924 -8 924 -8 824 -8 c 0,44,45
 760 -8 760 -8 704 72 c 0,46,47
 640 164 640 164 640 310 c 0,48,49
 640 542 640 542 750 658 c 1,50,51
 644 718 644 718 520 718 c 0,52,53
 364 718 364 718 250 602 c 128,-1,54
 136 486 136 486 136 338 c 0,55,56
 136 284 136 284 152 242 c 1,57,58
 152 332 152 332 207 393 c 128,-1,59
 262 454 262 454 366 454 c 0,60,61
 456 454 456 454 519 385 c 128,-1,62
 582 316 582 316 582 222 c 0,63,64
 582 126 582 126 514 61 c 128,-1,65
 446 -4 446 -4 352 -4 c 0,66,67
 250 -4 250 -4 162 82 c 0,68,69
 64 184 64 184 64 342 c 0,70,71
 64 510 64 510 184 642 c 0,72,73
 320 794 320 794 542 794 c 0,74,75
 706 794 706 794 834 718 c 1,76,77
 894 790 894 790 1064 790 c 0,78,79
 1214 790 1214 790 1306 722 c 1,80,81
 1398 768 1398 768 1502 768 c 2,82,-1
 1564 768 l 1,83,84
 1456 852 1456 852 1456 996 c 0,85,86
 1456 1118 1456 1118 1545 1196 c 128,-1,87
 1634 1274 1634 1274 1776 1274 c 0,88,89
 1880 1274 1880 1274 1959 1216 c 128,-1,90
 2038 1158 2038 1158 2038 1062 c 0,0,1
1946 1064 m 256,91,92
 1946 1102 1946 1102 1917 1132 c 128,-1,93
 1888 1162 1888 1162 1848 1162 c 0,94,95
 1812 1162 1812 1162 1781 1133 c 128,-1,96
 1750 1104 1750 1104 1750 1064 c 0,97,98
 1750 1030 1750 1030 1780 998 c 128,-1,99
 1810 966 1810 966 1848 966 c 256,100,101
 1886 966 1886 966 1916 996 c 128,-1,102
 1946 1026 1946 1026 1946 1064 c 256,91,92
1404 332 m 0,103,104
 1404 424 1404 424 1366 520 c 0,105,106
 1336 600 1336 600 1304 634 c 1,107,108
 1258 608 1258 608 1218 514 c 0,109,110
 1198 466 1198 466 1188 413 c 128,-1,111
 1178 360 1178 360 1178 294 c 0,112,113
 1178 216 1178 216 1210 138 c 128,-1,114
 1242 60 1242 60 1290 60 c 0,115,116
 1334 60 1334 60 1372 152 c 1,117,118
 1404 242 1404 242 1404 332 c 0,103,104
944 328 m 0,119,120
 944 426 944 426 907 517 c 128,-1,121
 870 608 870 608 824 626 c 1,122,123
 786 608 786 608 750 506 c 1,124,125
 718 398 718 398 718 298 c 0,126,127
 718 214 718 214 752 144 c 0,128,129
 786 66 786 66 832 66 c 256,130,131
 878 66 878 66 914 154 c 0,132,133
 944 232 944 232 944 328 c 0,119,120
508 222 m 0,134,135
 508 286 508 286 467 333 c 128,-1,136
 426 380 426 380 360 380 c 0,137,138
 298 380 298 380 254 333 c 128,-1,139
 210 286 210 286 210 220 c 0,140,141
 210 156 210 156 252 108 c 1,142,143
 296 64 296 64 360 64 c 256,144,145
 424 64 424 64 466 109 c 128,-1,146
 508 154 508 154 508 222 c 0,134,135
EndSplineSet
Ligature2: "'abvs' Above Base Substitutions lookup 6 subtable" tm_nna tm_iikaar
EndChar

StartChar: tm_t_iikaar
Encoding: 65572 -1 149
Width: 1006
GlyphClass: 2
Flags: W
LayerCount: 2
Fore
SplineSet
970 182 m 0,0,1
 970 14 970 14 853 -92 c 128,-1,2
 736 -198 736 -198 568 -198 c 2,3,-1
 228 -198 l 2,4,5
 170 -198 170 -198 136 -240 c 128,-1,6
 102 -282 102 -282 102 -334 c 2,7,-1
 102 -434 l 1,8,-1
 4 -434 l 1,9,-1
 4 -344 l 2,10,11
 4 -242 4 -242 64 -181 c 128,-1,12
 124 -120 124 -120 222 -120 c 2,13,-1
 580 -120 l 2,14,15
 696 -120 696 -120 790 -36 c 128,-1,16
 884 48 884 48 884 166 c 0,17,18
 884 266 884 266 838 331 c 128,-1,19
 792 396 792 396 710 396 c 2,20,-1
 606 396 l 1,21,-1
 606 198 l 2,22,23
 606 102 606 102 520 37 c 128,-1,24
 434 -28 434 -28 326 -28 c 0,25,26
 208 -28 208 -28 122 50 c 128,-1,27
 36 128 36 128 36 244 c 0,28,29
 36 438 36 438 224 482 c 1,30,-1
 224 768 l 1,31,-1
 460 768 l 1,32,33
 352 856 352 856 352 998 c 0,34,35
 352 1120 352 1120 443 1195 c 128,-1,36
 534 1270 534 1270 684 1270 c 0,37,38
 788 1270 788 1270 856 1208 c 128,-1,39
 924 1146 924 1146 924 1052 c 0,40,41
 924 980 924 980 870 926 c 1,42,43
 814 876 814 876 736 876 c 0,44,45
 646 876 646 876 594 926 c 1,46,47
 544 980 544 980 544 1058 c 0,48,49
 544 1132 544 1132 606 1188 c 1,50,51
 534 1170 534 1170 491 1119 c 128,-1,52
 448 1068 448 1068 448 998 c 0,53,54
 448 904 448 904 525 836 c 128,-1,55
 602 768 602 768 688 768 c 2,56,-1
 876 768 l 1,57,-1
 876 686 l 1,58,-1
 606 686 l 1,59,-1
 606 482 l 1,60,-1
 712 482 l 2,61,62
 842 482 842 482 912 388 c 0,63,64
 970 306 970 306 970 182 c 0,0,1
834 1064 m 0,65,66
 834 1100 834 1100 805 1132 c 128,-1,67
 776 1164 776 1164 734 1164 c 256,68,69
 692 1164 692 1164 663 1133 c 128,-1,70
 634 1102 634 1102 634 1064 c 0,71,72
 634 1022 634 1022 664 994 c 128,-1,73
 694 966 694 966 734 966 c 0,74,75
 776 966 776 966 805 994 c 128,-1,76
 834 1022 834 1022 834 1064 c 0,65,66
510 482 m 1,77,-1
 510 686 l 1,78,-1
 320 686 l 1,79,-1
 320 482 l 1,80,-1
 510 482 l 1,77,-1
510 196 m 2,81,-1
 510 396 l 1,82,-1
 298 396 l 2,83,84
 226 396 226 396 177 353 c 128,-1,85
 128 310 128 310 128 240 c 0,86,87
 128 164 128 164 188 106 c 0,88,89
 248 52 248 52 334 52 c 0,90,91
 406 52 406 52 458 91 c 128,-1,92
 510 130 510 130 510 196 c 2,81,-1
EndSplineSet
Ligature2: "'abvs' Above Base Substitutions lookup 6 subtable" tm_ta tm_iikaar
EndChar

StartChar: tm_n_iikaar
Encoding: 65573 -1 150
Width: 1050
GlyphClass: 2
Flags: W
LayerCount: 2
Fore
SplineSet
986 192 m 0,0,1
 986 24 986 24 877 -84 c 128,-1,2
 768 -192 768 -192 614 -192 c 2,3,-1
 260 -192 l 2,4,5
 126 -192 126 -192 126 -334 c 2,6,-1
 126 -430 l 1,7,-1
 32 -430 l 1,8,-1
 32 -344 l 2,9,10
 32 -112 32 -112 260 -112 c 2,11,-1
 614 -112 l 2,12,13
 734 -112 734 -112 814 -20 c 0,14,15
 848 22 848 22 868 77 c 128,-1,16
 888 132 888 132 888 192 c 0,17,18
 888 276 888 276 850 346 c 0,19,20
 804 426 804 426 726 426 c 0,21,22
 666 426 666 426 622 388 c 128,-1,23
 578 350 578 350 578 282 c 2,24,-1
 578 0 l 1,25,-1
 482 0 l 1,26,-1
 482 692 l 1,27,-1
 206 692 l 1,28,-1
 206 0 l 1,29,-1
 110 0 l 1,30,-1
 110 768 l 1,31,-1
 440 768 l 1,32,33
 328 840 328 840 328 1012 c 0,34,35
 328 1120 328 1120 418 1196 c 128,-1,36
 508 1272 508 1272 630 1272 c 0,37,38
 760 1272 760 1272 832 1213 c 128,-1,39
 904 1154 904 1154 904 1050 c 0,40,41
 904 970 904 970 852 924 c 1,42,43
 804 876 804 876 712 876 c 0,44,45
 630 876 630 876 577 924 c 128,-1,46
 524 972 524 972 524 1058 c 0,47,48
 524 1138 524 1138 594 1190 c 1,49,50
 520 1178 520 1178 473 1126 c 128,-1,51
 426 1074 426 1074 426 998 c 0,52,53
 426 904 426 904 504 832 c 0,54,55
 540 800 540 800 578 784 c 128,-1,56
 616 768 616 768 662 768 c 2,57,-1
 848 768 l 1,58,-1
 848 692 l 1,59,-1
 578 692 l 1,60,-1
 578 446 l 1,61,62
 634 520 634 520 732 520 c 0,63,64
 852 520 852 520 924 412 c 0,65,66
 986 316 986 316 986 192 c 0,0,1
814 1062 m 0,67,68
 814 1100 814 1100 785 1130 c 128,-1,69
 756 1160 756 1160 716 1160 c 0,70,71
 680 1160 680 1160 649 1131 c 128,-1,72
 618 1102 618 1102 618 1062 c 256,73,74
 618 1022 618 1022 646 994 c 1,75,76
 678 968 678 968 716 968 c 0,77,78
 756 968 756 968 785 995 c 128,-1,79
 814 1022 814 1022 814 1062 c 0,67,68
EndSplineSet
Ligature2: "'abvs' Above Base Substitutions lookup 6 subtable" tm_na tm_iikaar
EndChar

StartChar: tm_nnn_iikaar
Encoding: 65574 -1 151
Width: 1486
GlyphClass: 2
Flags: W
LayerCount: 2
Fore
SplineSet
1608 1060 m 0,0,1
 1608 986 1608 986 1552 930 c 0,2,3
 1496 878 1496 878 1418 878 c 0,4,5
 1342 878 1342 878 1287 925 c 128,-1,6
 1232 972 1232 972 1232 1050 c 0,7,8
 1232 1140 1232 1140 1302 1184 c 1,9,10
 1132 1144 1132 1144 1132 984 c 0,11,12
 1132 894 1132 894 1200 828 c 0,13,14
 1260 768 1260 768 1334 768 c 2,15,-1
 1476 768 l 1,16,-1
 1476 682 l 1,17,-1
 1322 682 l 1,18,-1
 1322 0 l 1,19,-1
 1228 0 l 1,20,-1
 1228 682 l 1,21,-1
 1020 682 l 2,22,23
 912 682 912 682 888 650 c 1,24,25
 942 626 942 626 981 521 c 128,-1,26
 1020 416 1020 416 1020 302 c 0,27,28
 1020 186 1020 186 970 87 c 128,-1,29
 920 -12 920 -12 836 -12 c 0,30,31
 748 -12 748 -12 689 81 c 128,-1,32
 630 174 630 174 630 318 c 0,33,34
 630 516 630 516 746 650 c 1,35,36
 658 704 658 704 530 704 c 0,37,38
 364 704 364 704 251 592 c 128,-1,39
 138 480 138 480 138 324 c 0,40,41
 138 292 138 292 140 274 c 128,-1,42
 142 256 142 256 152 222 c 1,43,44
 152 320 152 320 210 385 c 128,-1,45
 268 450 268 450 366 450 c 0,46,47
 462 450 462 450 521 380 c 128,-1,48
 580 310 580 310 580 208 c 0,49,50
 580 118 580 118 512 53 c 128,-1,51
 444 -12 444 -12 350 -12 c 0,52,53
 250 -12 250 -12 164 76 c 0,54,55
 64 176 64 176 64 328 c 0,56,57
 64 518 64 518 200 649 c 128,-1,58
 336 780 336 780 530 780 c 256,59,60
 724 780 724 780 824 706 c 1,61,62
 842 720 842 720 898 746 c 0,63,64
 952 768 952 768 990 768 c 2,65,-1
 1140 768 l 1,66,67
 1096 798 1096 798 1067 866 c 128,-1,68
 1038 934 1038 934 1038 1004 c 0,69,70
 1038 1112 1038 1112 1128 1190 c 128,-1,71
 1218 1268 1218 1268 1364 1268 c 0,72,73
 1468 1268 1468 1268 1538 1213 c 128,-1,74
 1608 1158 1608 1158 1608 1060 c 0,0,1
1518 1060 m 0,75,76
 1518 1100 1518 1100 1490 1129 c 128,-1,77
 1462 1158 1462 1158 1422 1158 c 0,78,79
 1388 1158 1388 1158 1357 1129 c 128,-1,80
 1326 1100 1326 1100 1326 1060 c 256,81,82
 1326 1020 1326 1020 1354 991 c 128,-1,83
 1382 962 1382 962 1422 962 c 256,84,85
 1462 962 1462 962 1490 992 c 128,-1,86
 1518 1022 1518 1022 1518 1060 c 0,75,76
936 304 m 256,87,88
 936 402 936 402 904 493 c 128,-1,89
 872 584 872 584 820 614 c 1,90,91
 718 512 718 512 718 304 c 0,92,93
 718 220 718 220 752 141 c 128,-1,94
 786 62 786 62 836 62 c 0,95,96
 876 62 876 62 906 134 c 128,-1,97
 936 206 936 206 936 304 c 256,87,88
510 208 m 256,98,99
 510 276 510 276 469 324 c 128,-1,100
 428 372 428 372 362 372 c 256,101,102
 296 372 296 372 255 325 c 128,-1,103
 214 278 214 278 214 208 c 0,104,105
 214 140 214 140 255 94 c 128,-1,106
 296 48 296 48 362 48 c 256,107,108
 428 48 428 48 469 94 c 128,-1,109
 510 140 510 140 510 208 c 256,98,99
EndSplineSet
Ligature2: "'abvs' Above Base Substitutions lookup 6 subtable" tm_nnna tm_iikaar
EndChar

StartChar: tm_p_iikaar
Encoding: 65575 -1 152
Width: 1012
GlyphClass: 2
Flags: W
LayerCount: 2
Fore
SplineSet
1002 1112 m 0,0,1
 1002 1034 1002 1034 943 978 c 128,-1,2
 884 922 884 922 806 922 c 0,3,4
 724 922 724 922 669 977 c 128,-1,5
 614 1032 614 1032 614 1112 c 0,6,7
 614 1172 614 1172 650 1226 c 1,8,9
 516 1132 516 1132 516 960 c 0,10,11
 516 822 516 822 612 732 c 0,12,13
 696 654 696 654 806 654 c 1,14,-1
 806 768 l 1,15,-1
 902 768 l 1,16,-1
 902 0 l 1,17,-1
 110 0 l 1,18,-1
 110 768 l 1,19,-1
 206 768 l 1,20,-1
 206 74 l 1,21,-1
 806 74 l 1,22,-1
 806 576 l 1,23,24
 644 576 644 576 533 684 c 128,-1,25
 422 792 422 792 422 960 c 0,26,27
 422 1102 422 1102 518 1212 c 128,-1,28
 614 1322 614 1322 754 1322 c 0,29,30
 852 1322 852 1322 927 1264 c 128,-1,31
 1002 1206 1002 1206 1002 1112 c 0,0,1
904 1110 m 0,32,33
 904 1160 904 1160 876 1194 c 1,34,35
 852 1230 852 1230 806 1230 c 0,36,37
 764 1230 764 1230 738 1195 c 128,-1,38
 712 1160 712 1160 712 1116 c 256,39,40
 712 1072 712 1072 737 1035 c 128,-1,41
 762 998 762 998 806 998 c 0,42,43
 848 998 848 998 876 1032 c 128,-1,44
 904 1066 904 1066 904 1110 c 0,32,33
EndSplineSet
Ligature2: "'abvs' Above Base Substitutions lookup 6 subtable" tm_pa tm_iikaar
EndChar

StartChar: tm_m_iikaar
Encoding: 65576 -1 153
Width: 1246
GlyphClass: 2
Flags: W
LayerCount: 2
Fore
SplineSet
1230 1072 m 0,0,1
 1230 994 1230 994 1173 943 c 128,-1,2
 1116 892 1116 892 1028 892 c 0,3,4
 958 892 958 892 900 940 c 0,5,6
 848 988 848 988 848 1066 c 0,7,8
 848 1140 848 1140 918 1198 c 1,9,10
 848 1188 848 1188 799 1130 c 128,-1,11
 750 1072 750 1072 750 992 c 0,12,13
 750 880 750 880 834 828 c 1,14,-1
 1004 750 l 1,15,16
 1184 650 1184 650 1184 402 c 0,17,18
 1184 0 1184 0 852 0 c 2,19,-1
 110 0 l 1,20,-1
 110 768 l 1,21,-1
 200 768 l 1,22,-1
 200 70 l 1,23,-1
 562 70 l 1,24,-1
 562 500 l 2,25,26
 562 724 562 724 770 778 c 1,27,28
 658 838 658 838 658 1004 c 0,29,30
 658 1126 658 1126 748 1204 c 128,-1,31
 838 1282 838 1282 984 1282 c 0,32,33
 1084 1282 1084 1282 1157 1226 c 128,-1,34
 1230 1170 1230 1170 1230 1072 c 0,0,1
1146 1074 m 0,35,36
 1146 1114 1146 1114 1116 1146 c 128,-1,37
 1086 1178 1086 1178 1042 1178 c 0,38,39
 1002 1178 1002 1178 970 1148 c 128,-1,40
 938 1118 938 1118 938 1074 c 0,41,42
 938 1034 938 1034 968 1000 c 1,43,44
 1000 972 1000 972 1042 972 c 0,45,46
 1086 972 1086 972 1116 1001 c 128,-1,47
 1146 1030 1146 1030 1146 1074 c 0,35,36
1094 410 m 0,48,49
 1094 480 1094 480 1080 531 c 128,-1,50
 1066 582 1066 582 1030 628 c 0,51,52
 970 712 970 712 860 712 c 0,53,54
 658 712 658 712 658 534 c 2,55,-1
 658 70 l 1,56,-1
 838 70 l 2,57,58
 1094 70 1094 70 1094 410 c 0,48,49
EndSplineSet
Ligature2: "'abvs' Above Base Substitutions lookup 6 subtable" tm_ma tm_iikaar
EndChar

StartChar: tm_y_iikaar
Encoding: 65577 -1 154
Width: 1332
GlyphClass: 2
Flags: W
LayerCount: 2
Fore
SplineSet
1314 1126 m 0,0,1
 1314 1040 1314 1040 1259 981 c 128,-1,2
 1204 922 1204 922 1122 922 c 0,3,4
 1042 922 1042 922 984 979 c 128,-1,5
 926 1036 926 1036 926 1118 c 0,6,7
 926 1188 926 1188 960 1234 c 1,8,9
 920 1226 920 1226 873 1137 c 128,-1,10
 826 1048 826 1048 826 966 c 0,11,12
 826 836 826 836 916 747 c 128,-1,13
 1006 658 1006 658 1118 658 c 1,14,-1
 1118 768 l 1,15,-1
 1222 768 l 1,16,-1
 1222 0 l 1,17,-1
 462 0 l 1,18,-1
 462 76 l 1,19,20
 386 -18 386 -18 308 -18 c 0,21,22
 110 -18 110 -18 110 214 c 2,23,-1
 110 768 l 1,24,-1
 212 768 l 1,25,-1
 212 208 l 2,26,27
 212 80 212 80 312 80 c 0,28,29
 368 80 368 80 415 139 c 128,-1,30
 462 198 462 198 462 268 c 2,31,-1
 462 768 l 1,32,-1
 558 768 l 1,33,-1
 558 68 l 1,34,-1
 1118 68 l 1,35,-1
 1118 576 l 1,36,37
 964 576 964 576 846 690 c 0,38,39
 790 748 790 748 762 814 c 128,-1,40
 734 880 734 880 734 962 c 0,41,42
 734 1128 734 1128 830 1236 c 128,-1,43
 926 1344 926 1344 1076 1344 c 0,44,45
 1186 1344 1186 1344 1250 1283 c 128,-1,46
 1314 1222 1314 1222 1314 1126 c 0,0,1
1218 1120 m 256,47,48
 1218 1166 1218 1166 1190 1202 c 128,-1,49
 1162 1238 1162 1238 1118 1238 c 0,50,51
 1076 1238 1076 1238 1052 1201 c 128,-1,52
 1028 1164 1028 1164 1028 1114 c 0,53,54
 1028 1070 1028 1070 1052 1035 c 128,-1,55
 1076 1000 1076 1000 1118 1000 c 256,56,57
 1160 1000 1160 1000 1189 1037 c 128,-1,58
 1218 1074 1218 1074 1218 1120 c 256,47,48
EndSplineSet
Ligature2: "'abvs' Above Base Substitutions lookup 6 subtable" tm_ya tm_iikaar
EndChar

StartChar: tm_r_iikaar
Encoding: 65578 -1 155
Width: 800
GlyphClass: 2
Flags: W
LayerCount: 2
Fore
SplineSet
856 690 m 1,0,-1
 606 690 l 1,1,-1
 606 -4 l 1,2,-1
 118 -238 l 1,3,-1
 74 -154 l 1,4,-1
 500 52 l 1,5,-1
 500 690 l 1,6,-1
 200 690 l 1,7,-1
 200 0 l 1,8,-1
 106 0 l 1,9,-1
 106 768 l 1,10,-1
 424 768 l 1,11,12
 270 822 270 822 270 1012 c 0,13,14
 270 1126 270 1126 352 1203 c 128,-1,15
 434 1280 434 1280 572 1280 c 0,16,17
 694 1280 694 1280 770 1221 c 128,-1,18
 846 1162 846 1162 846 1050 c 0,19,20
 846 976 846 976 797 925 c 128,-1,21
 748 874 748 874 670 874 c 0,22,23
 584 874 584 874 532 918 c 0,24,25
 470 968 470 968 470 1050 c 0,26,27
 470 1156 470 1156 550 1200 c 1,28,29
 486 1206 486 1206 426 1146 c 0,30,31
 370 1086 370 1086 370 1012 c 0,32,33
 370 894 370 894 458 824 c 0,34,35
 496 796 496 796 528 782 c 128,-1,36
 560 768 560 768 598 768 c 2,37,-1
 856 768 l 1,38,-1
 856 690 l 1,0,-1
762 1062 m 0,39,40
 762 1100 762 1100 732 1130 c 128,-1,41
 702 1160 702 1160 662 1160 c 0,42,43
 626 1160 626 1160 595 1131 c 128,-1,44
 564 1102 564 1102 564 1062 c 256,45,46
 564 1022 564 1022 593 992 c 128,-1,47
 622 962 622 962 662 962 c 0,48,49
 698 962 698 962 730 992 c 128,-1,50
 762 1022 762 1022 762 1062 c 0,39,40
EndSplineSet
Ligature2: "'abvs' Above Base Substitutions lookup 5 subtable" tm_ra tm_iikaar
EndChar

StartChar: tm_rr_iikaar
Encoding: 65579 -1 156
Width: 1046
GlyphClass: 2
Flags: W
LayerCount: 2
Fore
SplineSet
1072 1066 m 0,0,1
 1072 990 1072 990 1019 937 c 128,-1,2
 966 884 966 884 884 884 c 256,3,4
 802 884 802 884 747 930 c 128,-1,5
 692 976 692 976 692 1058 c 0,6,7
 692 1150 692 1150 756 1190 c 1,8,9
 700 1190 700 1190 644 1130 c 0,10,11
 596 1076 596 1076 596 1004 c 0,12,13
 596 884 596 884 696 822 c 0,14,15
 862 726 862 726 882 702 c 0,16,17
 982 592 982 592 982 348 c 0,18,19
 982 54 982 54 834 -88 c 0,20,21
 716 -202 716 -202 524 -202 c 2,22,-1
 268 -202 l 2,23,24
 140 -202 140 -202 140 -340 c 2,25,-1
 140 -436 l 1,26,-1
 52 -436 l 1,27,-1
 52 -344 l 2,28,29
 52 -248 52 -248 108 -186 c 0,30,31
 136 -156 136 -156 167 -140 c 128,-1,32
 198 -124 198 -124 236 -124 c 2,33,-1
 534 -124 l 2,34,35
 716 -124 716 -124 808 1 c 128,-1,36
 900 126 900 126 900 340 c 0,37,38
 900 486 900 486 850 592 c 0,39,40
 792 718 792 718 688 718 c 0,41,42
 622 718 622 718 570 678 c 128,-1,43
 518 638 518 638 518 570 c 2,44,-1
 518 2 l 1,45,-1
 428 2 l 1,46,-1
 428 558 l 2,47,48
 428 624 428 624 394 663 c 128,-1,49
 360 702 360 702 312 702 c 0,50,51
 268 702 268 702 234 667 c 128,-1,52
 200 632 200 632 200 568 c 2,53,-1
 200 2 l 1,54,-1
 110 2 l 1,55,-1
 110 570 l 2,56,57
 110 784 110 784 314 784 c 0,58,59
 428 784 428 784 490 698 c 1,60,61
 524 750 524 750 604 786 c 1,62,63
 562 800 562 800 531 866 c 128,-1,64
 500 932 500 932 500 1008 c 0,65,66
 500 1126 500 1126 586 1200 c 128,-1,67
 672 1274 672 1274 830 1274 c 0,68,69
 928 1274 928 1274 1000 1215 c 128,-1,70
 1072 1156 1072 1156 1072 1066 c 0,0,1
986 1070 m 0,71,72
 986 1110 986 1110 956 1140 c 128,-1,73
 926 1170 926 1170 884 1170 c 0,74,75
 848 1170 848 1170 816 1141 c 128,-1,76
 784 1112 784 1112 784 1070 c 256,77,78
 784 1028 784 1028 814 1000 c 128,-1,79
 844 972 844 972 884 972 c 0,80,81
 928 972 928 972 957 1000 c 128,-1,82
 986 1028 986 1028 986 1070 c 0,71,72
EndSplineSet
Ligature2: "'abvs' Above Base Substitutions lookup 6 subtable" tm_rra tm_iikaar
EndChar

StartChar: tm_l_iikaar
Encoding: 65580 -1 157
Width: 1298
GlyphClass: 2
Flags: W
LayerCount: 2
Fore
SplineSet
1234 404 m 0,0,1
 1234 218 1234 218 1149 108 c 128,-1,2
 1064 -2 1064 -2 918 -2 c 0,3,4
 830 -2 830 -2 763 53 c 128,-1,5
 696 108 696 108 696 194 c 2,6,-1
 696 554 l 2,7,8
 696 648 696 648 628 702 c 0,9,10
 570 748 570 748 474 748 c 0,11,12
 146 748 146 748 146 368 c 0,13,14
 146 210 146 210 192 182 c 1,15,-1
 184 238 l 1,16,17
 184 310 184 310 245 371 c 128,-1,18
 306 432 306 432 400 432 c 0,19,20
 482 432 482 432 540 368 c 128,-1,21
 598 304 598 304 598 220 c 0,22,23
 598 130 598 130 536 67 c 128,-1,24
 474 4 474 4 380 4 c 0,25,26
 244 4 244 4 158 96 c 0,27,28
 64 194 64 194 64 366 c 0,29,30
 64 580 64 580 171 698 c 128,-1,31
 278 816 278 816 466 816 c 0,32,33
 780 816 780 816 780 546 c 2,34,-1
 780 230 l 2,35,36
 780 76 780 76 930 76 c 0,37,38
 1024 76 1024 76 1088 162 c 128,-1,39
 1152 248 1152 248 1152 400 c 0,40,41
 1152 542 1152 542 1096 630 c 0,42,43
 1032 732 1032 732 914 732 c 0,44,45
 890 732 890 732 876 730 c 128,-1,46
 862 728 862 728 828 716 c 1,47,-1
 828 758 l 1,48,49
 752 784 752 784 698 860 c 0,50,51
 676 894 676 894 662 939 c 128,-1,52
 648 984 648 984 648 1036 c 0,53,54
 648 1156 648 1156 734 1231 c 128,-1,55
 820 1306 820 1306 958 1306 c 0,56,57
 1074 1306 1074 1306 1149 1251 c 128,-1,58
 1224 1196 1224 1196 1224 1102 c 0,59,60
 1224 1026 1224 1026 1170 968 c 1,61,62
 1114 916 1114 916 1028 916 c 0,63,64
 962 916 962 916 898 964 c 0,65,66
 840 1012 840 1012 840 1084 c 0,67,68
 840 1176 840 1176 918 1230 c 1,69,70
 850 1224 850 1224 796 1170 c 0,71,72
 740 1108 740 1108 740 1024 c 0,73,74
 740 930 740 930 820 862 c 0,75,76
 880 808 880 808 930 808 c 0,77,78
 1044 808 1044 808 1132 714 c 0,79,80
 1234 602 1234 602 1234 404 c 0,0,1
1136 1100 m 0,81,82
 1136 1144 1136 1144 1108 1172 c 128,-1,83
 1080 1200 1080 1200 1036 1200 c 256,84,85
 992 1200 992 1200 963 1172 c 128,-1,86
 934 1144 934 1144 934 1100 c 256,87,88
 934 1056 934 1056 962 1026 c 1,89,90
 994 998 994 998 1036 998 c 0,91,92
 1080 998 1080 998 1108 1028 c 128,-1,93
 1136 1058 1136 1058 1136 1100 c 0,81,82
528 220 m 0,94,95
 528 274 528 274 488 314 c 128,-1,96
 448 354 448 354 392 354 c 256,97,98
 336 354 336 354 297 315 c 128,-1,99
 258 276 258 276 258 220 c 256,100,101
 258 164 258 164 297 124 c 128,-1,102
 336 84 336 84 392 84 c 256,103,104
 448 84 448 84 488 124 c 128,-1,105
 528 164 528 164 528 220 c 0,94,95
EndSplineSet
Ligature2: "'abvs' Above Base Substitutions lookup 5 subtable" tm_la tm_iikaar
EndChar

StartChar: tm_ll_iikaar
Encoding: 65581 -1 158
Width: 1424
GlyphClass: 2
Flags: W
LayerCount: 2
Fore
SplineSet
1486 1066 m 0,0,1
 1486 992 1486 992 1430 936 c 0,2,3
 1374 884 1374 884 1300 884 c 0,4,5
 1216 884 1216 884 1160 934 c 1,6,7
 1108 986 1108 986 1108 1066 c 0,8,9
 1108 1144 1108 1144 1182 1200 c 1,10,11
 1126 1200 1126 1200 1067 1141 c 128,-1,12
 1008 1082 1008 1082 1008 1008 c 0,13,14
 1008 902 1008 902 1104 830 c 1,15,16
 1194 768 1194 768 1322 768 c 2,17,-1
 1412 768 l 1,18,-1
 1412 688 l 1,19,-1
 1208 688 l 1,20,-1
 1208 0 l 1,21,-1
 1112 0 l 1,22,-1
 1112 688 l 1,23,-1
 826 688 l 1,24,-1
 826 0 l 1,25,-1
 730 0 l 1,26,-1
 730 500 l 2,27,28
 730 602 730 602 653 662 c 128,-1,29
 576 722 576 722 468 722 c 0,30,31
 322 722 322 722 240 642 c 0,32,33
 146 552 146 552 146 372 c 0,34,35
 146 308 146 308 176 238 c 1,36,37
 176 462 176 462 406 462 c 0,38,39
 496 462 496 462 559 396 c 128,-1,40
 622 330 622 330 622 226 c 0,41,42
 622 126 622 126 549 55 c 128,-1,43
 476 -16 476 -16 374 -16 c 0,44,45
 234 -16 234 -16 149 93 c 128,-1,46
 64 202 64 202 64 374 c 0,47,48
 64 578 64 578 176 688 c 0,49,50
 280 788 280 788 454 788 c 0,51,52
 562 788 562 788 622 763 c 128,-1,53
 682 738 682 738 752 668 c 1,54,-1
 752 768 l 1,55,-1
 1026 768 l 1,56,57
 918 864 918 864 918 1008 c 0,58,59
 918 1128 918 1128 1008 1204 c 128,-1,60
 1098 1280 1098 1280 1238 1280 c 0,61,62
 1348 1280 1348 1280 1417 1219 c 128,-1,63
 1486 1158 1486 1158 1486 1066 c 0,0,1
1398 1072 m 0,64,65
 1398 1110 1398 1110 1369 1140 c 128,-1,66
 1340 1170 1340 1170 1300 1170 c 0,67,68
 1264 1170 1264 1170 1233 1141 c 128,-1,69
 1202 1112 1202 1112 1202 1072 c 0,70,71
 1202 1038 1202 1038 1232 1006 c 128,-1,72
 1262 974 1262 974 1300 974 c 0,73,74
 1340 974 1340 974 1369 1003 c 128,-1,75
 1398 1032 1398 1032 1398 1072 c 0,64,65
544 222 m 256,76,77
 544 290 544 290 498 336 c 0,78,79
 456 382 456 382 386 382 c 0,80,81
 320 382 320 382 275 335 c 128,-1,82
 230 288 230 288 230 222 c 0,83,84
 230 154 230 154 274 109 c 128,-1,85
 318 64 318 64 386 64 c 0,86,87
 452 64 452 64 498 109 c 128,-1,88
 544 154 544 154 544 222 c 256,76,77
EndSplineSet
Ligature2: "'abvs' Above Base Substitutions lookup 6 subtable" tm_lla tm_iikaar
EndChar

StartChar: tm_lll_iikaar
Encoding: 65582 -1 159
Width: 1246
GlyphClass: 2
Flags: W
LayerCount: 2
Fore
SplineSet
1188 1084 m 0,0,1
 1188 1006 1188 1006 1133 957 c 128,-1,2
 1078 908 1078 908 1000 908 c 0,3,4
 920 908 920 908 865 956 c 128,-1,5
 810 1004 810 1004 810 1076 c 0,6,7
 810 1168 810 1168 884 1218 c 1,8,9
 820 1218 820 1218 770 1168 c 0,10,11
 708 1106 708 1106 708 1004 c 0,12,13
 708 888 708 888 832 826 c 0,14,15
 1042 728 1042 728 1060 712 c 0,16,17
 1184 610 1184 610 1184 382 c 0,18,19
 1184 200 1184 200 1092 100 c 128,-1,20
 1000 0 1000 0 834 0 c 2,21,-1
 668 0 l 1,22,23
 674 -64 674 -64 730 -108 c 128,-1,24
 786 -152 786 -152 870 -152 c 2,25,-1
 1066 -152 l 1,26,-1
 1066 -244 l 1,27,-1
 914 -244 l 2,28,29
 810 -244 810 -244 734 -318 c 1,30,-1
 608 -458 l 1,31,32
 522 -532 522 -532 402 -532 c 0,33,34
 272 -532 272 -532 192 -458 c 0,35,36
 146 -416 146 -416 127 -355 c 128,-1,37
 108 -294 108 -294 108 -206 c 1,38,-1
 200 -206 l 1,39,-1
 198 -244 l 1,40,41
 198 -334 198 -334 244 -388 c 0,42,43
 298 -454 298 -454 406 -454 c 0,44,45
 482 -454 482 -454 546 -398 c 1,46,-1
 638 -286 l 2,47,48
 690 -226 690 -226 734 -214 c 1,49,50
 670 -194 670 -194 616 -128 c 0,51,52
 570 -70 570 -70 576 0 c 1,53,-1
 110 0 l 1,54,-1
 110 768 l 1,55,-1
 202 768 l 1,56,-1
 202 84 l 1,57,-1
 572 84 l 1,58,-1
 572 552 l 2,59,60
 572 738 572 738 734 780 c 1,61,62
 696 798 696 798 662 856 c 0,63,64
 614 934 614 934 614 1030 c 0,65,66
 614 1142 614 1142 699 1220 c 128,-1,67
 784 1298 784 1298 932 1298 c 0,68,69
 1056 1298 1056 1298 1122 1240 c 0,70,71
 1188 1186 1188 1186 1188 1084 c 0,0,1
1102 1088 m 0,72,73
 1102 1128 1102 1128 1073 1160 c 128,-1,74
 1044 1192 1044 1192 1000 1192 c 0,75,76
 958 1192 958 1192 929 1163 c 128,-1,77
 900 1134 900 1134 900 1088 c 0,78,79
 900 1044 900 1044 929 1017 c 128,-1,80
 958 990 958 990 1000 990 c 0,81,82
 1044 990 1044 990 1073 1017 c 128,-1,83
 1102 1044 1102 1044 1102 1088 c 0,72,73
1092 388 m 0,84,85
 1092 540 1092 540 1027 627 c 128,-1,86
 962 714 962 714 850 714 c 0,87,88
 778 714 778 714 722 676 c 128,-1,89
 666 638 666 638 666 572 c 2,90,-1
 666 84 l 1,91,-1
 854 84 l 2,92,93
 978 84 978 84 1042 180 c 0,94,95
 1092 262 1092 262 1092 388 c 0,84,85
EndSplineSet
Ligature2: "'abvs' Above Base Substitutions lookup 6 subtable" tm_llla tm_iikaar
EndChar

